{"glyphs":{"0":{"ha":536,"x_min":0,"x_max":0,"o":"m 529 864 l 529 864 b 347 224 553 701 488 326 b 158 394 242 146 175 310 b 247 883 125 553 168 749 b 479 997 286 949 399 1093 b 529 864 503 969 521 925 z m 154 206 l 154 206 b 449 318 285 76 393 210 b 549 865 531 481 572 721 b 153 894 508 1151 269 1092 b 154 206 51 725 -18 376 z "},"1":{"ha":361,"x_min":0,"x_max":0,"o":"m 269 1064 l 269 1064 b 264 951 276 1069 265 967 b 192 183 249 743 215 353 b 197 172 190 181 192 175 b 211 165 201 169 206 167 b 253 160 225 163 242 161 b 278 163 263 160 272 161 b 285 165 281 161 283 163 b 285 165 285 165 285 165 l 285 165 b 288 169 288 167 288 168 b 335 629 300 258 319 446 b 365 1093 354 860 371 1086 b 365 1097 367 1094 365 1096 b 328 1111 357 1106 343 1111 b 283 1103 314 1113 299 1110 b 279 1101 282 1103 281 1101 b 279 1100 279 1101 279 1101 b 268 1093 275 1099 274 1096 b 267 1089 267 1092 265 1092 b 121 996 233 1065 172 1028 b 54 954 93 979 71 965 b 53 940 51 951 50 944 b 67 936 56 935 64 933 b 133 978 82 946 106 961 b 269 1064 179 1006 235 1039 z "},"2":{"ha":510,"x_min":0,"x_max":0,"o":"m 139 188 l 139 188 b 475 985 281 349 532 751 b 242 1046 449 1094 311 1118 b 197 900 208 1011 193 956 b 218 900 197 886 218 886 b 228 985 217 933 219 961 b 378 981 264 1082 356 1078 b 32 192 433 754 172 346 b 36 176 31 188 29 181 b 49 176 39 174 44 174 b 128 168 57 183 89 176 b 504 313 242 144 426 107 b 483 321 508 325 489 333 b 139 188 415 136 246 165 z "},"3":{"ha":379,"x_min":0,"x_max":0,"o":"m 396 972 l 396 972 b 250 1047 388 1051 315 1069 b 92 900 183 1025 111 968 b 111 893 88 888 107 881 b 165 974 121 921 140 950 b 190 994 174 982 182 989 b 288 903 294 1069 318 985 b 122 717 264 843 190 736 b 108 713 115 715 113 715 b 111 693 99 707 99 694 b 160 221 381 657 265 336 b 56 246 108 165 63 171 b 35 246 54 258 35 260 b 132 151 39 179 61 150 b 229 707 344 153 522 633 b 396 972 307 749 407 882 z "},"4":{"ha":590,"x_min":0,"x_max":0,"o":"m 58 589 l 58 589 b 63 569 49 586 51 569 b 208 560 106 569 157 565 b 400 549 271 554 338 549 b 356 164 385 421 368 293 b 454 161 361 138 453 140 b 496 557 465 293 479 425 b 594 589 533 563 567 574 b 585 607 606 596 596 614 b 499 578 560 593 531 585 b 540 1065 522 775 543 963 b 540 1067 540 1065 540 1067 b 540 1069 542 1068 542 1069 b 446 1057 532 1096 446 1085 b 58 589 442 967 142 625 z m 401 569 l 401 569 b 210 581 338 569 272 575 b 99 589 169 585 133 588 b 446 993 206 668 382 871 b 401 569 439 886 421 731 z "},"5":{"ha":432,"x_min":0,"x_max":0,"o":"m 422 1057 l 422 1057 b 144 1031 369 961 232 965 b 125 1026 139 1038 131 1035 b 63 686 93 983 49 742 b 328 521 79 622 289 744 b 233 244 347 415 299 318 b 135 186 199 206 164 181 b 69 297 90 194 72 258 b 60 307 69 303 65 307 b 49 296 53 307 49 303 b 57 250 50 279 51 264 b 285 188 88 129 197 132 b 432 511 385 253 447 396 b 158 689 413 676 293 682 b 203 978 146 743 185 922 b 440 1046 293 946 396 964 b 422 1057 447 1057 431 1068 z "},"6":{"ha":497,"x_min":0,"x_max":0,"o":"m 393 494 l 393 494 b 328 225 425 399 419 278 b 168 324 275 193 208 213 b 167 610 140 411 150 525 b 393 494 257 624 361 582 z m 172 632 l 172 632 b 524 1057 210 792 331 1057 b 522 1078 538 1057 536 1078 b 67 321 139 1067 -10 588 b 146 188 85 263 110 215 b 283 169 190 154 239 153 b 413 500 414 219 460 368 b 172 632 381 593 269 643 z "},"7":{"ha":453,"x_min":0,"x_max":0,"o":"m 72 986 l 72 986 b 238 1007 117 982 181 992 b 363 1050 288 1019 335 1036 b 139 169 276 757 218 468 b 238 163 133 143 239 138 b 471 1086 319 463 371 807 b 468 1100 474 1090 472 1096 b 447 1101 464 1103 457 1103 b 231 1026 393 1094 260 1033 b 71 1007 175 1013 115 1003 b 72 986 57 1008 57 988 z "},"8":{"ha":467,"x_min":0,"x_max":0,"o":"m 250 649 l 250 649 b 225 189 450 421 383 225 b 63 281 150 172 75 190 b 250 649 40 410 171 567 z m 236 1019 l 236 1019 b 404 918 310 1092 426 1021 b 292 728 388 850 328 768 b 215 876 251 786 228 835 b 236 1019 199 935 204 988 z m 304 710 l 304 710 b 421 897 342 751 399 826 b 235 667 508 1179 -140 1183 b 40 278 151 578 18 417 b 118 171 50 226 79 190 b 453 314 251 110 414 182 b 304 710 496 446 407 603 z "},"9":{"ha":479,"x_min":0,"x_max":0,"o":"m 40 150 l 40 150 b 264 214 133 150 206 174 b 451 1025 429 332 583 829 b 382 1081 432 1053 407 1072 b 219 1026 319 1104 258 1074 b 204 744 158 950 144 836 b 381 647 244 682 310 650 b 38 171 349 478 244 171 b 40 150 24 171 26 150 z m 385 668 l 385 668 b 221 756 321 669 260 697 b 236 1014 165 839 179 943 b 364 1000 283 1071 324 1075 b 385 668 415 910 401 761 z "},"\u0000":{"ha":0,"x_min":0,"x_max":0,"o":""},"\r":{"ha":278,"x_min":0,"x_max":0,"o":""}," ":{"ha":278,"x_min":0,"x_max":0,"o":""},"@":{"ha":649,"x_min":0,"x_max":0,"o":"m 472 553 l 472 553 b 178 385 351 556 232 504 b 156 296 163 354 157 325 b 289 189 149 207 200 143 b 422 389 357 226 394 321 b 424 165 406 344 351 181 b 476 181 443 163 460 169 b 519 219 489 189 503 203 b 508 642 638 343 753 579 b 51 371 311 694 115 565 b 571 178 -46 68 408 -32 b 558 188 582 190 567 196 b 68 368 408 -10 -25 82 b 504 628 126 550 317 676 b 528 256 718 569 629 369 b 453 235 503 226 440 160 b 532 515 465 326 494 403 b 533 539 535 526 535 533 b 472 553 531 565 489 567 z m 460 531 l 460 531 b 417 426 446 504 432 467 b 289 214 383 340 347 239 b 222 321 221 181 215 275 b 460 531 247 431 353 513 z "},"&":{"ha":719,"x_min":0,"x_max":0,"o":"m 428 200 l 428 200 b 649 371 546 143 682 225 b 631 365 646 383 626 378 b 474 236 654 258 575 174 b 578 490 542 300 604 397 b 307 549 547 607 401 639 b 292 621 301 571 299 594 b 289 656 292 632 290 644 b 218 622 689 969 125 1206 b 38 340 124 547 32 460 b 428 200 46 139 268 94 z m 431 275 l 431 275 b 313 526 375 335 333 450 b 499 476 386 608 472 557 b 431 275 521 404 479 331 z m 222 603 l 222 603 b 385 232 251 469 269 376 b 194 171 332 190 260 160 b 56 342 111 183 63 260 b 222 603 53 450 133 532 z m 290 831 l 290 831 b 288 676 331 1028 542 881 b 290 831 281 742 281 792 z "},"´":{"ha":229,"x_min":0,"x_max":0,"o":"m 74 767 b 256 892 219 821 249 863 b 232 932 261 910 251 940 b 86 799 190 883 139 842 b 74 767 71 788 47 756 z "},"`":{"ha":221,"x_min":0,"x_max":0,"o":"m 240 800 b 115 965 185 938 143 961 b 74 938 97 969 65 956 b 208 807 124 901 165 854 b 240 800 219 794 251 774 z "},"˜":{"ha":429,"x_min":0,"x_max":0,"o":"m 149 665 l 149 665 b 157 671 154 664 157 665 b 207 736 160 701 174 728 b 429 728 276 746 356 685 b 458 793 447 742 458 763 b 444 796 461 803 447 804 b 254 779 433 731 301 776 b 181 763 229 783 203 776 b 142 672 157 744 147 717 b 149 665 140 667 144 664 z "},",":{"ha":169,"x_min":0,"x_max":0,"o":"m 158 213 b 53 271 161 269 104 319 b 101 164 8 229 39 164 b 78 75 107 133 103 99 b 86 63 72 69 78 63 b 158 213 129 63 157 176 z "},".":{"ha":210,"x_min":0,"x_max":0,"o":"m 49 250 b 39 167 22 229 19 190 b 108 168 56 144 86 144 b 113 247 131 189 132 225 b 49 250 99 265 69 269 z "},";":{"ha":174,"x_min":0,"x_max":0,"o":"m 78 576 b 65 467 44 549 40 497 b 157 468 90 438 131 438 b 164 572 185 496 186 543 b 78 576 142 596 107 601 z m 165 281 b 58 339 168 338 108 388 b 107 232 14 297 44 232 b 83 143 113 201 108 167 b 92 131 76 138 83 131 b 165 281 135 131 161 244 z "},":":{"ha":176,"x_min":0,"x_max":0,"o":"m 61 296 b 47 186 26 268 24 217 b 140 188 72 157 113 157 b 147 292 168 215 169 263 b 61 296 125 315 89 321 z m 82 600 b 68 490 49 572 46 521 b 160 492 93 461 133 461 b 167 596 189 519 192 567 b 82 600 147 619 111 625 z "},"(":{"ha":297,"x_min":0,"x_max":0,"o":"m 371 1092 l 371 1092 b 153 919 271 1092 197 1003 b 60 656 107 839 78 749 b 49 351 44 554 31 454 b 222 140 67 264 104 140 b 225 160 233 140 239 160 b 124 329 144 160 136 268 b 140 639 115 424 121 519 b 218 913 156 728 172 822 b 367 1072 244 967 286 1072 b 371 1092 379 1072 386 1090 z "},")":{"ha":350,"x_min":0,"x_max":0,"o":"m 38 140 b 257 313 138 140 211 229 b 349 576 300 393 332 483 b 360 881 364 678 378 778 b 186 1092 340 968 304 1092 b 182 1072 175 1092 168 1072 b 285 903 263 1072 271 964 b 269 593 293 808 288 713 b 192 319 253 504 238 410 b 40 160 165 265 121 160 b 38 140 28 160 24 142 z "},"\\":{"ha":454,"x_min":0,"x_max":0,"o":"m 206 978 b 161 939 186 1007 161 957 l 318 94 b 357 126 328 68 363 119 b 206 978 311 379 263 696 z "},"/":{"ha":285,"x_min":0,"x_max":0,"o":"m 68 97 b 314 949 156 379 240 696 b 278 981 319 956 290 1007 l 28 136 b 68 97 25 118 46 68 z "},"-":{"ha":393,"x_min":0,"x_max":0,"o":"m 39 344 b 375 344 153 343 257 344 l 376 394 l 42 392 z "},"_":{"ha":489,"x_min":0,"x_max":0,"o":"m 28 164 b 475 164 143 163 357 164 l 478 214 l 31 211 z "},"+":{"ha":378,"x_min":0,"x_max":0,"o":"m 194 597 b 179 261 189 483 183 379 l 228 263 l 242 597 z m 42 404 b 378 404 156 403 260 404 l 379 454 l 44 451 z "},"*":{"ha":332,"x_min":0,"x_max":0,"o":"m 171 586 b 149 249 161 472 158 368 l 201 251 l 218 585 z m 60 521 b 281 281 132 439 203 365 l 317 315 l 94 554 z m 67 290 b 338 504 158 361 242 429 l 307 542 l 38 328 z "},"|":{"ha":104,"x_min":0,"x_max":0,"o":"m 135 1083 b 79 1081 136 1110 82 1110 b 29 86 63 769 49 460 b 86 85 28 50 86 64 b 135 1083 103 397 111 710 z "},"{":{"ha":363,"x_min":0,"x_max":0,"o":"m 188 613 b 254 793 222 664 249 726 b 267 872 256 794 260 821 b 340 1004 274 924 299 967 b 461 1044 369 1031 410 1043 b 461 1060 476 1044 478 1060 b 258 1003 374 1063 306 1043 b 174 844 211 961 183 908 l 157 719 b 135 636 154 700 147 672 b 60 549 111 565 92 556 b 58 536 47 547 47 538 b 107 450 88 532 103 522 b 107 367 110 415 110 388 b 92 242 106 346 100 304 b 132 85 83 179 97 126 b 321 22 168 43 231 22 b 326 43 338 22 339 43 b 207 93 275 43 235 60 b 188 288 179 126 172 192 b 92 542 197 385 201 508 b 188 613 131 554 163 578 z "},"}":{"ha":356,"x_min":0,"x_max":0,"o":"m 228 474 b 164 293 189 422 171 360 b 153 214 163 292 160 265 b 82 82 146 163 122 119 b -35 42 53 56 14 43 b -35 26 -50 42 -51 26 b 165 83 53 24 119 43 b 244 240 211 125 238 178 b 260 365 251 304 257 346 b 282 449 264 386 271 414 b 353 538 304 521 321 531 b 354 550 365 539 365 549 b 301 635 325 554 307 564 b 300 719 299 671 299 699 l 315 844 b 271 1001 322 907 308 960 b 82 1064 235 1043 172 1064 b 78 1043 65 1064 65 1043 b 197 993 129 1043 169 1026 b 221 799 225 960 233 894 b 322 544 208 699 213 581 b 228 474 283 532 251 508 z "},"~":{"ha":493,"x_min":0,"x_max":0,"o":"m 494 435 b 472 432 483 439 476 439 b 428 371 460 397 444 378 b 386 363 411 365 397 363 b 285 401 375 364 342 376 b 175 446 229 428 193 442 b 106 442 158 450 135 449 b 40 374 76 435 54 413 b 63 369 58 364 63 368 b 124 399 76 393 97 403 b 249 350 139 397 181 381 b 408 322 318 319 371 310 b 490 425 446 335 472 369 l 494 435 z "},"⁄":{"ha":285,"x_min":0,"x_max":0,"o":"m 71 136 b 315 988 158 418 242 735 b 279 1019 321 994 292 1046 l 29 175 b 71 136 28 157 47 107 z "},"!":{"ha":140,"x_min":0,"x_max":0,"o":"m 171 974 b 97 978 146 1011 99 1003 b 42 165 88 942 15 218 b 76 169 53 146 75 153 b 172 972 92 443 156 694 z m 72 121 b 10 75 44 125 15 103 b 47 29 4 50 21 29 b 104 75 74 29 99 49 b 72 121 108 97 94 118 z "},"=":{"ha":500,"x_min":0,"x_max":0,"o":"m 53 529 b 508 529 165 528 390 529 l 508 579 l 54 576 z m 39 354 b 494 354 154 353 376 354 l 496 404 l 42 401 z "},"˝":{"ha":442,"x_min":0,"x_max":0,"o":"m 231 799 b 175 910 213 886 192 904 b 150 897 167 914 146 910 b 213 806 174 871 192 839 b 231 799 217 797 233 782 z m 318 800 b 260 911 301 888 278 907 b 235 900 251 917 232 911 b 299 807 260 874 281 840 b 318 800 303 800 321 783 z "},"<":{"ha":346,"x_min":0,"x_max":0,"o":"m 354 558 b 297 574 325 579 307 583 l 49 375 b 40 361 43 371 40 365 b 294 171 42 357 126 294 b 311 214 311 157 331 193 l 221 288 b 117 369 164 335 129 363 l 354 558 z "},">":{"ha":346,"x_min":0,"x_max":0,"o":"m 31 200 b 88 185 60 179 78 175 l 336 383 b 344 396 343 388 346 392 b 90 588 343 400 258 464 b 75 544 75 601 54 565 l 165 469 b 269 389 222 424 257 396 z "},"?":{"ha":456,"x_min":0,"x_max":0,"o":"m 400 939 b 190 953 338 985 250 981 b 114 882 161 940 136 917 b 68 736 93 847 78 799 b 86 647 58 674 65 643 b 122 681 108 651 121 663 b 133 764 125 699 129 726 b 188 872 139 801 157 838 b 290 926 218 907 253 925 b 372 885 328 928 356 914 b 399 793 389 856 397 825 b 393 685 400 761 399 725 b 314 488 378 607 349 533 b 222 269 239 390 222 325 b 218 175 222 235 218 190 b 246 175 217 160 244 160 b 276 333 250 239 260 292 b 381 494 293 375 328 429 b 468 700 433 560 463 629 b 460 857 475 772 472 825 b 400 939 447 890 428 918 z m 242 146 b 179 100 214 150 185 128 b 217 54 174 75 190 54 b 274 100 243 54 268 74 b 242 146 278 122 265 143 z "},"−":{"ha":522,"x_min":0,"x_max":0,"o":"m 42 413 b 522 413 157 411 404 413 l 525 463 l 44 460 z "},"'":{"ha":118,"x_min":0,"x_max":0,"o":"m 57 590 b 100 592 79 574 89 579 b 150 794 115 701 114 642 l 150 796 b 75 800 122 833 76 825 b 57 590 71 785 72 756 z "},"%":{"ha":463,"x_min":0,"x_max":0,"o":"m 357 428 b 356 414 347 428 349 414 b 385 365 367 414 376 397 b 386 257 394 333 394 297 b 364 181 379 217 371 190 b 326 217 347 158 333 165 b 324 293 324 243 322 269 b 361 383 328 343 340 374 b 363 397 368 383 369 397 b 264 278 311 396 271 372 b 354 144 257 185 304 135 b 449 286 406 154 436 204 b 357 428 464 369 435 432 z m 163 1019 b 163 1006 153 1019 156 1006 b 192 957 174 1006 183 989 b 192 849 200 925 200 889 b 169 772 185 808 176 782 b 133 808 154 750 140 757 b 131 885 131 835 129 861 b 168 975 132 935 146 965 b 168 989 175 975 175 989 b 69 869 117 988 79 964 b 161 736 63 776 111 726 b 256 878 213 746 243 796 b 163 1019 271 961 240 1024 z m 150 136 b 394 988 238 418 321 735 b 358 1019 400 994 371 1046 l 108 175 b 150 136 107 157 126 107 z "},"˘":{"ha":244,"x_min":0,"x_max":0,"o":"m 85 939 b 83 831 61 904 50 854 b 179 836 108 808 154 811 b 178 932 203 863 192 906 b 165 926 175 939 163 933 b 157 867 182 897 171 876 b 92 869 138 854 107 854 b 93 931 71 885 89 908 b 85 939 97 940 90 942 z "},"˙":{"ha":194,"x_min":0,"x_max":0,"o":"m 144 874 b 86 839 119 874 92 858 b 122 801 81 818 96 801 b 181 839 149 801 174 818 b 144 874 186 858 171 874 z "},"˚":{"ha":222,"x_min":0,"x_max":0,"o":"m 156 897 b 94 836 124 897 94 869 b 149 776 92 803 117 776 b 214 836 181 776 211 803 b 156 897 214 869 188 897 z m 154 879 b 196 836 181 879 197 861 b 149 793 193 813 175 793 b 111 836 126 793 108 813 b 154 879 113 861 132 879 z "},"˛":{"ha":256,"x_min":0,"x_max":0,"o":"m 43 -29 b 28 -42 38 -26 33 -36 b 32 -129 11 -67 10 -108 b 119 -122 56 -150 96 -137 b 115 -111 126 -119 122 -107 b 60 -106 88 -129 68 -121 b 65 -47 51 -89 53 -62 b 43 -29 68 -43 78 -40 z "},"ˇ":{"ha":260,"x_min":0,"x_max":0,"o":"m 90 917 b 75 906 89 919 74 908 b 246 860 96 833 190 807 b 276 896 260 871 269 885 b 258 913 276 907 267 913 b 90 917 201 822 144 856 z "},"\"":{"ha":249,"x_min":0,"x_max":0,"o":"m 53 603 b 94 604 75 586 85 592 b 144 807 110 714 110 654 l 144 808 b 69 813 118 846 71 838 b 53 603 65 797 68 768 z m 179 603 b 221 604 201 586 211 592 b 271 807 236 714 236 654 l 271 808 b 196 813 244 846 197 838 b 179 603 192 797 194 768 z "},"#":{"ha":750,"x_min":0,"x_max":0,"o":"m 426 756 b 371 754 436 793 382 792 l 239 142 b 293 142 231 104 285 104 z m 586 756 b 532 754 596 793 543 792 l 400 142 b 453 142 392 104 444 104 z m 71 347 b 61 293 35 349 24 294 l 674 293 b 685 347 711 293 722 347 z m 121 568 b 111 515 82 569 72 517 l 724 515 b 735 568 761 515 772 568 z "},"$":{"ha":519,"x_min":0,"x_max":0,"o":"m 133 179 l 133 179 b 450 306 249 132 411 168 b 343 675 486 435 426 540 b 508 972 161 972 449 1050 b 410 785 557 906 508 779 b 408 764 396 785 393 765 b 546 915 493 760 550 836 b 188 782 539 1128 135 1063 b 358 318 218 625 406 472 b 143 199 329 228 229 163 b 78 421 61 232 42 343 b 58 429 82 433 65 442 b 133 179 17 340 43 218 z m 374 1114 b 319 1111 375 1140 321 1140 b 271 117 303 800 289 490 b 326 115 268 81 326 94 b 374 1114 343 428 351 740 z "},"[":{"ha":350,"x_min":0,"x_max":0,"o":"m 82 1054 b 22 3 50 661 47 333 b 308 4 110 3 310 6 b 319 71 329 4 338 67 b 113 69 300 76 201 72 b 158 989 129 371 133 672 b 363 990 253 989 363 992 b 372 1057 383 990 392 1053 b 82 1054 350 1063 218 1057 z "},"]":{"ha":350,"x_min":0,"x_max":0,"o":"m 325 11 b 383 1063 356 404 358 732 b 97 1061 296 1063 97 1060 b 86 994 76 1061 68 999 b 294 996 106 989 204 993 b 247 76 276 694 272 393 b 44 75 153 76 44 74 b 33 8 24 75 15 13 b 325 11 56 3 188 8 z "},"^":{"ha":708,"x_min":0,"x_max":0,"o":"m 664 468 b 693 561 699 517 708 549 l 393 936 b 374 947 386 946 381 949 b 51 524 367 946 260 806 b 61 490 47 513 43 497 b 118 504 79 485 103 489 l 243 656 b 379 828 322 751 368 810 l 664 468 z "},"‚":{"ha":171,"x_min":0,"x_max":0,"o":"m 154 106 b 47 164 158 163 99 213 b 97 57 4 122 35 57 b 72 -32 103 26 99 -8 b 81 -44 67 -37 72 -44 b 154 106 124 -44 151 69 z "},"„":{"ha":324,"x_min":0,"x_max":0,"o":"m 160 200 b 53 258 163 257 106 307 b 103 151 8 217 40 151 b 79 63 108 121 103 86 b 86 50 72 57 78 50 b 160 200 129 50 156 164 z m 313 200 b 206 258 315 257 258 307 b 256 151 161 217 193 151 b 232 63 261 121 256 86 b 239 50 225 57 231 50 b 313 200 282 50 308 164 z "},"…":{"ha":417,"x_min":0,"x_max":0,"o":"m 46 274 b 32 164 13 246 10 194 b 124 165 57 135 97 135 b 131 269 153 193 156 240 b 46 274 111 293 75 299 z m 185 274 b 171 164 151 246 149 194 b 263 165 196 135 236 135 b 269 269 292 193 294 240 b 185 274 250 293 214 299 z m 324 274 b 310 164 290 246 288 194 b 401 165 335 135 375 135 b 408 269 431 193 433 240 b 324 274 389 293 353 299 z "},"†":{"ha":378,"x_min":0,"x_max":0,"o":"m 271 1083 b 215 1081 272 1110 218 1110 b 165 86 199 769 185 460 b 222 85 164 50 222 64 b 271 1083 239 397 247 710 z m 61 751 b 397 751 175 750 279 751 l 399 801 l 64 799 z "},"‡":{"ha":278,"x_min":0,"x_max":0,"o":"m 221 1083 b 165 1081 222 1110 168 1110 b 115 86 149 769 135 460 b 172 85 114 50 172 64 b 221 1083 189 397 197 710 z m -51 650 b 403 650 61 649 285 650 l 404 700 l -49 697 z m -67 418 b 388 418 46 417 269 418 l 389 468 l -65 465 z "},"ˆ":{"ha":308,"x_min":0,"x_max":0,"o":"m 310 774 b 331 789 313 771 329 785 b 189 889 332 838 244 889 b 64 800 136 889 90 836 b 90 778 64 785 79 778 b 196 854 124 836 176 863 b 310 774 225 843 257 833 z "},"‰":{"ha":581,"x_min":0,"x_max":0,"o":"m 164 1017 b 163 1003 154 1017 156 1003 b 192 954 174 1003 183 986 b 192 846 200 922 200 886 b 171 769 185 806 178 779 b 133 806 154 747 139 754 b 131 882 131 832 129 858 b 168 972 135 932 147 963 b 169 986 175 972 176 986 b 68 867 115 985 78 961 b 161 733 61 774 111 724 b 256 875 211 743 243 793 b 164 1017 268 958 238 1021 z m 307 428 b 306 414 297 428 299 414 b 335 365 317 414 326 397 b 336 257 344 333 344 297 b 314 181 329 217 321 190 b 276 217 297 158 283 165 b 274 293 274 243 272 269 b 311 383 278 343 290 374 b 313 397 318 383 319 397 b 214 278 261 396 221 372 b 304 144 207 185 254 135 b 399 286 356 154 386 204 b 307 428 414 369 385 432 z m 475 428 b 474 414 465 428 467 414 b 503 365 485 414 494 397 b 504 257 513 333 513 297 b 482 181 497 217 489 190 b 444 217 465 158 451 165 b 442 293 442 243 440 269 b 479 383 446 343 458 374 b 481 397 486 383 488 397 b 382 278 429 396 389 372 b 472 144 375 185 422 135 b 567 286 524 154 554 204 b 475 428 582 369 553 432 z m 114 136 b 358 988 201 418 285 735 b 322 1019 364 994 335 1046 l 72 175 b 114 136 71 157 90 107 z "},"Š":{"ha":519,"x_min":0,"x_max":0,"o":"m 133 179 b 58 429 43 218 17 340 b 78 421 65 442 82 433 b 143 199 42 343 61 232 b 358 318 229 163 329 228 b 188 782 406 472 218 625 b 546 915 135 1063 539 1128 b 408 764 550 836 493 760 b 410 785 393 765 396 785 b 508 972 508 779 557 906 b 343 675 449 1050 161 972 b 450 306 426 540 486 435 b 133 179 411 168 249 132 z m 246 1194 b 231 1183 244 1197 229 1186 b 401 1138 251 1111 346 1085 b 432 1174 415 1149 425 1163 b 414 1190 432 1185 422 1190 b 246 1194 357 1100 300 1133 z "},"‹":{"ha":547,"x_min":0,"x_max":0,"o":"m 561 639 b 471 669 515 675 486 685 l 53 347 b 39 328 43 340 39 335 b 418 -39 40 321 167 199 b 453 -29 429 -43 443 -47 b 447 28 463 -11 458 11 b 313 172 443 32 397 79 b 142 331 228 265 171 318 l 561 639 z "},"‘":{"ha":168,"x_min":0,"x_max":0,"o":"m 60 714 b 156 639 49 658 99 599 b 124 754 204 674 186 743 b 161 839 124 785 135 819 b 156 853 169 842 163 850 b 60 714 114 858 69 749 z "},"’":{"ha":171,"x_min":0,"x_max":0,"o":"m 189 718 b 82 776 192 775 133 825 b 132 669 38 735 69 669 b 108 581 138 639 132 604 b 115 568 101 575 107 568 b 189 718 158 568 185 682 z "},"“":{"ha":325,"x_min":0,"x_max":0,"o":"m 61 728 b 156 653 49 672 100 613 b 125 768 206 688 188 757 b 163 853 125 799 135 833 b 157 867 171 856 164 864 b 61 728 115 872 71 763 z m 218 728 b 313 653 206 672 257 613 b 282 768 363 688 344 757 b 319 853 282 799 292 833 b 314 867 328 856 321 864 b 218 728 272 872 228 763 z "},"”":{"ha":325,"x_min":0,"x_max":0,"o":"m 343 751 b 247 825 354 807 304 867 b 281 711 199 790 218 721 b 243 625 279 681 271 646 b 249 611 236 622 242 614 b 343 751 292 607 335 717 z m 186 750 b 89 824 197 806 146 865 b 122 708 42 789 60 719 b 86 624 122 678 114 643 b 92 610 78 621 85 613 b 186 750 133 606 176 715 z "},"•":{"ha":303,"x_min":0,"x_max":0,"o":"m 101 549 b 74 326 33 492 29 389 b 258 331 124 269 204 269 b 274 539 314 386 319 481 b 101 549 232 586 160 597 z "},"–":{"ha":489,"x_min":0,"x_max":0,"o":"m 39 349 b 486 349 151 347 368 349 l 486 399 l 42 396 z "},"—":{"ha":594,"x_min":0,"x_max":0,"o":"m 39 354 b 592 354 154 353 474 354 l 593 404 l 42 401 z "},"›":{"ha":533,"x_min":0,"x_max":0,"o":"m 21 0 b 111 -26 65 -33 96 -42 l 515 313 b 528 333 525 319 529 326 b 132 682 528 340 396 456 b 99 671 122 686 108 689 b 107 614 92 653 94 631 b 246 475 111 611 157 565 b 425 326 336 386 396 336 l 21 0 z "},"œ":{"ha":788,"x_min":0,"x_max":0,"o":"m 829 414 b 810 417 840 428 818 432 b 531 185 753 331 626 142 b 496 379 465 215 479 319 b 747 535 569 414 701 467 b 639 636 797 613 715 651 b 417 404 540 614 451 503 b 406 358 413 390 407 375 b 369 365 393 357 381 360 b 406 568 393 426 411 504 b 250 626 392 653 310 693 b 22 417 138 635 54 529 b 32 225 1 347 3 275 b 294 240 79 138 199 135 b 361 346 322 271 343 308 b 403 338 375 339 389 338 b 469 163 394 271 410 196 b 829 414 624 90 729 267 z m 235 593 b 342 356 221 517 283 396 b 253 228 322 310 293 260 b 126 206 219 200 164 179 b 235 593 36 272 122 543 z m 253 596 b 376 593 268 647 344 663 b 351 372 393 551 394 479 b 253 596 306 406 235 533 z m 633 590 b 731 550 681 621 761 611 b 504 404 699 488 568 433 b 633 590 528 469 574 553 z "},"¨":{"ha":344,"x_min":0,"x_max":0,"o":"m 115 913 b 101 803 81 885 78 833 b 193 804 126 774 167 774 b 200 908 221 832 224 879 b 115 913 179 932 143 938 z m 288 913 b 274 803 253 885 250 833 b 365 804 299 774 339 774 b 372 908 393 832 396 879 b 288 913 351 932 315 938 z "},"Ÿ":{"ha":619,"x_min":0,"x_max":0,"o":"m 294 569 b 232 547 269 528 243 517 b 325 1024 188 665 263 917 b 225 1022 339 1051 242 1056 b 124 610 165 911 115 735 b 181 488 128 553 149 507 b 433 822 304 408 424 824 b 399 478 460 775 418 550 b 108 328 354 465 201 399 b 297 182 -86 176 150 97 b 489 475 403 243 453 363 b 561 360 601 488 632 451 b 578 347 554 349 569 336 b 496 496 656 449 625 510 b 532 838 514 564 560 774 b 432 853 515 875 461 889 b 401 794 418 838 410 815 b 294 569 376 732 338 636 z m 392 454 b 167 182 356 336 297 211 b 83 282 82 164 18 208 b 392 454 156 360 347 442 z m 326 1240 b 313 1131 292 1213 289 1161 b 404 1132 338 1101 378 1101 b 411 1236 432 1160 435 1207 b 326 1240 390 1260 354 1265 z m 499 1240 b 485 1131 464 1213 461 1161 b 576 1132 510 1101 550 1101 b 583 1236 604 1160 607 1207 b 499 1240 563 1260 526 1265 z "},"¡":{"ha":139,"x_min":0,"x_max":0,"o":"m 29 -35 b 104 -36 57 -71 103 -61 b 133 775 113 0 164 724 b 100 771 124 794 100 788 b 29 -33 92 497 36 244 z m 103 819 b 164 867 132 815 158 839 b 124 911 169 892 151 913 b 68 864 97 911 74 890 b 103 819 67 842 79 821 z "},"¢":{"ha":393,"x_min":0,"x_max":0,"o":"m 240 603 l 240 603 b 354 597 272 621 333 638 b 357 553 360 583 361 568 b 378 550 356 540 374 538 b 374 607 381 569 381 590 b 204 640 346 661 257 660 b 22 417 118 606 50 507 b 178 164 -15 294 18 133 b 442 421 292 188 381 328 b 425 431 449 432 432 442 b 415 417 421 426 418 421 b 238 214 368 346 307 257 b 96 269 167 171 113 199 b 111 422 88 317 96 374 b 240 603 132 490 176 567 z m 258 729 b 204 726 260 756 206 756 b 174 69 188 415 193 443 b 229 68 171 33 229 47 b 258 729 246 381 236 356 z "},"£":{"ha":656,"x_min":0,"x_max":0,"o":"m 239 622 b 393 621 290 621 342 621 b 231 263 364 486 319 357 b 56 283 183 278 101 315 b 54 193 24 261 29 217 b 307 217 114 132 244 163 b 633 185 410 189 528 167 b 632 206 649 188 647 208 b 326 235 533 189 421 210 b 497 622 407 296 461 454 l 575 622 l 576 672 l 508 671 b 551 1006 529 793 543 915 b 328 843 556 1040 356 1081 b 350 842 328 829 349 828 b 457 1008 357 904 388 992 b 404 671 438 904 425 786 l 242 669 z m 160 206 b 71 208 132 189 94 183 b 68 267 53 222 46 251 b 214 246 103 290 175 258 b 160 206 196 231 179 218 z "},"¶":{"ha":622,"x_min":0,"x_max":0,"o":"m 278 -100 l 333 -100 l 386 847 l 536 847 l 483 -100 l 540 -100 l 593 847 l 647 847 l 650 894 l 356 894 b 56 661 90 894 60 733 b 307 432 49 514 163 421 z "},"µ":{"ha":456,"x_min":0,"x_max":0,"o":"m 399 394 b 231 158 388 206 290 158 b 96 375 174 158 89 204 l 117 743 l 61 743 l 13 -153 l 67 -153 l 88 228 l 90 228 b 235 111 114 167 163 111 b 389 235 308 111 356 176 l 390 235 l 383 125 l 440 125 l 475 743 l 418 743 z "},"·":{"ha":213,"x_min":0,"x_max":0,"o":"m 131 510 b 43 439 86 510 46 472 b 124 368 42 404 79 368 b 214 439 172 368 213 404 b 131 510 217 472 179 510 z "},"¤":{"ha":639,"x_min":0,"x_max":0,"o":"m 543 701 b 206 679 474 890 318 833 l 138 750 b 93 703 107 782 64 736 l 171 621 b 125 358 128 538 108 442 l 47 289 b 86 243 14 256 53 211 l 144 293 b 193 221 156 267 169 243 b 506 264 269 147 443 172 b 528 296 514 275 521 285 l 575 247 b 621 293 606 218 650 263 l 556 361 b 560 636 581 444 583 546 l 628 697 b 588 743 661 728 619 772 z m 236 378 b 290 636 229 474 238 550 b 515 596 349 731 478 790 b 511 411 526 539 529 481 b 236 378 458 219 251 215 z "},"™":{"ha":563,"x_min":0,"x_max":0,"o":"m 172 732 l 172 732 b 213 924 182 794 196 863 b 331 903 240 929 340 957 b 338 903 331 899 338 897 b 79 929 357 1008 88 867 b 74 932 78 931 76 932 b 71 928 72 931 71 931 b 175 915 76 890 150 910 b 146 776 164 869 154 822 b 118 811 138 789 128 801 b 114 807 117 815 110 808 b 143 767 125 794 135 781 b 140 633 138 733 126 660 b 186 642 151 611 178 617 b 172 732 196 669 183 707 z m 171 717 l 171 717 b 182 671 176 700 182 685 b 169 646 181 663 179 619 b 171 717 163 665 167 694 z m 394 921 l 394 921 b 344 665 376 857 332 729 b 385 635 349 632 379 625 b 447 832 386 640 406 781 b 461 806 463 851 463 817 b 442 646 463 768 431 679 b 450 646 443 644 447 644 b 539 883 474 671 490 836 b 556 864 558 900 557 881 b 500 649 551 801 514 714 b 497 614 497 638 497 625 b 553 583 497 581 526 575 b 557 589 558 585 560 588 b 528 614 543 589 526 599 b 586 869 531 683 583 793 b 535 888 589 908 563 915 b 499 822 519 874 508 849 b 435 832 499 876 463 871 b 379 653 406 789 382 686 b 424 915 360 715 408 851 b 394 921 428 931 397 931 z "},"¦":{"ha":101,"x_min":0,"x_max":0,"o":"m 36 276 b 11 -197 28 122 18 -33 l 64 -199 b 90 276 71 -49 81 107 z m 76 979 b 53 506 68 825 61 669 l 107 504 b 131 979 114 654 122 810 z "},"®":{"ha":626,"x_min":0,"x_max":0,"o":"m 356 863 b 50 563 200 863 60 728 b 321 268 40 399 165 268 b 635 563 483 268 625 399 b 356 863 644 728 518 863 z m 351 803 b 583 554 494 803 592 697 b 325 324 576 426 468 324 b 104 554 199 324 97 426 b 351 803 113 697 225 803 z m 343 726 b 296 532 333 692 311 610 b 400 642 358 528 397 586 b 310 749 404 699 378 763 b 239 701 283 743 256 725 b 225 642 226 683 217 663 b 217 639 228 636 218 633 b 232 706 208 663 217 686 b 351 763 258 743 307 764 b 442 642 418 763 447 704 b 329 519 438 582 394 522 b 472 497 400 486 368 315 b 482 494 478 501 485 499 b 374 392 469 469 413 369 b 293 506 344 410 331 486 b 289 465 292 494 290 479 b 325 388 306 446 324 415 b 283 356 332 353 306 346 b 251 494 238 376 246 451 b 189 514 233 507 213 514 b 189 525 185 514 185 525 b 253 503 213 525 233 517 b 257 531 253 511 256 522 b 228 582 235 539 214 556 b 235 575 232 586 238 582 b 257 539 226 557 244 544 b 304 733 269 604 286 671 b 343 726 307 743 347 747 z m 289 453 b 301 374 288 415 289 385 b 319 385 311 357 319 367 b 289 453 314 410 301 435 z "},"©":{"ha":626,"x_min":0,"x_max":0,"o":"m 356 863 b 50 563 200 863 60 728 b 321 268 40 399 165 268 b 635 563 483 268 625 399 b 356 863 644 728 518 863 z m 351 803 b 583 554 494 803 592 697 b 325 324 576 426 468 324 b 104 554 199 324 97 426 b 351 803 113 697 225 803 z m 358 714 b 263 579 310 686 279 631 b 253 467 250 543 244 501 b 354 425 263 414 304 393 b 489 575 410 457 454 522 b 496 586 490 578 493 582 b 508 578 501 594 514 586 b 313 388 463 510 396 406 b 196 575 194 365 168 485 b 332 742 218 643 267 715 b 457 717 369 756 439 757 b 461 675 464 704 463 689 b 446 676 458 665 443 667 b 443 710 447 688 447 699 b 358 714 428 739 383 726 z "},"°":{"ha":314,"x_min":0,"x_max":0,"o":"m 203 868 b 60 728 129 868 64 806 b 186 590 56 651 113 590 b 332 728 261 590 328 651 b 203 868 336 806 278 868 z m 200 828 b 294 725 258 828 297 785 b 189 631 292 672 247 631 b 97 725 136 631 94 672 b 200 828 100 785 147 828 z "},"±":{"ha":381,"x_min":0,"x_max":0,"o":"m 197 597 b 182 261 192 483 186 379 l 231 263 l 244 597 z m 44 404 b 381 404 158 403 263 404 l 382 454 l 47 451 z m 29 174 b 365 174 143 172 247 174 l 367 224 l 32 221 z "},"¸":{"ha":238,"x_min":0,"x_max":0,"o":"m 118 168 b 150 135 133 161 144 147 b 132 11 164 106 153 35 b 36 11 104 -22 71 6 b 19 -6 19 14 18 7 b 190 -3 72 -37 146 -54 b 193 146 226 39 229 108 b 136 182 178 161 156 174 z "},"ª":{"ha":335,"x_min":0,"x_max":0,"o":"m 254 883 l 254 883 b 74 774 179 885 107 846 b 60 722 64 756 60 739 b 143 658 56 668 88 628 b 222 779 183 681 207 738 b 225 643 214 751 181 653 b 256 653 235 642 246 646 b 353 772 289 675 331 739 b 343 774 357 781 346 781 b 288 697 328 750 308 722 b 242 685 272 681 235 640 b 290 861 249 742 267 792 b 292 875 292 867 292 871 b 254 883 288 890 265 892 z m 246 869 l 246 869 b 219 801 238 853 229 825 b 143 672 200 749 176 689 b 103 736 100 653 96 710 b 246 869 115 804 182 858 z "},"«":{"ha":772,"x_min":0,"x_max":0,"o":"m 561 639 b 471 669 515 675 486 685 l 53 347 b 39 328 43 340 39 335 b 418 -39 40 321 167 199 b 453 -29 429 -43 443 -47 b 447 28 463 -11 458 11 b 313 172 443 32 397 79 b 142 331 228 265 171 318 z m 786 639 b 696 669 740 675 711 685 l 278 347 b 264 328 268 340 264 335 b 643 -39 265 321 392 199 b 678 -29 654 -43 668 -47 b 672 28 688 -11 683 11 b 538 172 668 32 622 79 b 367 331 453 265 396 318 z "},"»":{"ha":763,"x_min":0,"x_max":0,"o":"m 244 7 b 335 -21 290 -28 319 -36 l 743 313 b 757 333 753 319 758 326 b 365 688 757 340 626 458 b 332 676 356 692 342 697 b 339 621 325 658 326 636 b 478 479 343 617 390 569 b 654 328 567 389 625 339 z m 21 0 b 110 -28 65 -35 94 -43 l 518 307 b 532 326 528 314 533 319 b 140 681 531 333 400 451 b 107 671 129 685 117 689 b 115 614 100 653 103 631 l 253 472 b 428 321 342 382 400 332 z "},"¬":{"ha":586,"x_min":0,"x_max":0,"o":"m 53 593 b 546 593 156 592 408 593 l 536 408 l 588 410 l 597 643 l 56 640 z "},"²":{"ha":286,"x_min":0,"x_max":0,"o":"m 117 731 l 117 731 b 290 1144 190 814 321 1024 b 169 1176 278 1201 207 1214 b 147 1100 151 1158 144 1129 b 158 1100 146 1093 157 1093 b 163 1144 156 1118 158 1132 b 242 1143 182 1194 229 1193 b 61 732 269 1025 133 813 b 63 725 60 731 60 726 b 69 725 65 722 68 722 b 110 719 74 728 90 725 b 307 794 171 708 265 689 b 296 800 308 801 299 806 b 117 731 260 703 174 718 z "},"³":{"ha":243,"x_min":0,"x_max":0,"o":"m 274 1139 l 274 1139 b 188 1183 269 1186 225 1197 b 94 1097 147 1171 106 1136 b 104 1092 92 1089 101 1085 b 138 1139 111 1108 124 1125 b 153 1153 143 1146 147 1149 b 208 1099 213 1197 229 1147 b 111 986 197 1061 153 997 b 104 983 107 985 106 985 b 104 974 99 981 97 974 b 135 692 265 950 197 760 b 74 706 104 657 76 661 b 61 706 71 713 58 714 b 118 650 63 665 75 649 b 176 981 244 650 350 936 b 274 1139 221 1006 281 1086 z "},"¹":{"ha":214,"x_min":0,"x_max":0,"o":"m 204 1188 l 204 1188 b 197 1128 207 1192 200 1136 b 131 717 181 1015 149 807 b 133 711 128 715 129 713 b 140 707 135 710 136 708 b 163 704 147 707 157 706 b 175 707 168 704 174 706 b 179 707 178 706 178 707 b 179 707 179 707 179 707 l 179 707 b 181 710 181 708 181 708 b 222 956 193 757 208 857 b 257 1203 243 1079 261 1200 b 256 1206 257 1204 256 1204 b 236 1213 253 1210 244 1213 b 213 1210 231 1214 219 1213 b 213 1208 213 1210 214 1208 b 211 1207 213 1208 213 1208 b 204 1203 208 1207 207 1204 b 204 1201 204 1203 204 1203 b 122 1151 188 1189 151 1169 b 86 1129 108 1143 96 1136 b 85 1121 83 1128 82 1124 b 90 1119 85 1119 88 1118 b 128 1142 100 1125 113 1133 b 204 1188 153 1157 186 1175 z "},"º":{"ha":396,"x_min":0,"x_max":0,"o":"m 215 585 l 215 585 b 335 617 215 638 285 674 b 375 401 364 582 388 515 b 215 585 321 421 215 521 z m 357 261 b 371 601 401 349 413 501 b 204 613 333 678 243 693 b 40 350 92 589 39 465 b 106 172 42 279 63 211 b 357 261 176 103 293 135 z m 197 576 l 197 576 b 369 383 207 501 301 404 b 319 238 364 335 349 279 b 203 181 296 201 247 167 b 197 576 96 218 103 497 z "},"¼":{"ha":590,"x_min":0,"x_max":0,"o":"m 163 968 l 163 968 b 156 922 165 971 158 928 b 108 613 144 839 121 681 b 110 607 107 611 107 608 b 114 604 110 606 113 606 b 132 601 119 603 126 603 b 140 603 136 601 138 603 b 144 604 142 603 143 603 b 144 604 144 604 144 604 l 144 604 b 144 606 144 606 144 606 b 176 792 153 643 167 718 b 203 979 192 885 204 978 b 203 982 203 981 203 981 b 188 988 200 985 194 988 b 169 985 182 988 176 986 b 168 983 169 985 168 983 b 168 983 168 983 168 983 b 164 979 165 982 165 981 b 163 978 163 979 163 979 b 101 940 149 968 122 953 b 74 924 90 933 81 928 b 72 918 69 922 71 919 b 76 915 72 915 75 915 b 107 933 85 921 94 926 b 163 968 126 944 149 958 z m 214 97 b 460 949 301 379 386 696 b 424 981 465 956 436 1007 l 174 136 b 214 97 171 118 192 68 z m 374 272 l 374 272 b 376 265 369 272 372 265 b 432 261 393 265 410 264 b 504 257 456 260 481 257 b 489 110 500 208 492 158 b 525 108 490 99 525 100 b 543 261 529 158 535 210 b 581 272 556 263 569 267 b 575 279 585 275 579 282 b 542 268 567 275 556 271 b 560 457 553 344 561 417 b 560 457 560 457 560 457 b 558 458 560 457 558 458 b 522 453 556 468 524 464 b 374 272 521 418 406 288 z m 507 265 l 507 265 b 431 269 482 265 454 268 b 389 272 417 271 401 272 b 522 429 431 303 497 382 b 507 265 519 388 513 328 z "},"½":{"ha":581,"x_min":0,"x_max":0,"o":"m 163 936 l 163 936 b 157 890 164 938 157 896 b 106 575 144 804 119 643 b 106 569 106 572 106 571 b 114 567 108 568 111 568 b 131 564 118 567 124 564 b 140 567 133 564 138 564 b 144 567 140 564 143 567 b 144 567 144 567 144 567 l 144 567 b 144 568 144 568 144 568 b 178 757 153 606 165 681 b 204 947 192 851 206 944 b 201 949 204 947 201 949 b 188 956 200 953 194 956 b 169 953 182 956 176 954 b 168 950 169 953 169 950 b 168 950 168 950 168 950 b 164 947 165 950 165 949 b 163 946 163 947 163 947 b 99 908 149 936 122 921 b 69 890 88 901 79 894 b 69 885 68 890 68 886 b 76 883 71 883 75 882 b 104 900 81 886 94 893 b 163 936 124 911 149 926 z m 236 97 b 482 949 324 379 408 696 b 446 981 488 956 458 1007 l 196 136 b 236 97 193 118 214 68 z m 422 125 l 422 125 b 554 439 481 188 576 347 b 464 461 546 481 490 490 b 446 404 450 447 446 426 b 454 404 446 399 453 399 b 458 439 453 417 454 429 b 518 438 472 476 508 474 b 382 126 539 347 438 188 b 383 121 382 125 382 122 b 388 121 385 119 388 119 b 418 118 393 124 403 121 b 567 174 464 108 535 93 b 560 176 568 179 563 182 b 422 125 533 104 465 115 z "},"¾":{"ha":533,"x_min":0,"x_max":0,"o":"m 211 950 l 211 950 b 149 982 207 983 176 992 b 81 918 119 972 89 947 b 88 915 79 913 86 910 b 113 950 93 928 101 940 b 124 960 115 954 119 957 b 165 919 168 992 178 956 b 92 839 156 894 122 847 b 88 838 90 839 89 839 b 89 829 85 835 83 829 b 110 625 206 814 156 675 b 64 636 88 601 68 603 b 54 636 63 642 54 642 b 97 594 58 607 67 594 b 140 835 189 596 265 803 b 211 950 172 853 215 911 z m 200 97 b 446 949 288 379 372 696 b 410 981 451 956 422 1007 l 160 136 b 200 97 157 118 178 68 z m 329 271 l 329 271 b 329 264 324 269 325 264 b 385 260 346 264 364 263 b 453 257 406 258 429 257 b 438 117 447 210 440 164 b 474 115 439 107 472 108 b 489 260 476 164 482 211 b 524 271 503 261 514 265 b 519 278 528 274 525 281 b 489 267 511 272 500 269 b 503 444 499 339 506 407 b 503 444 503 444 503 444 b 504 446 504 446 504 446 b 471 442 500 456 469 451 b 329 271 468 408 358 285 z m 453 264 l 453 264 b 382 268 429 264 407 265 b 343 271 368 269 356 271 b 469 418 382 300 446 374 b 453 264 467 379 461 322 z "},"¿":{"ha":451,"x_min":0,"x_max":0,"o":"m 113 68 b 321 58 172 24 261 31 b 396 131 350 72 375 96 b 438 278 417 165 431 215 b 418 365 446 340 439 369 b 382 331 397 361 385 349 l 374 249 b 322 139 369 211 353 175 b 221 82 293 104 258 85 b 138 122 183 81 156 93 b 108 214 121 151 111 182 b 114 322 107 246 108 282 b 189 521 125 400 151 475 b 274 739 258 621 276 685 b 278 835 272 776 274 819 b 250 835 276 850 249 850 b 221 675 246 771 236 718 b 121 513 206 633 172 579 b 36 304 69 446 40 376 b 49 147 32 233 36 181 b 113 68 61 115 83 89 z m 251 864 b 313 911 279 860 308 883 b 275 956 318 936 301 957 b 218 908 249 956 224 935 b 251 864 215 886 228 865 z "},"š":{"ha":304,"x_min":0,"x_max":0,"o":"m 219 519 b 200 525 214 507 194 513 b 117 599 225 601 183 660 b 108 417 69 540 82 478 b 168 281 128 369 154 324 b 326 417 232 322 285 367 b 344 408 340 436 353 418 b 175 260 306 354 231 293 b 36 -32 204 146 168 -11 b -54 19 -1 -39 -47 -25 b 99 225 -65 94 49 182 b 22 417 85 283 46 351 b 1 532 8 457 -1 496 b 126 656 11 604 69 649 b 219 519 215 667 244 594 z m 103 203 b -26 8 63 168 -64 67 b 10 1 -18 -6 -3 -6 b 103 203 82 38 117 131 z m 114 843 b 99 832 113 846 97 835 b 269 786 119 760 214 733 b 300 822 283 797 293 811 b 282 839 300 833 290 839 b 114 843 225 749 168 782 z "},"a":{"ha":514,"x_min":0,"x_max":0,"o":"m 379 586 b 274 383 343 518 311 447 b 118 207 207 265 154 207 b 96 415 24 207 72 371 b 303 618 136 493 207 603 b 379 586 328 622 368 607 z m 383 597 b 297 632 364 619 321 631 b 26 431 179 636 68 532 b 115 196 -22 317 -1 194 b 282 379 183 197 251 324 b 321 192 267 335 229 188 b 426 263 363 193 403 238 b 551 417 474 313 524 381 b 550 426 551 419 553 424 b 539 425 546 428 543 428 b 418 271 511 386 463 321 b 331 207 372 222 344 204 b 351 386 297 214 325 318 b 472 640 394 489 454 604 b 400 632 432 636 465 640 b 383 597 394 621 389 610 z "},"b":{"ha":425,"x_min":0,"x_max":0,"o":"m -10 318 b 74 181 -25 239 -17 183 b 165 197 106 179 136 186 b 463 417 294 224 378 296 b 460 425 463 419 464 424 b 453 424 458 428 454 426 b 211 222 374 317 310 254 b 329 351 261 253 301 300 b 256 617 396 475 390 619 b 108 471 200 615 144 531 b 433 1114 185 638 357 947 b 363 1106 396 1110 426 1114 b -10 318 289 963 15 463 z m 46 310 b 251 606 68 383 178 606 b 261 371 333 606 319 482 b 68 194 214 285 143 206 b 46 310 19 186 29 253 z "},"c":{"ha":358,"x_min":0,"x_max":0,"o":"m 19 415 b 169 201 -25 288 17 149 b 324 322 228 221 282 271 b 396 417 353 358 379 394 b 393 426 396 419 396 424 b 383 425 390 428 386 428 b 313 331 367 400 342 365 b 167 213 278 286 221 233 b 94 415 22 156 61 336 b 143 510 108 447 125 481 b 272 618 182 567 228 611 b 344 590 296 622 332 608 b 354 597 346 589 354 594 b 92 542 279 678 146 606 b 19 415 58 504 33 460 z "},"d":{"ha":496,"x_min":0,"x_max":0,"o":"m 365 586 b 276 383 336 518 310 447 b 135 207 217 265 169 207 b 96 415 40 207 76 371 b 288 618 131 493 193 603 b 365 586 313 622 354 607 z m 379 619 b 369 599 376 613 372 606 b 282 632 349 619 304 632 b 24 431 163 636 60 532 b 132 196 -12 317 14 194 b 283 379 199 197 258 324 b 338 192 274 335 247 188 b 439 263 378 193 417 238 b 535 417 482 313 507 381 b 532 426 535 419 535 424 b 522 425 529 428 525 428 b 429 271 494 386 469 321 b 346 207 386 222 361 204 b 354 386 313 214 333 318 b 454 640 388 489 440 604 l 454 640 b 658 1115 501 750 610 1004 b 589 1107 619 1111 651 1115 b 379 619 557 1032 433 751 z "},"e":{"ha":361,"x_min":0,"x_max":0,"o":"m 21 415 b 225 626 53 510 124 597 b 271 633 240 631 257 633 b 357 539 331 633 379 601 b 113 451 329 454 182 433 b 168 213 74 374 7 150 b 386 425 257 247 332 350 b 397 426 390 428 394 429 b 399 418 399 425 400 421 b 168 196 342 340 258 228 b 21 415 13 144 -24 288 z m 235 604 b 119 464 186 574 142 510 b 344 543 182 449 321 467 b 235 604 371 614 290 636 z "},"f":{"ha":314,"x_min":0,"x_max":0,"o":"m 96 464 b 421 971 263 563 386 785 b 385 1106 432 1046 417 1100 b 0 354 288 1125 119 728 b -168 -265 -96 76 -169 -190 b 107 -47 -151 -476 89 -256 b 22 218 113 50 100 156 l 24 218 b 351 418 76 226 256 226 b 347 426 353 422 349 425 b 339 424 344 428 340 426 b 21 231 247 238 72 238 b 11 229 17 231 13 229 b 96 464 24 269 51 346 z m 99 475 b 388 1078 121 539 319 1086 b 407 972 410 1075 415 1031 b 99 475 382 808 246 560 z m 10 215 b 94 -47 86 154 100 49 b -126 -264 78 -239 -142 -451 b 10 215 -117 -137 -7 164 z "},"g":{"ha":513,"x_min":0,"x_max":0,"o":"m 217 156 b 13 -344 171 17 71 -282 b 217 156 -68 -439 -118 -57 z m 338 582 b 272 379 318 514 297 443 b 228 283 257 340 243 310 b 82 267 186 207 111 156 b 90 411 69 318 81 385 b 260 614 118 489 167 599 b 338 582 282 618 325 601 z m 281 375 b 221 175 267 314 240 233 b 22 -385 -137 -44 -110 -435 b 299 185 103 -354 208 -96 b 551 417 381 221 499 340 b 540 424 557 422 546 429 b 304 203 489 350 383 242 b 421 636 347 346 382 492 b 351 629 400 633 374 631 b 342 594 350 617 346 606 b 249 628 319 615 272 628 b 21 426 131 632 46 528 b 43 243 7 360 11 289 b 235 269 96 169 181 174 b 281 375 257 307 271 349 z "},"h":{"ha":451,"x_min":0,"x_max":0,"o":"m 306 1108 l 117 658 l -64 196 l 3 194 l 124 501 b 313 621 158 539 268 640 b 324 601 321 618 325 613 b 304 529 325 586 315 560 b 286 190 282 464 151 183 b 490 417 367 193 443 354 b 478 425 494 424 483 432 b 297 207 450 385 344 199 b 285 267 274 211 282 250 b 363 521 304 351 346 432 b 357 599 367 549 367 575 b 315 638 347 624 332 635 b 139 540 258 649 182 579 l 385 1126 z "},"i":{"ha":243,"x_min":0,"x_max":0,"o":"m 192 774 b 150 735 167 768 147 750 b 200 715 154 718 175 710 b 242 756 226 721 243 739 b 192 774 239 771 215 779 z m 122 640 b 4 210 75 550 -60 294 b 49 190 14 197 28 190 b 157 261 89 192 132 236 b 279 417 203 311 251 381 b 276 425 281 419 281 424 b 269 424 275 428 271 426 b 147 271 240 385 192 319 b 58 207 101 221 74 204 b 196 649 -10 219 171 592 b 122 640 157 644 183 647 z "},"j":{"ha":226,"x_min":0,"x_max":0,"o":"m -61 161 b -290 -339 -114 22 -225 -276 b -61 161 -385 -433 -417 -51 z m 139 768 b 103 728 114 763 99 744 b 157 710 110 713 133 704 b 192 749 182 715 197 733 b 139 768 185 765 164 774 z m 89 635 b -57 181 36 486 -3 331 b -281 -379 -437 -39 -425 -429 b 19 190 -197 -349 -78 -90 b 264 417 100 226 211 340 b 261 425 264 419 265 424 b 253 424 258 428 254 426 b 28 208 201 350 104 247 b 158 642 72 351 113 497 b 89 635 136 639 111 636 z "},"k":{"ha":467,"x_min":0,"x_max":0,"o":"m 351 1108 l 133 658 l -79 196 l -11 194 l 129 501 b 326 621 167 539 283 640 b 336 601 335 618 338 613 b 313 529 336 586 324 560 b 271 190 285 464 135 183 b 381 263 311 192 356 235 b 504 417 428 313 476 381 b 493 425 510 424 499 432 b 283 207 465 385 331 199 b 275 267 260 211 271 250 b 368 521 300 351 347 432 b 369 599 375 549 378 575 b 331 638 361 624 347 635 b 240 611 304 643 271 631 b 525 747 335 694 443 769 b 533 753 529 747 532 749 b 529 760 533 756 532 758 b 151 549 415 790 264 651 b 149 542 150 546 147 543 l 147 540 l 432 1126 z "},"l":{"ha":242,"x_min":0,"x_max":0,"o":"m 326 1111 b 7 382 299 1060 38 481 b 3 211 -12 313 -21 247 b 50 193 14 199 26 192 b 154 264 90 194 133 239 b 278 417 200 314 250 381 b 265 421 282 425 276 436 b 146 272 236 382 190 319 b 60 208 101 224 74 206 b 71 371 29 214 40 286 b 397 1119 111 483 383 1088 b 326 1111 360 1115 389 1119 z "},"m":{"ha":649,"x_min":0,"x_max":0,"o":"m 249 251 b 351 539 275 315 344 468 b 507 618 404 581 474 632 b 515 599 511 615 515 610 b 490 526 514 583 503 557 b 451 188 463 461 314 181 b 682 414 531 190 639 353 b 674 422 688 421 678 429 b 463 204 643 382 510 196 b 453 264 440 208 449 247 b 546 518 478 349 525 429 b 547 596 554 546 556 572 b 510 635 539 621 526 632 b 356 561 464 644 401 600 b 310 635 353 590 346 629 b 138 550 264 643 181 585 b 181 657 158 604 176 646 l 113 649 b -67 181 83 592 -31 285 l -1 183 b 122 513 21 253 78 400 b 307 618 171 556 267 635 b 317 599 313 615 317 610 b 176 251 314 583 304 557 z "},"n":{"ha":450,"x_min":0,"x_max":0,"o":"m 0 183 b 124 513 22 253 79 400 b 308 618 172 556 268 635 b 318 599 314 615 318 610 b 293 526 315 583 306 557 b 253 188 264 461 117 181 b 363 260 293 189 335 232 b 485 414 407 310 458 378 b 475 422 490 421 479 429 b 264 204 444 382 311 196 b 254 264 243 208 251 247 b 349 518 281 349 328 429 b 350 596 357 546 358 572 b 311 635 342 621 328 632 b 139 550 265 643 182 585 b 182 657 160 604 178 646 l 114 649 b -65 181 85 592 -29 285 z "},"o":{"ha":454,"x_min":0,"x_max":0,"o":"m 314 525 b 285 343 331 469 317 403 b 175 490 203 358 167 407 b 146 486 176 510 147 500 b 279 332 139 401 204 347 b 143 210 244 276 197 231 b 79 392 13 158 49 321 b 124 476 90 421 106 450 b 239 575 157 528 199 568 b 314 525 276 581 304 557 z m 296 342 b 326 529 328 403 342 472 b 239 588 314 568 281 588 b 75 506 178 589 111 546 b 11 392 47 472 24 432 b 146 200 -29 276 8 153 b 289 329 204 219 254 269 l 292 329 b 492 417 369 318 453 358 b 481 422 492 417 488 428 b 296 342 436 365 367 332 z "},"p":{"ha":438,"x_min":0,"x_max":0,"o":"m 79 604 b -226 -383 -11 319 -119 -53 l -157 -379 b 29 182 -92 -201 -43 -36 b 238 172 71 128 169 136 b 476 417 331 222 424 329 b 472 426 478 421 475 424 b 463 425 469 428 465 428 b 242 199 399 313 325 243 b 336 342 286 235 319 290 b 219 599 385 469 353 613 b 104 458 169 594 128 518 b 153 618 118 511 136 564 b 79 604 131 613 101 608 z m 61 278 b 217 589 74 353 143 582 b 265 356 300 594 304 471 b 61 278 228 249 35 39 z "},"q":{"ha":617,"x_min":0,"x_max":0,"o":"m 300 271 b 439 583 344 375 390 478 b 467 639 451 608 461 628 b 389 631 442 636 413 631 b 374 597 383 619 378 608 b 286 629 351 617 310 629 b 21 417 158 633 58 526 b 82 199 -12 319 0 221 b 251 318 168 175 213 258 b 82 -203 153 79 83 -133 b 374 -21 81 -417 342 -228 b 310 258 389 76 382 185 b 522 297 393 257 461 265 b 654 417 568 322 610 354 b 640 418 654 422 644 425 b 311 271 517 251 356 271 b 300 271 306 271 303 271 z m 368 586 b 272 381 335 518 308 446 b 92 214 246 331 167 167 b 92 418 47 242 53 331 b 292 615 131 513 207 603 b 368 586 317 619 356 604 z m 293 257 b 361 -19 368 185 376 76 b 121 -207 331 -210 94 -393 b 293 257 140 -81 272 208 z "},"r":{"ha":415,"x_min":0,"x_max":0,"o":"m 157 669 b 178 639 165 658 171 649 b 103 532 157 610 131 571 b 22 417 74 490 44 449 b 33 410 22 417 24 403 b 114 525 53 439 83 482 b 185 629 139 564 165 601 b 181 394 269 511 257 581 b 332 265 101 199 179 99 b 454 419 378 315 429 383 b 444 428 460 425 451 435 b 324 274 417 389 368 324 b 207 208 254 199 217 192 b 271 432 186 238 239 358 b 193 643 339 575 281 536 b 251 749 208 667 244 713 b 132 732 264 824 135 803 b 157 669 132 713 144 690 z m 186 653 b 146 733 171 671 144 703 b 239 749 146 788 250 806 b 186 653 233 717 199 671 z "},"s":{"ha":304,"x_min":0,"x_max":0,"o":"m 13 196 b 218 261 75 147 171 211 b 342 415 265 311 314 379 b 339 425 344 418 343 422 b 332 424 338 426 333 426 b 208 269 303 385 254 319 b 163 225 190 250 176 235 b 190 260 172 236 181 249 b 207 454 233 332 221 389 b 213 604 199 500 185 560 b 269 601 251 665 315 647 b 269 592 267 599 267 594 b 278 592 271 589 275 589 b 296 635 294 608 300 624 b 154 603 286 678 189 674 l 151 597 b 18 413 108 532 57 461 b 29 407 13 406 22 399 b 142 561 63 447 104 506 b 140 546 140 556 140 551 b 153 444 139 513 147 476 b 133 268 164 386 175 332 b 21 207 115 236 61 176 b 72 346 -29 247 35 317 b 74 356 75 349 78 353 b 64 357 72 358 68 358 b 13 196 19 322 -47 243 z "},"t":{"ha":242,"x_min":0,"x_max":0,"o":"m 324 1097 b 253 946 315 1082 289 1024 l 74 946 l 74 933 l 249 933 b 8 382 161 743 29 450 b 6 211 -11 313 -19 247 b 51 193 15 199 29 192 b 156 264 92 194 135 239 b 281 417 201 314 251 381 b 267 421 285 425 278 436 b 149 272 238 382 192 319 b 61 208 103 224 75 206 b 78 372 31 214 47 286 b 322 933 106 447 235 742 l 771 935 l 772 947 l 326 946 b 397 1106 365 1032 393 1096 b 324 1097 360 1101 388 1104 z "},"u":{"ha":488,"x_min":0,"x_max":0,"o":"m 124 633 b 4 210 76 544 -58 296 b 50 192 14 197 28 190 b 156 263 90 193 132 238 b 253 382 190 299 226 346 b 250 210 232 311 224 246 b 296 192 260 197 274 190 b 401 263 336 193 378 238 b 525 417 449 313 499 381 b 524 426 526 419 526 424 b 514 425 521 428 517 428 b 393 271 486 386 438 321 b 304 207 346 222 319 204 b 439 642 235 219 415 586 b 367 633 400 638 428 642 b 268 422 342 589 300 508 b 147 271 238 382 192 319 b 58 207 100 222 74 204 b 196 642 -8 219 172 586 b 124 633 158 639 185 642 z "},"v":{"ha":504,"x_min":0,"x_max":0,"o":"m 124 640 b 6 208 76 550 -58 294 b 99 190 26 181 65 176 b 194 261 139 206 175 243 b 300 392 231 301 271 354 b 543 418 356 288 483 325 l 531 425 b 308 404 476 342 360 299 b 401 540 342 450 371 490 b 458 671 432 594 449 638 b 331 719 486 786 403 808 b 282 617 310 693 294 658 b 293 406 265 550 267 467 b 183 269 263 367 224 313 b 97 201 175 260 132 217 b 44 224 72 190 50 197 b 196 647 31 301 174 599 b 124 640 158 644 185 647 z m 303 417 b 296 614 279 476 279 553 b 340 710 304 654 321 686 b 444 674 403 789 471 776 b 389 546 436 642 419 599 b 303 417 360 497 336 463 z "},"w":{"ha":749,"x_min":0,"x_max":0,"o":"m 372 650 b 265 419 347 600 296 500 b 146 269 238 381 192 317 b 58 206 101 219 74 203 b 199 643 -10 218 172 588 b 122 635 160 639 188 643 b 6 208 78 544 -58 293 b 50 189 14 196 29 188 b 156 260 89 190 133 235 b 253 381 189 297 226 343 b 236 307 244 354 239 329 b 251 208 231 267 232 231 b 346 189 271 179 308 175 b 439 260 383 206 422 242 b 544 392 475 300 515 354 b 681 335 572 338 618 315 b 788 417 724 349 760 383 l 776 425 b 676 347 751 393 717 360 b 553 403 619 328 579 353 b 646 540 586 450 617 489 b 703 671 676 593 693 636 b 576 718 731 786 647 807 b 526 615 556 692 539 658 b 538 404 510 549 511 467 b 428 269 508 365 468 311 b 342 200 418 258 379 215 b 289 224 317 190 294 196 b 447 661 276 299 417 593 z m 547 417 b 540 614 524 475 524 551 b 585 710 549 653 567 685 b 689 674 647 789 715 775 b 635 546 682 640 664 599 b 547 417 606 496 579 461 z "},"x":{"ha":481,"x_min":0,"x_max":0,"o":"m 68 651 b 74 633 71 646 72 640 b 140 375 85 578 113 454 b -61 189 72 311 0 249 l -56 179 b 144 364 8 239 76 300 b 279 186 167 304 214 189 b 518 415 353 182 476 361 b 507 424 522 422 513 431 b 408 297 492 403 450 347 b 293 219 383 269 335 203 b 189 406 253 236 218 317 b 414 632 269 482 347 560 l 406 642 b 186 418 340 569 265 493 b 133 632 167 481 146 579 z "},"y":{"ha":479,"x_min":0,"x_max":0,"o":"m 179 161 b -43 -339 129 22 19 -276 b 179 161 -136 -433 -171 -51 z m 96 632 b 28 218 61 542 -46 304 b 72 200 38 206 51 199 b 171 271 113 201 151 246 b 251 382 199 304 226 347 b 185 181 229 315 210 247 b -33 -379 -190 -39 -178 -429 b 263 190 49 -349 164 -90 b 517 417 346 226 464 340 b 506 424 519 424 511 431 b 271 208 454 350 350 247 b 403 642 318 351 357 497 b 333 635 381 639 356 636 b 268 436 308 569 289 503 l 267 431 b 81 215 242 390 126 207 b 171 640 10 228 149 583 b 96 632 131 636 160 639 z "},"z":{"ha":522,"x_min":0,"x_max":0,"o":"m 158 672 b 176 642 164 661 171 651 b 22 417 126 567 74 492 l 33 410 b 185 632 85 483 135 557 b 258 500 221 583 274 561 b 172 357 246 451 204 408 b 254 181 128 283 304 361 b -247 -249 64 71 -175 -21 b -111 -372 -282 -354 -206 -394 b 324 210 103 -318 293 14 b 556 414 415 269 481 332 l 546 419 b 326 225 471 340 414 281 b 235 343 332 281 286 331 b 306 503 281 429 307 465 b 194 646 301 575 239 590 b 253 751 210 669 244 715 b 133 735 265 826 135 806 b 158 672 132 715 143 693 z m -118 -335 b -236 -250 -196 -367 -267 -347 b 249 165 -167 -33 65 61 b -118 -335 199 14 47 -264 z m 186 656 b 147 736 171 674 147 706 b 239 751 149 790 250 808 b 186 656 232 719 197 674 z "},"A":{"ha":1129,"x_min":0,"x_max":0,"o":"m 1101 1143 b 1107 1124 1104 1140 1106 1133 b 1038 829 1113 1078 1078 964 b 1017 760 1029 806 1025 783 b 806 724 942 749 872 738 b 1094 1146 854 801 1047 1138 b 1097 1146 1096 1146 1096 1146 b 1100 1143 1097 1144 1099 1143 z m 236 167 b 85 236 174 150 107 176 b 142 414 68 283 82 347 b 724 692 229 513 410 618 b 526 396 658 586 589 481 b 371 238 475 326 422 275 b 236 167 322 203 276 179 z m 732 708 b 135 422 407 632 224 522 b 74 231 71 351 54 282 b 240 150 97 164 172 143 b 588 393 338 160 467 231 b 797 710 657 483 728 597 b 1013 746 864 724 933 735 b 929 151 947 528 883 279 b 1197 96 961 65 1040 32 l 1192 107 b 943 156 1044 47 971 76 b 1026 747 897 282 961 531 b 1186 767 1078 754 1131 761 l 1186 779 b 1029 761 1132 775 1081 769 b 1050 826 1038 783 1043 804 b 1121 1126 1090 963 1125 1078 b 1104 1158 1117 1144 1113 1154 b 1033 1151 1079 1182 1050 1163 b 1028 1149 1031 1150 1029 1149 b 732 708 961 1106 793 806 z "},"B":{"ha":1179,"x_min":0,"x_max":0,"o":"m 379 586 b 229 538 324 578 275 560 b 281 925 118 640 186 821 b 828 1086 411 1069 646 1139 b 706 794 785 997 743 896 b 481 324 638 626 571 457 b 421 444 460 358 439 397 l 410 439 b 474 313 428 390 449 349 b 286 136 418 238 358 175 b 72 157 207 94 133 88 b 47 349 22 210 14 279 b 228 522 81 425 154 485 b 468 497 292 468 392 456 b 568 732 557 544 586 644 l 556 729 b 465 508 569 647 546 553 b 240 529 393 469 300 481 b 379 575 282 549 329 565 z m 833 1099 b 271 932 647 1153 406 1081 b 217 531 172 826 106 640 b 35 354 143 492 72 431 b 63 149 0 279 10 206 b 300 108 124 81 217 79 b 506 269 382 139 451 201 b 760 161 572 196 660 154 b 1026 311 863 167 965 224 b 1026 601 1082 394 1094 501 b 1022 606 1025 603 1024 604 b 954 675 1004 633 978 657 b 1058 803 1008 700 1047 742 b 1043 917 1064 839 1057 879 b 889 1078 1015 993 963 1044 b 981 1238 919 1136 947 1190 b 910 1231 964 1249 915 1238 l 910 1231 b 833 1099 882 1190 858 1146 z m 756 179 b 514 279 664 158 571 217 b 768 793 621 417 697 607 b 882 1065 807 888 843 981 b 1001 889 953 1033 993 965 b 1000 811 1007 863 1007 836 b 919 696 992 763 963 722 b 914 699 917 697 915 699 b 818 654 822 743 778 678 b 919 661 843 640 893 653 b 983 572 949 639 969 607 b 957 307 1015 488 1006 386 b 756 179 915 247 850 199 z m 892 682 b 851 667 883 678 867 671 b 831 697 808 656 810 692 b 892 682 842 701 861 697 z "},"C":{"ha":867,"x_min":0,"x_max":0,"o":"m 736 1082 b 1000 1131 803 1124 938 1192 b 965 1026 1035 1097 994 1050 b 797 944 931 999 875 968 b 510 896 711 914 607 896 b 736 1082 575 968 653 1035 z m 499 885 b 800 932 603 881 708 901 b 975 1018 881 957 938 989 b 1011 1142 1011 1049 1050 1101 b 713 1108 944 1203 789 1147 b 449 900 613 1057 525 983 b 171 1053 338 913 229 956 l 158 1046 b 438 889 218 947 325 903 b 410 125 247 697 22 133 b 810 342 553 122 721 229 l 801 349 b 408 146 717 246 549 129 b 499 885 90 185 354 740 z "},"D":{"ha":1247,"x_min":0,"x_max":0,"o":"m 899 953 b 1335 1260 1003 1150 1175 1364 b 1344 976 1433 1193 1419 1064 b 1135 835 1289 911 1215 867 l 1139 825 b 1353 968 1222 856 1297 900 b 1342 1271 1433 1063 1447 1200 b 1086 1257 1279 1311 1188 1315 b 844 978 988 1201 915 1107 b 125 686 610 1088 200 963 b 193 431 101 594 118 490 b 83 351 147 407 111 381 b 74 47 -3 263 -25 126 b 328 42 132 3 222 -8 b 493 174 389 72 443 118 b 988 236 635 47 850 100 b 1113 453 1051 299 1093 374 b 899 953 1161 654 1075 858 z m 206 438 b 138 683 133 493 114 594 b 839 967 211 953 610 1072 b 638 528 765 828 706 682 b 513 519 593 525 551 524 b 524 639 525 557 528 599 l 510 636 b 497 517 515 597 513 556 b 206 438 375 503 279 474 z m 900 931 b 1047 456 1042 826 1092 629 b 944 260 1028 383 993 315 b 501 185 825 128 638 63 b 699 515 578 275 640 392 b 876 507 754 515 813 513 l 879 519 b 704 528 817 525 758 528 b 890 936 750 628 793 731 z m 507 506 b 632 514 546 510 586 513 b 465 225 581 408 529 307 b 418 354 443 260 425 303 l 407 353 b 458 214 414 297 431 251 b 83 58 378 110 210 -40 b 93 343 -11 132 13 260 b 203 422 121 372 156 399 b 507 506 303 353 457 383 z m 217 429 b 493 504 288 464 376 490 b 217 429 444 396 307 371 z "},"E":{"ha":960,"x_min":0,"x_max":0,"o":"m 1053 1149 b 1061 1110 1113 1156 1103 1133 b 953 1061 1026 1092 992 1075 b 836 1022 917 1047 876 1035 b 757 1000 808 1014 783 1007 b 683 978 733 993 708 986 b 1053 1149 769 1061 904 1133 z m 665 960 b 760 988 697 969 729 979 b 838 1010 789 996 814 1003 b 958 1049 879 1022 919 1035 b 1065 1097 996 1064 1032 1079 b 1050 1165 1126 1132 1124 1164 b 750 1078 978 1165 849 1138 b 614 972 693 1043 647 1007 b 594 951 607 965 600 958 b 67 486 353 874 115 757 l 79 485 b 581 933 125 742 347 857 b 539 863 560 908 547 885 b 533 754 525 826 521 786 b 175 315 381 669 185 500 b 211 188 174 267 185 222 b 581 128 292 75 457 83 b 769 253 650 154 719 196 b 850 447 814 303 849 381 b 626 275 854 682 486 450 l 636 283 b 838 446 511 442 842 658 b 761 261 836 383 803 308 b 576 140 711 206 643 165 b 256 235 451 94 304 100 b 243 336 242 264 239 299 b 553 721 263 497 419 638 b 579 696 560 711 568 703 b 758 692 629 661 699 667 b 739 824 854 735 874 832 b 581 778 699 821 643 808 b 590 847 576 800 581 822 b 660 956 603 882 626 919 b 665 960 661 957 663 958 z m 743 804 b 753 704 860 826 835 740 b 592 744 689 676 626 682 b 743 804 638 769 692 794 z "},"F":{"ha":908,"x_min":0,"x_max":0,"o":"m 903 963 b 1285 1097 1051 989 1192 1024 b 1274 1157 1318 1125 1317 1147 b 903 963 1165 1183 975 1053 z m 892 947 b 729 608 824 856 771 715 b 940 671 796 625 881 639 l 947 660 b 724 594 882 626 793 611 b 285 25 644 401 518 58 b 218 476 19 -12 26 296 b 250 743 125 535 186 678 b 603 910 340 836 481 883 b 576 985 600 938 592 963 l 589 993 b 617 913 603 968 611 942 b 825 950 685 926 754 938 b 1182 1171 926 1092 1076 1156 b 1278 1169 1215 1175 1246 1176 b 1292 1088 1329 1157 1333 1122 b 892 947 1194 1010 1047 975 z m 228 486 b 419 626 278 531 340 578 l 425 617 b 240 481 349 569 289 524 b 604 897 389 425 613 738 b 260 735 485 872 347 825 b 228 486 200 674 138 536 z m 229 471 b 282 47 28 281 58 -18 b 650 575 450 96 586 421 b 321 354 533 540 411 485 l 310 361 b 654 590 406 499 533 556 b 815 935 700 697 749 839 b 617 900 749 924 683 914 b 229 471 625 729 389 400 z "},"G":{"ha":946,"x_min":0,"x_max":0,"o":"m 757 976 b 954 1014 815 1003 896 1035 b 990 926 993 999 1021 968 b 810 817 961 889 893 850 b 468 735 703 774 582 744 b 757 976 526 828 621 917 z m 460 721 b 813 804 576 731 701 761 b 1001 919 900 839 969 879 b 957 1026 1039 969 1004 1010 b 740 1006 892 1049 799 1026 b 399 731 575 943 464 839 b 140 844 268 729 163 760 l 129 840 b 392 718 153 751 260 718 b 328 524 360 660 332 589 b 468 304 317 425 356 310 b 818 519 553 299 672 358 b 836 543 825 528 831 535 b 826 521 835 538 831 531 l 824 517 b 718 285 788 440 757 363 b 417 207 618 289 507 256 b 226 35 357 175 263 107 b 372 -135 174 -71 275 -143 b 518 -75 415 -131 467 -112 b 775 265 631 7 713 144 b 936 138 846 250 906 211 l 950 142 b 782 278 917 219 856 261 b 888 513 819 356 851 435 b 868 575 897 533 907 582 b 808 528 846 572 824 546 b 476 325 754 468 569 286 b 393 525 404 357 386 453 b 454 711 399 590 425 658 b 460 721 456 714 458 718 z m 713 272 b 369 -108 647 142 521 -72 b 238 29 267 -132 192 -64 b 422 196 272 99 367 167 b 713 272 510 242 615 275 z "},"H":{"ha":943,"x_min":0,"x_max":0,"o":"m 496 792 b 350 663 438 714 385 674 b 526 1100 200 624 306 1001 b 611 1069 564 1117 593 1111 b 493 640 654 976 540 739 b 60 175 421 597 64 300 b 90 132 58 147 72 136 b 174 151 119 131 153 143 b 546 622 338 232 465 464 b 571 672 554 639 563 656 b 796 751 639 710 717 738 b 654 144 696 490 631 224 b 721 153 660 133 728 132 b 857 746 693 222 758 485 l 863 758 b 969 760 899 764 935 763 l 968 772 b 865 772 935 775 900 776 b 1231 1343 919 910 1075 1288 b 1133 1322 1222 1374 1175 1351 b 986 1157 1078 1283 1029 1226 b 800 767 904 1031 843 872 b 581 692 722 751 649 725 b 664 1100 625 788 732 1021 b 524 1110 628 1142 568 1131 b 353 650 283 1007 179 604 b 508 783 393 661 444 703 z m 482 619 b 93 149 418 499 232 168 b 72 174 79 147 71 156 b 482 619 78 290 418 579 z "},"I":{"ha":808,"x_min":0,"x_max":0,"o":"m 1053 1113 b 1125 1103 1078 1125 1143 1161 b 901 968 1103 1031 968 990 b 1053 1113 944 1029 993 1081 z m 892 951 b 1136 1099 964 976 1113 1018 b 1042 1142 1157 1165 1086 1161 b 819 939 944 1100 874 1026 b 440 736 694 894 556 838 l 447 726 b 807 922 557 822 689 879 b 668 594 749 822 707 707 b 486 232 615 450 565 314 b 375 161 454 200 417 175 b 297 156 343 150 326 147 b 181 308 226 176 188 235 l 169 307 b 292 143 174 228 217 167 b 378 138 321 136 347 133 b 547 224 436 143 497 172 b 739 606 631 308 685 454 b 892 951 783 728 828 851 z "},"J":{"ha":869,"x_min":0,"x_max":0,"o":"m 826 399 b 664 389 769 401 714 397 b 989 1178 778 640 858 944 b 1139 1271 1013 1190 1097 1229 b 1108 1350 1178 1310 1165 1353 b 908 1150 1024 1346 943 1219 l 894 1144 b 526 929 760 1075 601 996 b 528 817 481 889 456 843 l 532 828 b 535 922 471 851 497 889 b 899 1132 607 985 765 1064 b 590 375 779 890 706 622 b 306 233 522 358 389 306 b 229 79 253 188 219 136 b 336 11 240 32 292 11 b 657 375 458 13 563 169 b 822 386 707 383 763 388 z m 332 33 b 242 82 293 18 250 44 b 315 226 232 135 264 183 b 583 361 394 294 521 346 b 332 33 507 197 425 68 z m 999 1197 b 1094 1303 1025 1239 1054 1276 b 1129 1278 1132 1325 1178 1326 b 999 1197 1093 1243 1026 1211 z "},"K":{"ha":1075,"x_min":0,"x_max":0,"o":"m 526 774 b 499 813 500 783 492 797 b 844 1026 524 868 696 954 b 706 760 801 951 754 858 b 574 496 664 672 621 581 b 296 333 461 465 363 400 b 221 188 264 300 211 236 b 292 139 226 151 261 140 b 640 499 414 133 532 297 b 760 497 681 504 721 504 l 763 510 b 647 513 724 517 685 517 b 771 754 689 590 729 674 b 940 1074 831 878 888 993 b 1054 1138 974 1090 1019 1111 b 1086 1165 1068 1146 1078 1156 b 1071 1225 1108 1190 1104 1221 b 939 1160 1029 1229 969 1188 b 854 1046 913 1135 886 1094 b 488 817 701 971 515 879 b 521 761 478 794 486 775 z m 1215 83 b 838 614 897 -31 896 390 b 1333 965 1042 669 1142 907 b 1321 979 1342 967 1329 978 b 1018 783 1231 997 1069 838 l 1014 782 b 821 635 929 696 867 654 b 747 672 811 649 768 681 b 736 624 726 665 722 639 b 781 608 747 614 765 611 b 1224 75 814 379 881 -58 z m 289 160 b 232 190 264 150 238 163 b 306 325 226 233 275 294 b 564 482 367 388 461 450 b 289 160 476 322 383 192 z m 954 1094 b 1056 1190 979 1131 1014 1172 b 1078 1172 1079 1201 1103 1201 l 1050 1147 b 954 1094 1019 1126 982 1108 z m 776 624 b 746 633 761 624 751 628 b 749 660 739 640 738 654 b 778 624 767 669 774 635 z "},"L":{"ha":996,"x_min":0,"x_max":0,"o":"m 354 789 b 328 826 329 799 321 811 b 674 1039 353 882 525 967 b 533 775 628 964 582 872 b 300 356 460 628 381 472 b 208 250 271 313 239 278 b 38 210 151 254 90 243 b 47 153 0 186 -1 157 b 256 232 117 146 201 188 b 456 174 325 221 394 196 b 1001 113 636 107 811 38 l 997 125 b 461 185 808 50 639 121 b 268 243 401 207 335 231 b 363 349 301 271 332 306 b 597 769 444 467 524 624 b 768 1086 658 892 715 1007 b 919 1181 813 1107 889 1142 b 879 1235 947 1217 913 1240 b 826 1215 863 1233 844 1225 b 769 1172 807 1203 788 1189 b 686 1058 743 1146 714 1107 b 317 831 529 983 344 893 b 349 776 307 808 315 789 z m 196 239 b 49 167 167 214 96 167 b 44 200 11 167 19 185 b 196 239 92 229 143 239 z m 783 1107 b 889 1203 811 1143 846 1186 b 911 1188 907 1211 931 1214 b 783 1107 883 1156 821 1125 z "},"M":{"ha":1617,"x_min":0,"x_max":0,"o":"m 689 704 b 724 781 700 729 711 756 b 933 1163 783 914 844 1053 b 1169 1272 1008 1181 1115 1207 b 1092 1346 1226 1344 1167 1378 b 864 1161 997 1306 924 1240 b 708 1133 813 1151 761 1142 b 406 1068 596 1114 486 1094 l 408 1056 b 711 1121 488 1082 599 1101 b 851 1146 758 1129 806 1138 b 658 786 774 1039 714 910 b 442 415 594 639 532 499 b 299 335 404 381 349 346 b 231 339 276 331 253 331 b 135 492 165 364 133 422 l 122 492 b 225 328 121 417 154 354 b 301 317 250 318 274 315 b 501 406 367 318 439 347 b 665 654 568 467 618 554 l 667 653 b 949 978 744 760 847 882 b 1142 1118 1015 1040 1083 1090 b 1204 1099 1185 1138 1203 1126 b 1050 713 1213 1007 1064 736 b 1022 663 1039 694 1031 678 l 1096 663 b 1189 788 1121 696 1153 739 b 1389 1040 1247 864 1318 953 b 1614 1274 1488 1160 1563 1235 b 1597 917 1754 1379 1607 946 b 1289 214 1513 661 1376 353 b 1343 193 1278 197 1339 188 b 1733 1274 1457 372 1769 1076 b 1607 1285 1718 1353 1653 1318 b 1379 1047 1551 1243 1479 1168 b 1179 794 1308 961 1239 871 b 1110 701 1153 760 1131 729 b 1165 804 1128 732 1146 767 b 1264 1115 1225 921 1279 1054 b 942 986 1233 1240 981 1025 b 689 704 851 904 763 800 z m 1107 1315 b 1157 1278 1174 1350 1208 1340 b 944 1179 1110 1221 1014 1194 b 1107 1315 992 1233 1046 1281 z "},"N":{"ha":1243,"x_min":0,"x_max":0,"o":"m 719 678 b 1181 1038 903 847 1071 983 b 1268 828 1371 1129 1308 925 b 1018 214 1188 629 1025 414 b 1140 121 1014 132 1050 76 l 1146 110 b 954 176 1067 69 963 72 b 1203 835 936 357 1128 650 b 1186 1025 1219 876 1306 1083 b 706 649 1075 971 896 824 b 604 450 672 575 640 511 b 721 413 643 442 681 428 l 715 400 b 597 439 674 417 635 429 l 593 433 b 486 292 561 379 526 331 b 369 214 444 256 406 229 b 121 269 289 182 158 182 b 203 429 97 335 150 397 b 549 464 274 472 389 496 b 846 1024 654 656 722 854 b 332 783 672 967 467 893 l 322 793 b 858 1043 464 907 682 982 b 1103 1250 924 1129 1003 1204 b 1182 1263 1139 1268 1168 1271 b 1168 1172 1224 1244 1185 1189 b 1085 1114 1149 1153 1121 1132 b 933 1056 1047 1096 994 1076 b 719 678 844 943 781 807 z m 947 1072 b 1081 1125 1000 1092 1047 1108 b 1158 1179 1115 1142 1142 1161 b 1118 1222 1208 1231 1197 1275 b 947 1072 1051 1176 960 1088 z m 338 236 b 425 299 367 251 396 271 b 532 436 463 336 499 382 b 540 453 533 442 538 447 b 208 418 388 482 278 460 b 135 275 157 388 111 328 b 338 236 165 192 274 201 z "},"O":{"ha":804,"x_min":0,"x_max":0,"o":"m 515 918 b 789 638 739 1050 833 824 b 753 538 782 604 769 571 b 451 218 690 408 574 282 b 254 211 385 185 319 167 b 271 674 101 314 185 543 b 515 918 338 775 426 865 z m 208 681 b 158 236 126 554 50 360 b 322 168 199 190 258 164 b 456 207 369 172 414 186 b 767 535 583 272 703 403 b 801 635 783 568 794 603 b 457 929 857 865 704 1075 b 208 681 367 875 276 783 z "},"P":{"ha":883,"x_min":0,"x_max":0,"o":"m 497 1018 b 83 631 324 933 144 831 b 303 443 33 464 139 358 b 535 810 421 504 506 668 b 515 1013 544 874 547 954 b 801 1065 607 1053 703 1074 b 619 631 732 960 678 800 b 504 317 583 525 546 417 b 113 122 358 322 172 275 b 264 -32 63 1 146 -64 b 429 82 333 -14 386 29 b 558 301 481 140 521 215 b 672 263 592 294 646 286 l 682 274 b 564 313 651 296 600 308 b 658 564 599 392 629 479 b 1036 810 822 535 993 647 b 864 1068 1072 947 992 1040 b 957 1163 893 1110 922 1143 b 808 1076 929 1217 826 1101 b 507 1024 708 1088 600 1065 b 308 1039 460 1089 376 1069 l 314 1028 b 497 1018 372 1056 451 1076 z m 503 1008 b 519 813 535 954 532 872 b 297 453 496 672 411 514 b 144 635 179 392 108 519 b 503 1008 194 789 360 939 z m 858 1057 b 968 811 960 1014 996 917 b 661 576 932 674 808 551 b 685 639 671 599 676 618 b 857 1058 738 800 790 953 z m 499 306 b 257 -12 451 194 371 40 b 124 117 153 -61 82 13 b 499 306 182 261 360 308 z "},"Q":{"ha":836,"x_min":0,"x_max":0,"o":"m 471 368 b 557 296 500 351 532 319 b 281 688 224 29 72 365 b 525 932 349 789 438 879 b 800 831 657 1008 761 969 b 567 304 857 639 714 428 b 476 379 540 329 508 361 z m 575 296 b 814 835 726 422 868 638 b 467 943 767 997 614 1029 b 218 694 376 889 285 797 b 565 288 -28 315 219 7 b 843 156 631 225 715 156 l 843 168 b 575 296 721 168 639 236 z "},"R":{"ha":1100,"x_min":0,"x_max":0,"o":"m 715 543 b 1117 132 769 301 814 35 l 1114 144 b 763 615 832 54 815 429 b 1161 807 918 567 1097 654 b 1179 926 1178 847 1186 888 b 1031 1090 1171 993 1124 1054 b 1135 1171 1064 1128 1099 1157 b 978 1107 1118 1225 1004 1135 b 675 1097 881 1132 774 1126 b 482 1143 638 1171 554 1165 l 485 1131 b 663 1094 549 1150 628 1158 b 382 549 74 908 69 443 b 668 881 511 592 621 742 b 681 1086 688 943 704 1025 b 969 1096 776 1113 874 1118 b 728 690 885 1001 807 850 b 568 394 675 590 624 486 b 153 257 424 419 236 400 b 267 76 90 151 157 69 b 618 369 410 82 550 261 b 689 342 646 361 671 351 b 726 315 707 332 717 324 l 735 324 b 697 351 726 333 713 344 b 624 381 676 363 653 372 b 715 543 657 431 686 486 z m 668 1082 b 656 885 692 1024 675 943 b 379 560 611 747 503 601 b 668 1082 144 481 203 938 z m 1096 815 b 761 629 1040 686 900 583 b 1021 1081 835 774 918 958 b 1096 815 1118 1042 1133 904 z m 561 383 b 265 97 500 283 385 121 b 164 251 165 76 110 157 b 561 383 242 386 425 406 z "},"S":{"ha":954,"x_min":0,"x_max":0,"o":"m 1024 1007 b 1133 965 1103 1040 1219 1032 b 819 844 1058 906 913 871 b 1024 1007 860 917 949 976 z m 811 829 b 1142 957 908 857 1065 893 b 1017 1036 1240 1038 1099 1058 b 742 822 915 1007 783 924 b 51 276 453 738 111 610 l 64 275 b 736 808 122 597 453 724 b 761 304 681 636 854 503 b 540 111 721 215 638 147 b 233 183 433 69 292 68 b 260 364 204 242 215 311 b 568 392 354 472 518 460 b 326 244 633 301 482 176 l 319 232 b 575 404 497 156 651 308 b 250 371 519 475 349 485 b 222 178 200 315 190 240 b 597 99 288 50 478 53 b 822 292 690 135 776 200 b 811 829 931 510 726 650 z "},"T":{"ha":1100,"x_min":0,"x_max":0,"o":"m 901 1124 b 744 738 922 1000 828 826 b 451 681 669 658 521 546 b 501 917 414 757 453 851 b 901 1124 604 1049 740 1107 z m 829 460 b 461 82 753 318 631 115 b 321 239 381 65 304 151 l 307 240 b 465 65 286 147 364 68 b 892 451 658 60 808 296 b 1283 1118 1011 675 1114 926 b 1769 1206 1394 1111 1708 1081 b 1690 1335 1803 1271 1746 1317 b 1250 1156 1536 1385 1358 1268 b 907 1149 1136 1158 1018 1160 b 707 1217 876 1236 788 1238 l 711 1206 b 894 1147 782 1224 865 1225 b 440 924 715 1128 554 1074 b 386 678 388 854 349 758 b 753 729 461 521 661 632 b 914 1125 840 821 936 996 b 1219 1122 1013 1133 1117 1129 b 829 460 1050 931 951 682 z m 1318 1154 b 1685 1321 1407 1244 1558 1354 b 1751 1228 1724 1311 1778 1274 b 1744 1218 1750 1225 1749 1221 b 1318 1154 1681 1139 1410 1151 z "},"U":{"ha":1408,"x_min":0,"x_max":0,"o":"m 706 1035 b 158 575 513 989 139 810 b 382 468 165 482 254 426 b 699 806 517 514 640 664 b 735 950 719 857 732 907 b 725 1025 736 978 733 1003 b 735 1028 728 1026 732 1028 b 1060 857 882 1058 1085 1061 b 917 496 1047 747 975 608 b 963 224 874 410 736 144 b 1276 538 1063 258 1206 443 b 1222 -17 1211 390 1072 100 b 1368 -26 1256 -42 1303 -47 l 1365 -15 b 1249 -4 1308 -33 1271 -28 b 1511 864 1074 181 1454 733 b 1447 868 1528 901 1460 897 b 1304 596 1408 782 1350 685 b 960 235 1231 494 1065 272 b 982 492 817 186 967 461 b 1129 854 1043 606 1117 744 b 721 1038 1157 1079 876 1072 b 524 1089 683 1111 594 1108 l 525 1078 b 706 1035 590 1094 672 1100 z m 713 1022 b 722 950 721 1001 724 976 b 688 810 719 908 707 860 b 378 481 629 671 508 524 b 224 581 292 451 228 504 b 713 1022 208 778 538 968 z "},"V":{"ha":1233,"x_min":0,"x_max":0,"o":"m 306 535 b 156 628 207 492 149 547 b 253 807 161 685 199 749 b 544 1003 339 903 463 985 b 563 922 558 982 564 954 b 536 801 561 886 551 844 b 306 535 493 692 406 578 z m 392 1035 b 536 1014 464 1053 511 1043 b 286 892 463 996 376 956 b 186 808 246 864 214 836 b 311 524 10 624 113 436 b 546 797 414 568 503 686 b 575 922 565 842 574 885 b 558 1007 576 954 571 983 b 790 936 647 1024 740 1011 b 765 489 871 817 803 619 b 794 142 740 403 640 150 b 922 206 846 139 886 167 b 1410 968 1107 400 1249 825 l 1401 978 b 914 214 1238 832 1097 408 b 803 158 892 192 842 146 b 781 181 796 163 788 169 b 829 486 751 243 810 419 b 836 965 869 624 944 844 b 551 1018 772 1033 643 1038 b 390 1047 513 1065 444 1061 z "},"W":{"ha":1626,"x_min":0,"x_max":0,"o":"m 669 1065 b 264 776 521 1028 335 910 b 289 569 222 700 207 611 b 682 849 451 489 628 714 b 708 974 699 892 708 935 b 692 1057 711 1006 706 1035 b 925 986 781 1075 872 1063 b 878 513 1010 858 926 647 b 811 264 844 418 813 331 b 943 193 811 194 882 163 b 1214 632 1043 242 1146 476 b 1249 706 1228 660 1239 685 b 1240 674 1244 694 1243 682 b 1200 536 1231 636 1218 588 b 1174 181 1178 465 1082 218 b 1281 192 1206 168 1250 175 b 1640 665 1382 250 1518 467 b 1874 1000 1733 814 1818 953 l 1867 1010 b 1629 671 1810 960 1722 821 b 1275 201 1507 474 1371 256 b 1206 208 1254 189 1217 179 b 1213 343 1193 233 1197 283 b 1265 533 1225 403 1246 469 b 1306 672 1281 585 1296 632 b 1319 788 1315 711 1322 760 b 1292 807 1319 804 1310 824 b 1246 731 1281 797 1267 774 b 1203 636 1233 707 1218 674 b 938 204 1136 483 1033 251 b 878 265 889 181 876 226 b 944 508 878 329 910 415 b 963 1022 996 653 1092 900 b 685 1068 896 1085 788 1090 b 524 1097 647 1117 579 1113 l 526 1085 b 669 1065 600 1104 643 1093 z m 319 761 b 678 1054 382 871 546 1022 b 696 974 692 1033 699 1006 b 669 853 696 936 686 894 b 308 594 579 619 375 532 b 319 761 265 635 288 704 z "},"X":{"ha":983,"x_min":0,"x_max":0,"o":"m 943 757 b 896 1064 969 871 974 990 b 619 1110 829 1126 719 1132 b 456 1139 581 1158 513 1154 l 460 1126 b 603 1107 532 1146 576 1135 b 196 818 454 1069 269 951 b 224 611 156 742 140 653 b 614 890 385 531 563 756 b 642 1015 632 933 642 976 b 624 1099 644 1047 639 1076 b 857 1028 714 1117 807 1104 b 856 690 917 940 896 793 b 346 263 772 489 542 319 b 200 265 286 244 211 232 l 189 260 b 351 238 200 222 313 231 b 874 600 544 272 765 433 b 1006 68 803 401 790 158 l 1010 79 b 926 697 764 183 832 493 b 1332 1204 1014 886 1161 1075 l 1326 1214 b 943 757 1169 1096 1032 929 z m 253 803 b 613 1096 315 913 479 1064 b 629 1015 625 1075 632 1047 b 603 894 629 978 619 936 b 240 636 511 661 310 574 b 253 803 199 676 219 746 z "},"Y":{"ha":1321,"x_min":0,"x_max":0,"o":"m 1201 649 b 1133 469 1185 600 1161 538 b 975 285 1092 403 1038 335 b 806 242 947 261 815 169 b 879 479 799 289 857 421 b 924 868 922 596 961 749 b 799 1001 903 928 864 979 b 574 990 740 1019 633 1010 l 572 992 b 410 1004 542 1022 488 1033 l 414 992 b 560 986 483 1018 531 1011 b 319 842 472 957 389 900 b 228 749 282 811 251 778 b 169 654 203 717 185 685 b 353 465 110 514 208 404 b 589 772 463 513 553 647 b 607 899 603 817 608 860 b 581 979 607 931 597 960 b 786 963 649 1000 726 1004 b 864 846 821 938 847 899 b 815 479 885 758 875 633 b 764 221 790 413 725 282 b 985 275 807 157 939 239 b 1110 414 1032 314 1074 363 b 997 168 1076 333 1040 250 b 479 -136 817 175 461 111 b 644 -262 488 -228 557 -276 b 1051 153 818 -233 974 8 b 1174 138 1090 150 1129 144 l 1182 150 b 1057 165 1138 157 1097 161 b 1271 664 1157 349 1231 549 z m 349 478 b 229 649 233 432 203 561 b 568 975 275 781 439 933 b 594 899 583 956 593 929 b 578 775 597 861 589 818 b 349 478 542 653 456 522 z m 633 -242 b 492 -136 557 -272 500 -212 b 990 157 476 101 821 163 b 633 -242 915 18 788 -182 z "},"Z":{"ha":894,"x_min":0,"x_max":0,"o":"m 1094 1136 b 1101 1036 1233 1193 1211 1090 b 864 981 1047 1008 969 986 b 979 1075 901 1017 939 1049 b 1094 1136 1013 1099 1054 1121 z m 851 967 b 1107 1025 965 972 1050 996 b 1079 1163 1240 1092 1235 1206 b 950 1106 1043 1153 1000 1135 b 792 978 894 1072 842 1029 b 251 1072 651 978 474 1004 l 249 1060 b 781 965 465 993 640 967 b 510 636 681 864 597 747 b 304 751 431 638 306 650 l 292 750 b 501 624 293 643 417 626 b 304 390 438 540 372 460 b 64 303 221 400 107 392 b 72 226 53 278 50 244 b 183 239 100 204 153 224 b 321 339 219 257 265 289 b 353 368 332 349 343 358 b 839 190 521 333 678 247 l 844 203 b 363 379 683 258 531 343 b 569 624 435 451 503 538 b 785 649 646 628 724 639 l 783 661 b 579 638 725 653 651 642 b 851 967 665 749 751 867 z m 292 378 b 157 267 267 354 207 300 b 85 238 126 246 100 233 b 76 297 60 243 69 281 b 292 378 114 378 217 386 z "},"ı":{"ha":244,"x_min":0,"x_max":0,"o":"m 193 774 b 151 735 168 768 149 750 b 201 715 156 718 176 710 b 243 756 228 721 244 739 b 193 774 240 771 217 779 z m 124 640 b 6 210 76 550 -58 294 b 50 190 15 197 29 190 b 158 261 90 192 133 236 b 281 417 204 311 253 381 b 278 425 282 419 282 424 b 271 424 276 428 272 426 b 149 271 242 385 193 319 b 60 207 103 221 75 204 b 197 649 -8 219 172 592 b 124 640 158 644 185 647 z "},"ﬁ":{"ha":582,"x_min":0,"x_max":0,"o":"m 110 464 b 435 971 276 563 400 785 b 399 1106 446 1046 431 1100 b 14 354 301 1125 133 728 b -154 -265 -82 76 -156 -190 b 121 -47 -137 -476 103 -256 b 36 218 126 50 114 156 l 38 218 b 365 418 90 226 269 226 b 361 426 367 422 363 425 b 353 424 358 428 354 426 b 35 231 261 238 86 238 b 25 229 31 231 26 229 b 110 464 38 269 65 346 z m 113 475 b 401 1078 135 539 333 1086 b 421 972 424 1075 429 1031 b 113 475 396 808 260 560 z m 24 215 b 108 -47 100 154 114 49 b -112 -264 92 -239 -128 -451 b 24 215 -103 -137 7 164 z m 531 774 b 489 735 506 768 486 750 b 539 715 493 718 514 710 b 581 756 565 721 582 739 b 531 774 578 771 554 779 z m 461 640 b 343 210 414 550 279 294 b 388 190 353 197 367 190 b 496 261 428 192 471 236 b 618 417 542 311 590 381 b 615 425 619 419 619 424 b 608 424 614 428 610 426 b 486 271 579 385 531 319 b 397 207 440 221 413 204 b 535 649 329 219 510 592 b 461 640 496 644 522 647 z "},"":{"ha":514,"x_min":0,"x_max":0,"o":"m 383 597 b 297 632 364 619 321 631 b 132 569 239 633 181 608 l 133 571 l 114 557 b -443 235 -64 426 -279 268 b -656 258 -529 219 -601 228 b -736 360 -694 283 -721 318 b -729 500 -749 400 -747 450 b -596 681 -707 558 -662 622 b -593 694 -593 686 -589 690 b -606 693 -594 697 -601 696 b -743 501 -676 629 -724 563 b -750 350 -762 449 -765 394 b -662 246 -737 308 -708 268 b -444 218 -608 215 -533 201 b 72 510 -290 250 -94 386 b 26 431 51 485 38 457 b 115 196 -22 317 -1 194 b 282 379 183 197 251 324 b 321 192 267 335 229 188 b 426 263 363 193 403 238 b 551 417 474 313 524 381 b 550 426 551 419 553 424 b 539 425 546 428 543 428 b 418 271 511 386 463 321 b 331 207 372 222 344 204 b 351 386 297 214 325 318 b 472 640 394 489 454 604 b 400 632 432 636 465 640 z m 379 586 b 274 383 343 518 311 447 b 118 207 207 265 154 207 b 96 415 24 207 72 371 b 303 618 136 493 207 603 b 379 586 328 622 368 607 z "},"":{"ha":425,"x_min":0,"x_max":0,"o":"m -10 318 b 74 181 -25 239 -17 183 b 165 197 106 179 136 186 b 463 417 294 224 378 296 b 460 425 463 419 464 424 b 453 424 458 428 454 426 b 211 222 374 317 310 254 b 329 351 261 253 301 300 b 256 617 396 475 390 619 b 108 471 200 615 144 531 b 433 1114 185 638 357 947 b 364 1104 396 1110 425 1114 l 349 1094 b -211 772 168 964 -46 806 b -421 796 -294 757 -368 765 b -501 897 -460 821 -486 856 b -494 1038 -515 938 -514 988 b -362 1218 -472 1096 -429 1160 b -358 1232 -358 1224 -356 1228 b -371 1231 -360 1235 -368 1233 b -508 1039 -442 1167 -489 1100 b -515 888 -528 986 -532 932 b -428 783 -503 846 -474 806 b -211 756 -375 753 -300 739 b 349 1078 -43 790 169 947 b -10 318 258 907 14 454 z m 46 310 b 251 606 68 383 178 606 b 261 371 333 606 319 482 b 68 194 214 285 143 206 b 46 310 19 186 29 253 z "},"":{"ha":358,"x_min":0,"x_max":0,"o":"m 19 415 b 169 201 -25 288 17 149 b 324 322 228 221 282 271 b 396 417 353 358 379 394 b 393 426 396 419 396 424 b 383 425 390 428 386 428 b 313 331 367 400 342 365 b 167 213 278 286 221 233 b 94 415 22 156 61 336 b 272 618 124 482 188 604 b 344 590 296 622 332 608 b 354 597 346 589 354 594 b 106 550 281 671 179 626 b -443 235 -71 421 -281 267 b -656 258 -529 219 -601 228 b -736 360 -694 283 -721 318 b -729 500 -749 400 -747 450 b -596 681 -707 558 -662 622 b -593 694 -593 686 -589 690 b -606 693 -594 697 -601 696 b -743 501 -676 629 -724 563 b -750 350 -762 449 -765 394 b -662 246 -737 308 -708 268 b -444 218 -608 215 -533 201 b 67 506 -292 250 -99 383 b 19 415 46 476 28 444 z "},"":{"ha":496,"x_min":0,"x_max":0,"o":"m 369 599 b 282 632 349 619 304 632 b 86 538 206 635 138 593 b -443 235 -83 411 -286 267 b -656 258 -529 219 -601 228 b -736 360 -694 283 -721 318 b -729 500 -749 400 -747 450 b -596 681 -707 558 -662 622 b -593 694 -593 686 -589 690 b -606 693 -594 697 -601 696 b -743 501 -676 629 -724 563 b -750 350 -762 449 -765 394 b -662 246 -737 308 -708 268 b -444 218 -608 215 -533 201 b 57 499 -294 250 -106 378 b 24 431 43 476 31 453 b 132 196 -12 317 14 194 b 283 379 199 197 258 324 b 338 192 274 335 247 188 b 439 263 378 193 417 238 b 535 417 482 313 507 381 b 532 426 535 419 535 424 b 522 425 529 428 525 428 b 429 271 494 386 469 321 b 346 207 386 222 361 204 b 354 386 313 214 333 318 b 454 640 388 489 440 604 l 658 1115 b 589 1107 619 1111 651 1115 b 379 619 557 1032 433 751 z m 365 586 b 276 383 336 518 310 447 b 135 207 217 265 169 207 b 96 415 40 207 76 371 b 288 618 131 493 193 603 b 365 586 313 622 354 607 z "},"":{"ha":361,"x_min":0,"x_max":0,"o":"m 21 415 b 168 196 -24 288 13 144 b 399 418 258 228 342 340 b 397 426 400 421 399 425 b 386 425 394 429 390 428 b 168 213 332 350 257 247 b 113 451 7 150 74 374 b 357 539 182 433 329 454 b 271 633 379 601 331 633 b 225 626 257 633 240 631 b 93 543 172 611 131 581 b -443 235 -79 415 -283 267 b -656 258 -529 219 -601 228 b -736 360 -694 283 -721 318 b -729 500 -749 400 -747 450 b -596 681 -707 558 -662 622 b -593 694 -593 686 -589 690 b -606 693 -594 697 -601 696 b -743 501 -676 629 -724 563 b -750 350 -762 449 -765 394 b -662 246 -737 308 -708 268 b -444 218 -608 215 -533 201 b 64 503 -292 250 -101 382 b 21 415 46 475 31 446 z m 235 604 b 344 543 290 636 371 614 b 119 464 321 467 182 449 b 235 604 142 510 186 574 z "},"":{"ha":314,"x_min":0,"x_max":0,"o":"m 96 464 b 421 971 263 563 386 785 b 385 1106 432 1046 417 1100 b 28 442 294 1124 144 786 b -525 124 -147 311 -361 157 b -736 147 -611 108 -682 117 b -818 249 -775 172 -803 207 b -810 389 -831 289 -828 339 b -678 569 -787 447 -744 511 b -674 583 -674 575 -671 579 b -686 582 -675 586 -683 585 b -824 390 -758 518 -804 451 b -831 239 -843 338 -847 283 b -744 135 -818 197 -789 157 b -526 107 -689 104 -614 90 b 19 419 -361 142 -153 290 l 0 354 b -168 -265 -96 76 -169 -190 b 107 -47 -151 -476 89 -256 b 22 218 113 50 100 156 l 24 218 b 351 418 76 226 256 226 b 347 426 353 422 349 425 b 339 424 344 428 340 426 b 21 231 247 238 72 238 b 11 229 17 231 13 229 b 96 464 24 269 51 346 z m 10 215 b 94 -47 86 154 100 49 b -126 -264 78 -239 -142 -451 b 10 215 -117 -137 -7 164 z m 99 485 b 388 1078 122 549 319 1086 b 407 972 410 1075 415 1031 b 99 485 382 808 246 569 z "},"":{"ha":513,"x_min":0,"x_max":0,"o":"m 281 375 b 221 175 267 314 240 233 b 22 -385 -137 -44 -110 -435 b 299 185 103 -354 208 -96 b 551 417 381 221 499 340 b 540 424 557 422 546 429 b 304 203 489 350 383 242 b 421 636 347 346 382 492 b 351 629 400 633 374 631 b 342 594 350 617 346 606 b 249 628 319 615 272 628 b 108 575 193 629 146 608 l 100 568 b -458 246 -78 438 -293 279 b -671 269 -544 231 -615 239 b -750 371 -710 294 -736 329 b -744 511 -762 411 -762 461 b -610 692 -722 569 -676 633 b -606 706 -607 697 -604 701 b -619 704 -610 708 -617 707 b -758 513 -690 640 -737 574 b -765 361 -778 460 -781 406 b -678 257 -751 319 -722 279 b -460 229 -624 226 -549 213 b 67 528 -303 263 -101 401 b 21 426 46 496 29 461 b 43 243 7 360 11 289 b 235 269 96 169 181 174 b 281 375 257 307 271 349 z m 338 582 b 272 379 318 514 297 443 b 228 283 257 340 243 310 b 82 267 186 207 111 156 b 90 411 69 318 81 385 b 260 614 118 489 167 599 b 338 582 282 618 325 601 z m 217 156 b 13 -344 171 17 71 -282 b 217 156 -68 -439 -118 -57 z "},"":{"ha":451,"x_min":0,"x_max":0,"o":"m 306 1108 l 288 1094 b -272 772 107 964 -107 806 b -482 796 -356 757 -429 765 b -562 897 -521 821 -547 856 b -556 1038 -576 938 -575 988 b -424 1218 -533 1096 -490 1160 b -419 1232 -419 1224 -417 1228 b -432 1231 -421 1235 -429 1233 b -569 1039 -503 1167 -550 1100 b -576 888 -589 986 -593 932 b -489 783 -564 846 -535 806 b -272 756 -436 753 -361 739 b 296 1083 -104 792 114 951 l 117 658 l -64 196 l 3 194 l 124 501 b 313 621 158 539 268 640 b 324 601 321 618 325 613 b 304 529 325 586 315 560 b 286 190 282 464 151 183 b 490 417 367 193 443 354 b 478 425 494 424 483 432 b 297 207 450 385 344 199 b 285 267 274 211 282 250 b 363 521 304 351 346 432 b 357 599 367 549 367 575 b 315 638 347 624 332 635 b 139 540 258 649 182 579 l 385 1126 z "},"":{"ha":244,"x_min":0,"x_max":0,"o":"m 104 626 b -454 304 -74 496 -287 338 b -665 328 -540 289 -611 297 b -746 429 -703 353 -732 388 b -740 569 -758 469 -757 519 b -606 750 -717 628 -672 692 b -601 764 -603 756 -600 760 b -614 763 -606 767 -612 765 b -753 571 -686 699 -733 632 b -761 419 -774 518 -775 464 b -674 315 -747 378 -717 338 b -454 288 -619 285 -543 271 b 110 613 -285 324 -69 482 b 6 210 54 507 -50 288 b 50 190 15 197 29 190 b 158 261 90 192 133 236 b 281 417 204 311 253 381 b 278 425 282 419 282 424 b 271 424 276 428 272 426 b 149 271 242 385 193 319 b 60 207 103 221 75 204 b 197 649 -8 219 172 592 l 124 640 z m 193 774 b 151 735 168 768 149 750 b 201 715 156 718 176 710 b 243 756 228 721 244 739 b 193 774 240 771 217 779 z "},"":{"ha":226,"x_min":0,"x_max":0,"o":"m 69 621 b -487 299 -107 490 -321 332 b -699 322 -574 283 -644 292 b -779 424 -739 347 -765 382 b -774 564 -792 464 -790 514 b -639 744 -750 622 -707 686 b -636 758 -636 750 -633 754 b -647 757 -639 761 -646 760 b -786 565 -721 693 -767 626 b -794 414 -807 513 -810 458 b -707 310 -781 372 -750 332 b -489 282 -653 279 -576 265 b 78 610 -318 318 -101 478 l 79 610 b -57 181 32 468 -6 322 b -281 -379 -437 -39 -425 -429 b 19 190 -197 -349 -78 -90 b 264 417 100 226 211 340 b 261 425 264 419 265 424 b 253 424 258 428 254 426 b 28 208 201 350 104 247 b 158 642 72 351 113 497 b 89 635 136 639 111 636 z m -61 161 b -290 -339 -114 22 -225 -276 b -61 161 -385 -433 -417 -51 z m 139 768 b 103 728 114 763 99 744 b 157 710 110 713 133 704 b 192 749 182 715 197 733 b 139 768 185 765 164 774 z "},"":{"ha":467,"x_min":0,"x_max":0,"o":"m 351 1108 l 333 1094 b -226 772 153 964 -61 806 b -436 796 -310 757 -383 765 b -517 897 -475 821 -501 856 b -510 1038 -531 938 -529 988 b -378 1218 -487 1096 -444 1160 b -374 1232 -374 1224 -371 1228 b -386 1231 -375 1235 -383 1233 b -524 1039 -457 1167 -504 1100 b -531 888 -543 986 -547 932 b -443 783 -518 846 -489 806 b -226 756 -390 753 -315 739 b 339 1082 -58 792 158 950 l 133 658 l -79 196 l -11 194 l 129 501 b 326 621 167 539 283 640 b 336 601 335 618 338 613 b 313 529 336 586 324 560 b 271 190 285 464 135 183 b 381 263 311 192 356 235 b 504 417 428 313 476 381 b 493 425 510 424 499 432 b 283 207 465 385 331 199 b 275 267 260 211 271 250 b 368 521 300 351 347 432 b 369 599 375 549 378 575 b 331 638 361 624 347 635 b 240 611 304 643 271 631 b 525 747 335 694 443 769 b 533 753 529 747 532 749 b 529 760 533 756 532 758 b 151 549 415 790 264 651 b 149 542 150 546 147 543 l 147 540 l 432 1126 z "},"":{"ha":242,"x_min":0,"x_max":0,"o":"m 308 1097 b -250 775 129 967 -86 808 b -461 799 -336 760 -407 768 b -542 900 -501 824 -528 858 b -536 1040 -554 940 -553 990 b -401 1221 -514 1099 -468 1163 b -397 1235 -399 1226 -396 1231 b -411 1233 -401 1238 -408 1236 b -550 1042 -482 1169 -529 1103 b -557 890 -569 989 -572 935 b -469 786 -543 849 -514 808 b -251 758 -415 756 -339 742 b 313 1085 -82 794 133 953 b 7 382 256 964 35 472 b 3 211 -12 313 -21 247 b 50 193 14 199 26 192 b 154 264 90 194 133 239 b 278 417 200 314 250 381 b 265 421 282 425 276 436 b 146 272 236 382 190 319 b 60 208 101 224 74 206 b 71 371 29 214 40 286 b 397 1119 111 483 383 1088 b 326 1111 360 1115 389 1119 z "},"":{"ha":649,"x_min":0,"x_max":0,"o":"m 249 251 b 351 539 275 315 344 468 b 507 618 404 581 474 632 b 515 599 511 615 515 610 b 490 526 514 583 503 557 b 451 188 463 461 314 181 b 682 414 531 190 639 353 b 674 422 688 421 678 429 b 463 204 643 382 510 196 b 453 264 440 208 449 247 b 546 518 478 349 525 429 b 547 596 554 546 556 572 b 510 635 539 621 526 632 b 356 561 464 644 401 600 b 310 635 353 590 346 629 b 138 550 264 643 181 585 b 181 657 158 604 176 646 l 113 649 l 93 635 b -464 313 -85 504 -299 346 b -676 336 -550 297 -622 306 b -756 438 -715 361 -742 396 b -750 578 -769 478 -768 528 b -617 758 -728 636 -683 700 b -614 772 -612 764 -610 768 b -625 771 -615 775 -622 774 b -764 579 -697 707 -743 640 b -771 428 -783 526 -786 472 b -683 324 -758 386 -728 346 b -465 296 -629 293 -554 279 b 100 622 -294 332 -79 490 b -67 181 61 529 -33 274 l -1 183 b 122 513 21 253 78 400 b 307 618 171 556 267 635 b 317 599 313 615 317 610 b 176 251 314 583 304 557 z "},"":{"ha":450,"x_min":0,"x_max":0,"o":"m 0 183 b 124 513 22 253 79 400 b 308 618 172 556 268 635 b 318 599 314 615 318 610 b 293 526 315 583 306 557 b 253 188 264 461 117 181 b 363 260 293 189 335 232 b 485 414 407 310 458 378 b 475 422 490 421 479 429 b 264 204 444 382 311 196 b 254 264 243 208 251 247 b 349 518 281 349 328 429 b 350 596 357 546 358 572 b 311 635 342 621 328 632 b 139 550 265 643 182 585 b 182 657 160 604 178 646 l 114 649 l 94 635 b -462 313 -83 504 -297 346 b -675 336 -549 297 -621 306 b -754 438 -714 361 -740 396 b -749 578 -768 478 -767 528 b -615 758 -726 636 -682 700 b -612 772 -611 764 -608 768 b -624 771 -614 775 -621 774 b -762 579 -696 707 -742 640 b -769 428 -782 526 -785 472 b -682 324 -757 386 -726 346 b -464 296 -628 293 -553 279 b 101 622 -293 332 -78 490 b -65 181 63 529 -32 274 z "},"":{"ha":454,"x_min":0,"x_max":0,"o":"m 296 342 b 326 529 328 403 342 472 b 239 588 314 568 281 588 b 97 528 189 589 135 560 b -446 217 -78 399 -285 249 b -656 240 -531 201 -603 210 b -737 342 -694 265 -722 300 b -731 482 -750 382 -749 432 b -597 663 -707 540 -664 604 b -593 676 -594 668 -590 672 b -606 675 -594 679 -603 678 b -743 483 -678 611 -724 544 b -750 332 -762 431 -767 376 b -664 228 -737 290 -708 250 b -446 200 -610 197 -535 183 b 56 479 -296 232 -108 360 b 11 392 36 451 21 422 b 146 200 -29 276 8 153 b 289 329 204 219 254 269 l 292 329 b 492 417 369 318 453 358 b 481 422 492 417 488 428 b 296 342 436 365 367 332 z m 314 525 b 285 343 331 469 317 403 b 175 490 203 358 167 407 b 146 486 176 510 147 500 b 279 332 139 401 204 347 b 143 210 244 276 197 231 b 79 392 13 158 49 321 b 124 476 90 421 106 450 b 239 575 157 528 199 568 b 314 525 276 581 304 557 z "},"":{"ha":438,"x_min":0,"x_max":0,"o":"m 60 590 b -499 268 -117 460 -332 301 b -708 292 -583 253 -654 261 b -790 393 -747 317 -775 351 b -783 533 -803 433 -800 483 b -650 714 -760 592 -717 656 b -646 728 -647 719 -643 724 b -658 726 -649 731 -656 729 b -796 535 -731 663 -778 596 b -804 383 -817 482 -819 428 b -717 279 -792 342 -761 301 b -499 251 -664 249 -586 235 b 68 579 -328 288 -110 447 l 72 581 b -226 -383 -17 300 -121 -61 l -157 -379 b 29 182 -92 -201 -43 -36 b 238 172 71 128 169 136 b 476 417 331 222 424 329 b 472 426 478 421 475 424 b 463 425 469 428 465 428 b 242 199 399 313 325 243 b 336 342 286 235 319 290 b 219 599 385 469 353 613 b 104 458 169 594 128 518 b 153 618 118 511 136 564 b 79 604 131 613 101 608 z m 61 278 b 217 589 74 353 143 582 b 265 356 300 594 304 471 b 61 278 228 249 35 39 z "},"":{"ha":617,"x_min":0,"x_max":0,"o":"m 300 271 b 439 583 344 375 390 478 l 467 639 b 389 631 442 636 413 631 b 374 597 383 619 378 608 b 286 629 351 617 310 629 b 122 568 222 631 168 607 l 114 563 b -443 240 -64 432 -278 274 b -656 264 -529 225 -600 233 b -735 365 -694 289 -721 324 b -729 506 -749 406 -747 456 b -596 686 -707 564 -662 628 b -592 700 -592 692 -589 696 b -604 699 -594 703 -601 701 b -743 507 -676 635 -722 568 b -750 356 -762 454 -765 400 b -662 251 -737 314 -707 274 b -444 224 -608 221 -533 207 b 72 514 -290 256 -94 390 b 21 417 50 483 32 450 b 82 199 -12 319 0 221 b 251 318 168 175 213 258 b 82 -203 153 79 83 -133 b 374 -21 81 -417 342 -228 b 310 258 389 76 382 185 b 522 297 393 257 461 265 b 654 417 568 322 610 354 b 640 418 654 422 644 425 b 311 271 517 251 356 271 z m 293 257 b 361 -19 368 185 376 76 b 121 -207 331 -210 94 -393 b 293 257 140 -81 272 208 z m 368 586 b 272 381 335 518 308 446 b 92 214 246 331 167 167 b 92 418 47 242 53 331 b 292 615 131 513 207 603 b 368 586 317 619 356 604 z "},"":{"ha":415,"x_min":0,"x_max":0,"o":"m 174 642 b -314 222 24 482 -154 286 b -526 203 -396 190 -468 183 b -628 285 -569 219 -604 247 b -647 422 -647 322 -656 371 b -551 624 -636 483 -607 554 b -550 639 -550 631 -547 635 b -562 635 -553 640 -561 638 b -661 421 -621 558 -654 485 b -639 274 -672 367 -662 313 b -531 189 -617 235 -581 203 b -311 206 -474 171 -394 172 b 182 631 -150 272 29 468 b 181 394 261 524 254 576 b 332 265 101 199 179 99 b 454 419 378 315 429 383 b 444 428 460 425 451 435 b 324 274 417 389 368 324 b 207 208 254 199 217 192 b 271 432 186 238 239 358 b 193 643 339 575 281 536 b 251 749 208 667 244 713 b 132 732 264 824 135 803 b 157 669 132 713 144 690 z m 185 654 b 146 733 169 672 144 703 b 239 749 146 788 250 806 b 185 654 233 717 197 672 z "},"":{"ha":304,"x_min":0,"x_max":0,"o":"m 142 581 b -428 251 -47 443 -262 285 b -639 275 -514 236 -585 244 b -719 376 -678 300 -706 335 b -714 517 -732 417 -731 467 b -579 697 -690 575 -646 639 b -575 711 -576 703 -574 707 b -589 710 -579 714 -586 713 b -728 518 -660 646 -707 579 b -735 367 -747 465 -749 411 b -647 263 -721 325 -692 285 b -428 235 -593 232 -517 218 b 138 563 -258 271 -40 431 b 153 444 139 513 147 476 b 133 268 164 386 175 332 b 21 207 115 236 61 176 b 72 346 -29 247 35 317 b 74 356 75 349 78 353 b 64 357 72 358 68 358 b 13 196 19 322 -47 243 b 218 261 75 147 171 211 b 342 415 265 311 314 379 b 339 425 344 418 343 422 b 332 424 338 426 333 426 b 208 269 303 385 254 319 b 163 225 190 250 176 235 b 190 260 172 236 181 249 b 207 454 233 332 221 389 b 213 604 199 500 185 560 b 269 601 251 665 315 647 b 269 592 267 599 267 594 b 278 592 271 589 275 589 b 296 635 294 608 300 624 b 142 581 286 678 189 674 z "},"":{"ha":242,"x_min":0,"x_max":0,"o":"m 397 1106 b 328 1097 360 1101 385 1103 l 331 1104 l 311 1090 b 107 946 246 1043 178 993 l 74 946 l 74 933 l 89 933 b -247 768 -28 854 -149 788 b -460 792 -333 753 -406 761 b -539 893 -497 817 -525 851 b -533 1033 -551 933 -551 983 b -399 1214 -511 1092 -467 1156 b -396 1228 -396 1219 -393 1224 b -408 1226 -399 1231 -406 1229 b -547 1035 -479 1163 -526 1096 b -554 883 -567 982 -569 928 b -467 779 -540 842 -511 801 b -249 751 -412 749 -337 735 b 114 933 -140 774 -11 849 l 249 933 b 8 382 161 743 29 450 b 6 211 -11 313 -19 247 b 51 193 15 199 29 192 b 156 264 92 194 135 239 b 281 417 201 314 251 381 b 267 421 285 425 278 436 b 149 272 238 382 192 319 b 61 208 103 224 75 206 b 78 372 31 214 47 286 b 322 933 106 447 235 742 l 771 935 l 772 947 l 326 946 z m 131 946 b 313 1075 192 988 256 1032 l 253 946 z "},"":{"ha":488,"x_min":0,"x_max":0,"o":"m 104 619 b -454 297 -74 489 -289 331 b -667 321 -540 282 -611 290 b -746 422 -704 346 -732 381 b -740 563 -758 463 -758 513 b -606 743 -718 621 -672 685 b -601 757 -603 749 -600 753 b -615 756 -606 760 -612 758 b -754 564 -686 692 -733 625 b -761 413 -774 511 -775 457 b -674 308 -747 371 -718 331 b -454 281 -619 278 -544 264 b 107 606 -286 317 -71 474 b 4 210 53 501 -51 288 b 50 192 14 197 28 190 b 156 263 90 193 132 238 b 253 382 190 299 226 346 b 250 210 232 311 224 246 b 296 192 260 197 274 190 b 401 263 336 193 378 238 b 525 417 449 313 499 381 b 524 426 526 419 526 424 b 514 425 521 428 517 428 b 393 271 486 386 438 321 b 304 207 346 222 319 204 b 439 642 235 219 415 586 b 367 633 400 638 428 642 b 268 422 342 589 300 508 b 147 271 238 382 192 319 b 58 207 100 222 74 204 b 196 642 -8 219 172 586 b 124 633 158 639 185 642 z "},"":{"ha":504,"x_min":0,"x_max":0,"o":"m 104 626 b -454 304 -74 496 -287 338 b -665 328 -540 289 -611 297 b -746 429 -703 353 -732 388 b -740 569 -758 469 -757 519 b -606 750 -717 628 -672 692 b -601 764 -603 756 -600 760 b -614 763 -606 767 -612 765 b -753 571 -686 699 -733 632 b -761 419 -774 518 -775 464 b -674 315 -747 378 -717 338 b -454 288 -619 285 -543 271 b 110 613 -285 324 -69 482 b 6 208 54 507 -51 286 b 99 190 26 181 65 176 b 194 261 139 206 175 243 b 300 392 231 301 271 354 b 543 418 356 288 483 325 l 531 425 b 308 404 476 342 360 299 b 401 540 342 450 371 490 b 458 671 432 594 449 638 b 331 719 486 786 403 808 b 282 617 310 693 294 658 b 293 406 265 550 267 467 b 183 269 263 367 224 313 b 97 201 175 260 132 217 b 44 224 72 190 50 197 b 196 647 31 301 174 599 b 124 640 158 644 185 647 z m 303 417 b 296 614 279 476 279 553 b 340 710 304 654 321 686 b 444 674 403 789 471 776 b 389 546 436 642 419 599 b 303 417 360 497 336 463 z "},"":{"ha":749,"x_min":0,"x_max":0,"o":"m 372 650 b 265 419 347 600 296 500 b 146 269 238 381 192 317 b 58 206 101 219 74 203 b 199 643 -10 218 172 588 b 122 635 160 639 188 643 l 103 621 b -454 299 -75 490 -287 332 b -665 322 -540 283 -611 292 b -746 424 -706 347 -732 382 b -740 564 -758 464 -757 514 b -606 744 -717 622 -674 686 b -603 758 -603 750 -600 754 b -614 757 -606 761 -612 760 b -753 565 -687 693 -733 626 b -761 414 -774 513 -776 458 b -674 310 -747 372 -717 332 b -456 282 -619 279 -543 265 b 110 607 -285 318 -69 476 b 6 208 54 501 -53 285 b 50 189 14 196 29 188 b 156 260 89 190 133 235 b 253 381 189 297 226 343 b 236 307 244 354 239 329 b 251 208 231 267 232 231 b 346 189 271 179 308 175 b 439 260 383 206 422 242 b 544 392 475 300 515 354 b 681 335 572 338 618 315 b 788 417 724 349 760 383 l 776 425 b 676 347 751 393 717 360 b 553 403 619 328 579 353 b 646 540 586 450 617 489 b 703 671 676 593 693 636 b 576 718 731 786 647 807 b 526 615 556 692 539 658 b 538 404 510 549 511 467 b 428 269 508 365 468 311 b 342 200 418 258 379 215 b 289 224 317 190 294 196 b 447 661 276 299 417 593 z m 547 417 b 540 614 524 475 524 551 b 585 710 549 653 567 685 b 689 674 647 789 715 775 b 635 546 682 640 664 599 b 547 417 606 496 579 461 z "},"":{"ha":481,"x_min":0,"x_max":0,"o":"m 69 651 l 50 638 b -508 315 -126 507 -342 349 b -718 339 -593 300 -665 308 b -800 440 -757 364 -786 399 b -792 581 -812 481 -811 531 b -660 761 -769 639 -726 703 b -656 775 -657 767 -653 771 b -668 774 -658 778 -665 776 b -807 582 -740 710 -786 643 b -812 431 -825 529 -829 475 b -726 326 -800 389 -771 349 b -508 299 -672 296 -597 282 b 58 626 -339 335 -119 494 l 71 636 b 74 633 71 635 74 633 b 140 375 85 578 113 454 b -61 189 72 311 0 249 l -56 179 b 144 364 8 239 76 300 b 279 186 167 304 214 189 b 518 415 353 182 476 361 b 507 424 522 422 513 431 b 408 297 492 403 450 347 b 293 219 383 269 335 203 b 189 406 253 236 218 317 b 414 632 269 482 347 560 l 406 642 b 186 418 340 569 265 493 b 133 632 167 481 146 579 z "},"":{"ha":479,"x_min":0,"x_max":0,"o":"m 78 618 b -481 296 -100 488 -315 329 b -692 319 -565 281 -639 289 b -772 421 -731 344 -758 379 b -765 561 -786 461 -785 511 b -632 742 -743 619 -700 683 b -629 756 -629 747 -626 751 b -642 754 -632 758 -637 757 b -781 563 -712 690 -760 624 b -786 411 -800 510 -803 456 b -699 307 -774 369 -744 329 b -482 279 -646 276 -571 263 b -128 454 -376 301 -250 372 b 88 607 -57 503 11 560 b 28 218 44 504 -39 297 b 72 200 38 206 51 199 b 171 271 113 201 151 246 b 251 382 199 304 226 347 b 185 181 229 315 210 247 b -33 -379 -190 -39 -178 -429 b 263 190 49 -349 164 -90 b 517 417 346 226 464 340 b 506 424 519 424 511 431 b 271 208 454 350 350 247 b 403 642 318 351 357 497 b 333 635 381 639 356 636 b 268 436 308 569 289 503 l 267 431 b 81 215 242 390 126 207 b 171 640 10 228 149 583 l 96 632 z m 179 161 b -43 -339 129 22 19 -276 b 179 161 -136 -433 -171 -51 z "},"":{"ha":522,"x_min":0,"x_max":0,"o":"m 158 672 b 175 644 163 663 168 653 b -392 317 -11 508 -226 350 b -604 340 -478 301 -550 310 b -683 442 -642 365 -669 400 b -678 582 -697 482 -696 532 b -543 763 -654 640 -611 704 b -540 776 -540 768 -539 772 b -553 775 -543 779 -550 778 b -692 583 -624 711 -671 644 b -699 432 -711 531 -714 476 b -611 328 -685 390 -656 350 b -393 300 -557 297 -482 283 b 182 635 -224 336 -6 496 b 258 500 218 589 271 558 b 172 357 246 451 204 408 b 254 181 128 283 304 361 b -247 -249 64 71 -175 -21 b -111 -372 -282 -354 -206 -394 b 324 210 103 -318 293 14 b 556 414 415 269 481 332 l 546 419 b 326 225 471 340 414 281 b 235 343 332 281 286 331 b 306 503 281 429 307 465 b 194 646 301 575 239 590 b 253 751 210 669 244 715 b 133 735 265 826 135 806 b 158 672 132 715 143 693 z m -118 -335 b -236 -250 -196 -367 -267 -347 b 249 165 -167 -33 65 61 b -118 -335 199 14 47 -264 z m 186 656 b 147 736 171 674 147 706 b 239 751 149 790 250 808 b 186 656 232 719 197 674 z "},"":{"ha":514,"x_min":0,"x_max":0,"o":"m 369 225 b 331 207 351 211 339 206 b 351 386 297 214 325 318 b 472 640 394 489 454 604 b 400 632 432 636 465 640 l 383 597 b 297 632 364 619 321 631 b 26 431 179 636 68 532 b 115 196 -22 317 -1 194 b 282 379 183 197 251 324 b 321 192 267 335 229 188 b 368 210 336 192 353 199 b 882 496 539 335 726 465 b 1093 472 967 511 1039 503 b 1174 371 1132 447 1158 413 b 1167 231 1186 331 1186 281 b 1033 50 1144 172 1100 108 b 1029 36 1031 44 1026 40 b 1043 38 1032 33 1039 35 b 1181 229 1114 101 1161 168 b 1188 381 1200 282 1203 336 b 1100 485 1175 422 1146 463 b 882 513 1047 515 972 529 b 369 225 732 482 536 346 z m 379 586 b 274 383 343 518 311 447 b 118 207 207 265 154 207 b 96 415 24 207 72 371 b 303 618 136 493 207 603 b 379 586 328 622 368 607 z "},"":{"ha":425,"x_min":0,"x_max":0,"o":"m 211 222 b 253 250 226 229 242 239 b 735 481 417 357 592 460 b 943 444 821 490 892 478 b 1019 339 982 418 1007 382 b 1006 199 1031 297 1026 247 b 863 25 979 142 932 81 b 858 11 860 19 854 15 b 871 13 860 8 867 10 b 1019 197 944 72 996 136 b 1032 347 1040 249 1047 303 b 954 457 1024 390 996 432 b 736 497 900 490 826 508 b 286 285 607 476 440 382 b 329 351 303 306 317 328 b 256 617 396 475 390 619 b 108 471 200 615 144 531 b 433 1114 185 638 357 947 b 363 1106 396 1110 426 1114 b -10 318 289 963 15 463 b 74 181 -25 239 -17 183 b 211 222 106 179 186 208 z m 46 310 b 251 606 68 383 178 606 b 261 371 333 606 319 482 b 68 194 214 285 143 206 b 46 310 19 186 29 253 z "},"":{"ha":358,"x_min":0,"x_max":0,"o":"m 736 532 b 368 335 604 508 485 422 b 167 213 301 285 233 238 b 94 415 22 156 61 336 b 143 510 108 447 125 481 b 344 590 192 581 288 672 b 354 597 346 589 354 594 b 19 415 242 711 61 543 b 169 201 -25 288 17 149 b 375 325 238 225 308 275 b 738 519 494 411 588 489 b 1028 390 850 543 986 514 b 1021 250 1040 350 1039 300 b 888 69 997 192 954 128 b 883 56 885 64 881 60 b 896 57 886 53 893 54 b 1033 249 968 121 1015 188 b 1042 400 1054 301 1056 356 b 736 532 1001 522 860 554 z "},"":{"ha":496,"x_min":0,"x_max":0,"o":"m 919 583 b 557 364 788 549 668 463 b 346 207 476 293 369 203 b 354 386 313 214 333 318 b 454 640 388 489 440 604 l 658 1115 b 589 1107 619 1111 651 1115 b 379 619 557 1032 433 751 l 369 599 b 282 632 349 619 304 632 b 24 431 163 636 60 532 b 132 196 -12 317 14 194 b 283 379 199 197 258 324 b 338 192 274 335 246 186 b 567 354 385 194 486 283 b 921 567 668 443 778 528 b 1133 557 1004 590 1078 585 b 1219 461 1175 535 1203 501 b 1224 322 1236 422 1238 372 b 1100 133 1203 263 1164 196 b 1099 119 1097 128 1096 124 b 1111 122 1101 117 1107 118 b 1236 321 1178 190 1221 258 b 1235 472 1253 375 1253 429 b 1139 569 1218 513 1186 551 b 919 583 1085 597 1007 606 z m 365 586 b 276 383 336 518 310 447 b 135 207 217 265 169 207 b 96 415 40 207 76 371 b 288 618 131 493 193 603 b 365 586 313 622 354 607 z "},"":{"ha":361,"x_min":0,"x_max":0,"o":"m 944 681 b 363 358 701 749 529 525 b 168 213 299 296 235 240 b 113 451 7 150 74 374 b 357 539 182 433 329 454 b 271 633 379 601 331 633 b 225 626 257 633 240 631 b 21 415 124 597 53 510 b 168 196 -24 288 13 144 b 371 347 236 219 304 279 b 946 664 506 482 718 740 b 1063 449 1035 633 1076 547 b 965 246 1053 388 1021 317 b 976 236 963 236 965 225 b 1078 450 1036 313 1068 386 b 944 681 1092 550 1046 649 z m 235 604 b 344 543 290 636 371 614 b 119 464 321 467 182 449 b 235 604 142 510 186 574 z "},"":{"ha":314,"x_min":0,"x_max":0,"o":"m 135 238 b 392 426 228 264 311 342 b 738 700 508 550 614 658 b 1035 624 838 733 971 726 b 958 285 1093 518 1035 388 b 971 275 957 275 958 264 b 1046 636 1043 369 1117 519 b 731 714 989 738 843 754 b 386 436 607 671 501 558 b 133 250 307 353 225 275 b 21 231 83 236 43 233 b 11 229 17 231 13 229 b 96 464 24 269 51 346 b 421 971 263 563 386 785 b 385 1106 432 1046 417 1100 b 0 354 288 1125 119 728 b -168 -265 -96 76 -169 -190 b 107 -47 -151 -476 89 -256 b 22 218 113 50 100 156 l 24 218 b 135 238 43 222 88 224 z m 10 215 b 94 -47 86 154 100 49 b -126 -264 78 -239 -142 -451 b 10 215 -117 -137 -7 164 z m 99 475 b 388 1078 121 539 319 1086 b 407 972 410 1075 415 1031 b 99 475 382 808 246 560 z "},"":{"ha":513,"x_min":0,"x_max":0,"o":"m 1138 728 b 304 203 808 829 578 383 b 421 636 347 346 382 492 b 351 629 400 633 374 631 b 342 594 350 617 346 606 b 249 628 319 615 272 628 b 21 426 131 632 46 528 b 43 243 7 360 11 289 b 235 269 96 169 181 174 b 281 375 257 307 271 349 b 221 175 267 314 240 233 b 22 -385 -137 -44 -110 -435 b 299 185 103 -354 208 -96 b 1128 721 567 351 796 801 b 1158 293 1313 676 1271 419 b 1157 279 1157 288 1154 283 b 1169 283 1161 278 1168 281 b 1138 728 1275 421 1347 664 z m 338 582 b 272 379 318 514 297 443 b 228 283 257 340 243 310 b 82 267 186 207 111 156 b 90 411 69 318 81 385 b 260 614 118 489 167 599 b 338 582 282 618 325 601 z m 217 156 b 13 -344 171 17 71 -282 b 217 156 -68 -439 -118 -57 z "},"":{"ha":451,"x_min":0,"x_max":0,"o":"m 828 649 b 433 317 672 588 560 447 b 297 207 376 257 319 204 b 285 267 274 211 282 250 b 363 521 304 351 346 432 b 315 638 368 557 367 629 b 139 540 258 649 182 579 l 385 1126 l 306 1108 l 117 658 l -64 196 l 3 194 l 124 501 b 313 621 158 539 268 640 b 304 529 342 610 311 549 b 286 190 282 464 151 183 b 440 304 328 193 386 244 b 829 632 551 422 669 568 b 1043 651 913 665 985 671 b 1165 432 1133 619 1179 533 b 1068 229 1157 371 1124 300 b 1081 219 1067 219 1069 208 b 1179 433 1139 296 1171 369 b 1049 664 1193 532 1149 635 b 828 649 989 681 911 682 z "},"":{"ha":244,"x_min":0,"x_max":0,"o":"m 110 215 b 640 678 301 365 396 575 b 854 697 721 713 794 715 b 956 614 897 681 932 651 b 976 478 975 578 985 529 b 879 275 965 417 935 346 b 879 261 876 269 876 265 b 892 265 883 260 888 263 b 990 479 949 342 983 415 b 967 626 999 533 992 586 b 858 710 946 664 908 697 b 638 694 800 729 722 729 b 103 226 400 596 303 385 b 60 207 82 210 69 206 b 197 649 -8 219 172 592 l 124 640 b 6 210 76 550 -58 294 b 50 190 15 197 29 190 b 110 215 69 190 90 201 z m 193 774 b 151 735 168 768 149 750 b 201 715 156 718 176 710 b 243 756 228 721 244 739 b 193 774 240 771 217 779 z "},"":{"ha":226,"x_min":0,"x_max":0,"o":"m 618 700 b 28 208 425 621 218 350 b 158 642 72 351 113 497 b 89 635 136 639 111 636 b -57 181 36 486 -3 331 b -281 -379 -437 -39 -425 -429 b 19 190 -197 -349 -78 -90 b 619 683 225 318 422 613 b 935 619 728 721 864 733 b 957 483 954 583 964 535 b 860 281 944 422 914 351 b 858 267 857 275 856 271 b 871 271 863 265 867 268 b 969 485 928 347 963 421 b 946 632 978 539 971 592 b 618 700 883 742 736 743 z m -61 161 b -290 -339 -114 22 -225 -276 b -61 161 -385 -433 -417 -51 z m 139 768 b 103 728 114 763 99 744 b 157 710 110 713 133 704 b 192 749 182 715 197 733 b 139 768 185 765 164 774 z "},"":{"ha":467,"x_min":0,"x_max":0,"o":"m 368 267 b 283 207 333 231 301 204 b 275 267 260 211 271 250 b 368 521 300 351 347 432 b 369 599 375 549 378 575 b 331 638 361 624 347 635 b 240 611 304 643 271 631 b 525 747 335 694 443 769 b 533 753 529 747 532 749 b 529 760 533 756 532 758 b 151 549 415 790 264 651 b 149 542 150 546 147 543 l 147 540 l 432 1126 l 351 1108 l 133 658 l -79 196 l -11 194 l 129 501 b 326 621 167 539 283 640 b 336 601 335 618 338 613 b 313 529 336 586 324 560 b 271 190 285 464 135 183 b 374 256 308 192 347 228 b 825 633 519 411 678 572 b 1038 653 907 665 979 671 b 1138 569 1081 636 1117 607 b 1160 433 1158 533 1167 485 b 1063 231 1149 372 1118 301 b 1061 217 1061 225 1060 221 b 1075 221 1067 215 1072 218 b 1174 435 1133 297 1167 371 b 1150 582 1183 489 1175 542 b 1043 665 1129 619 1092 653 b 822 650 985 685 906 683 b 368 267 678 590 508 417 z "},"":{"ha":242,"x_min":0,"x_max":0,"o":"m 111 221 b 624 664 286 364 404 568 b 960 464 790 731 978 674 b 863 261 947 403 918 332 b 861 247 860 256 858 251 b 874 251 865 246 869 249 b 972 465 932 328 965 401 b 621 681 1006 671 804 753 b 103 229 411 593 283 379 b 60 208 82 213 68 207 b 71 371 29 214 40 286 b 397 1119 111 483 383 1088 b 326 1111 360 1115 389 1119 b 7 382 299 1060 38 481 b 3 211 -12 313 -21 247 b 50 193 14 199 26 192 b 111 221 71 194 92 206 z "},"":{"ha":649,"x_min":0,"x_max":0,"o":"m 451 188 b 567 264 488 189 529 221 b 738 438 622 324 679 382 b 1017 642 831 526 926 604 b 1231 661 1099 674 1174 679 b 1332 578 1275 644 1308 615 b 1354 442 1353 542 1361 493 b 1257 239 1342 381 1311 310 b 1256 225 1256 233 1253 229 b 1268 229 1260 224 1265 226 b 1368 443 1326 306 1360 379 b 1343 590 1375 497 1368 550 b 1235 674 1322 628 1285 661 b 1017 658 1176 693 1100 692 b 729 451 925 621 826 542 b 493 217 649 375 572 289 b 453 264 451 186 443 225 b 546 518 478 349 525 429 b 547 596 554 546 556 572 b 510 635 539 621 526 632 b 356 561 464 644 401 600 b 310 635 353 590 346 629 b 138 550 264 643 181 585 b 181 657 158 604 176 646 l 113 649 b -67 181 83 592 -31 285 l -1 183 b 122 513 21 253 78 400 b 307 618 171 556 267 635 b 317 599 313 615 317 610 b 176 251 314 583 304 557 l 249 251 b 351 539 275 315 344 468 b 507 618 404 581 474 632 b 515 599 511 615 515 610 b 490 526 514 583 503 557 b 451 188 463 461 315 182 z "},"":{"ha":450,"x_min":0,"x_max":0,"o":"m 1047 690 b 310 226 757 782 511 393 b 264 204 290 211 275 203 b 254 264 243 208 251 247 b 349 518 281 349 328 429 b 350 596 357 546 358 572 b 311 635 342 621 328 632 b 139 550 265 643 182 585 b 182 657 160 604 178 646 l 114 649 b -65 181 85 592 -29 285 l 0 183 b 124 513 22 253 79 400 b 308 618 172 556 268 635 b 318 599 314 615 318 610 b 293 526 315 583 306 557 b 253 188 264 461 117 181 b 317 214 276 188 297 197 b 1054 674 556 424 765 769 b 1164 458 1146 644 1175 561 b 1067 256 1153 397 1122 326 b 1067 242 1065 250 1064 246 b 1079 246 1071 240 1075 243 b 1178 460 1138 322 1171 396 b 1047 690 1193 560 1149 660 z "},"":{"ha":454,"x_min":0,"x_max":0,"o":"m 524 514 b 296 342 494 413 410 332 b 326 529 328 403 342 472 b 239 588 314 568 281 588 b 75 506 178 589 111 546 b 11 392 47 472 24 432 b 146 200 -29 276 8 153 b 289 329 204 219 254 269 b 536 511 408 313 506 401 b 525 650 553 561 543 611 b 417 749 504 693 465 728 b 189 775 360 776 282 786 b 178 767 185 774 181 771 b 190 760 182 763 185 761 b 410 738 278 771 351 760 b 508 646 454 717 489 683 b 524 514 526 606 533 561 z m 314 525 b 285 343 331 469 317 403 b 175 490 203 358 167 407 b 146 486 176 510 147 500 b 279 332 139 401 204 347 b 143 210 244 276 197 231 b 79 392 13 158 49 321 b 124 476 90 421 106 450 b 239 575 157 528 199 568 b 314 525 276 581 304 557 z "},"":{"ha":438,"x_min":0,"x_max":0,"o":"m 1028 676 b 299 233 742 767 507 392 b 242 199 281 221 263 208 b 336 342 286 235 319 290 b 219 599 385 469 353 613 b 104 458 169 594 128 518 b 153 618 118 511 136 564 b 79 604 131 613 101 608 b -226 -383 -11 319 -119 -53 l -157 -379 b 29 182 -92 -201 -43 -36 b 238 172 71 128 169 136 b 304 215 260 183 282 199 b 1024 664 507 378 744 756 b 1144 444 1113 636 1158 543 b 1049 242 1136 383 1104 313 b 1047 228 1046 236 1044 232 b 1060 232 1051 226 1057 229 b 1160 446 1118 308 1150 382 b 1028 676 1174 546 1129 646 z m 61 278 b 217 589 74 353 143 582 b 265 356 300 594 304 471 b 61 278 228 249 35 39 z "},"":{"ha":617,"x_min":0,"x_max":0,"o":"m 1389 522 b 1104 758 1417 692 1272 793 b 300 271 803 699 642 231 b 439 583 344 375 390 478 l 467 639 b 389 631 442 636 413 631 b 374 597 383 619 378 608 b 286 629 351 617 310 629 b 21 417 158 633 58 526 b 82 199 -12 319 0 221 b 251 318 168 175 213 258 b 82 -203 153 79 83 -133 b 374 -21 81 -417 342 -228 b 310 258 389 76 382 185 b 1115 747 638 213 811 696 b 1375 521 1265 771 1390 688 b 1278 318 1363 460 1333 389 b 1276 304 1276 313 1274 308 b 1289 308 1281 303 1286 306 b 1389 522 1349 385 1381 458 z m 293 257 b 361 -19 368 185 376 76 b 121 -207 331 -210 94 -393 b 293 257 140 -81 272 208 z m 368 586 b 272 381 335 518 308 446 b 92 214 246 331 167 167 b 92 418 47 242 53 331 b 292 615 131 513 207 603 b 368 586 317 619 356 604 z "},"":{"ha":415,"x_min":0,"x_max":0,"o":"m 324 274 b 207 208 254 199 217 192 b 271 432 186 238 239 358 b 193 643 339 575 281 536 b 251 749 208 667 244 713 b 132 732 264 824 135 803 b 157 669 132 713 144 690 l 178 639 l 103 532 l 22 417 b 33 410 22 417 24 403 l 114 525 l 185 629 b 181 394 269 511 257 581 b 332 265 101 199 179 99 b 1026 697 483 429 765 769 b 1128 614 1069 681 1104 651 b 1149 478 1147 578 1157 529 b 1051 275 1138 417 1107 346 b 1051 261 1049 269 1049 265 b 1064 265 1056 260 1060 263 b 1163 479 1121 342 1156 415 b 1139 626 1171 533 1164 586 b 1031 710 1118 664 1081 697 b 324 274 772 792 501 465 z m 186 653 b 146 733 171 671 144 703 b 239 749 146 788 250 806 b 186 653 233 717 199 671 z "},"":{"ha":304,"x_min":0,"x_max":0,"o":"m 740 744 b 208 269 533 658 360 436 b 163 225 190 250 176 235 b 190 260 172 236 181 249 b 207 454 233 332 221 389 b 213 604 199 500 185 560 b 269 601 251 665 315 647 b 269 592 267 599 267 594 b 278 592 271 589 275 589 b 296 635 294 608 300 624 b 154 603 286 678 189 674 l 151 597 b 18 413 108 532 57 461 b 29 407 13 406 22 399 b 142 561 63 447 104 506 l 140 546 b 153 444 139 513 147 476 b 133 268 164 386 175 332 b 21 207 115 236 61 176 b 72 346 -29 247 35 317 b 74 356 75 349 78 353 b 64 357 72 358 68 358 b 13 196 19 322 -47 243 b 218 261 75 147 171 211 b 742 728 375 428 561 663 b 956 747 824 760 896 765 b 1057 664 999 731 1033 701 b 1078 528 1076 628 1085 579 b 981 325 1067 467 1036 396 b 981 311 979 319 976 315 b 992 315 983 310 990 313 b 1093 529 1051 392 1083 465 b 1068 676 1100 583 1092 636 b 960 760 1046 714 1010 747 b 740 744 901 779 824 778 z "},"":{"ha":242,"x_min":0,"x_max":0,"o":"m 871 728 b 146 261 585 819 338 436 b 61 208 107 226 76 206 b 78 372 31 214 47 286 b 322 933 106 447 235 742 l 771 935 l 772 947 l 326 946 l 397 1106 l 324 1097 l 253 946 l 74 946 l 74 933 l 249 933 b 8 382 161 743 29 450 b 51 193 -7 329 -39 193 b 153 254 75 194 111 218 b 865 715 335 415 576 796 b 967 632 910 699 944 669 b 989 496 986 596 996 547 b 892 293 976 435 947 364 b 890 279 890 288 888 283 b 903 283 894 278 901 281 b 1001 497 961 360 994 433 b 979 644 1011 551 1003 604 b 871 728 957 682 919 715 z "},"":{"ha":488,"x_min":0,"x_max":0,"o":"m 1147 743 b 374 251 829 828 592 438 b 304 207 343 225 315 206 b 439 642 235 219 415 586 b 367 633 400 638 428 642 b 268 422 342 589 300 508 b 147 271 238 382 192 319 b 58 207 100 222 74 204 b 196 642 -8 219 172 586 b 124 633 158 639 185 642 b 4 210 76 544 -58 296 b 50 192 14 197 28 190 b 156 263 90 193 132 238 b 253 382 190 299 226 346 b 250 210 232 311 224 246 b 296 192 260 197 274 190 b 383 242 317 192 350 214 b 1149 726 593 419 826 815 b 1167 308 1326 678 1285 428 b 1165 294 1165 303 1164 299 b 1179 299 1171 293 1176 296 b 1278 513 1238 375 1271 449 b 1147 743 1293 608 1250 717 z "},"":{"ha":504,"x_min":0,"x_max":0,"o":"m 1183 793 b 560 436 931 874 731 600 b 308 404 468 350 372 296 b 401 540 342 450 371 490 b 458 671 432 594 449 638 b 331 719 486 786 403 808 b 282 617 310 693 294 658 b 293 406 265 550 267 467 b 183 269 263 367 224 313 b 97 201 175 260 132 217 b 44 224 72 190 50 197 b 196 647 31 301 174 599 b 124 640 158 644 185 647 b 6 208 76 550 -58 294 b 99 190 26 181 65 176 b 194 261 139 206 175 243 b 300 392 231 301 271 354 b 567 424 372 281 472 336 b 1179 781 726 571 925 851 b 1281 697 1224 764 1257 735 b 1303 561 1300 661 1310 613 b 1206 358 1290 500 1260 429 b 1204 344 1204 353 1201 349 b 1217 349 1208 343 1214 346 b 1315 563 1274 425 1308 499 b 1292 710 1324 617 1317 669 b 1183 793 1271 747 1233 781 z m 303 417 b 296 614 279 476 279 553 b 340 710 304 654 321 686 b 444 674 403 789 471 776 b 389 546 436 642 419 599 b 303 417 360 497 336 463 z "},"":{"ha":749,"x_min":0,"x_max":0,"o":"m 544 392 b 811 424 617 281 717 336 b 1424 781 971 571 1169 851 b 1525 697 1468 764 1501 735 b 1547 561 1544 661 1554 613 b 1450 358 1535 500 1504 429 b 1449 344 1449 353 1446 349 b 1461 349 1453 343 1458 346 b 1560 563 1518 425 1553 499 b 1536 710 1568 617 1561 669 b 1428 793 1515 747 1478 781 b 804 436 1175 874 975 600 b 553 404 713 350 617 296 b 646 540 586 450 615 490 b 703 671 676 594 693 638 b 575 719 731 786 647 808 b 526 617 554 693 539 658 b 538 406 510 550 511 467 b 428 269 467 315 449 290 b 342 200 418 258 379 215 b 289 224 317 190 294 196 b 447 661 276 299 417 593 l 372 650 b 265 419 347 600 296 500 b 146 269 238 381 192 317 b 58 206 101 219 74 203 b 199 643 -10 218 172 588 b 122 635 160 639 188 643 b 6 208 78 544 -58 293 b 50 189 14 196 29 188 b 156 260 89 190 133 235 b 253 381 189 297 226 343 b 236 307 244 354 239 329 b 251 208 231 267 232 231 b 346 189 271 179 308 175 b 439 260 383 206 422 242 b 544 392 458 281 478 306 z m 547 417 b 540 614 524 476 524 553 b 585 710 549 654 565 686 b 689 674 647 789 715 776 b 633 546 681 642 664 599 b 547 417 604 497 581 463 z "},"":{"ha":481,"x_min":0,"x_max":0,"o":"m 279 186 b 394 254 308 185 350 214 b 782 614 535 376 654 524 b 1207 469 950 733 1222 742 b 1110 267 1203 408 1165 338 b 1121 257 1107 257 1110 246 b 1219 471 1179 333 1213 407 b 767 619 1231 768 944 743 b 382 264 625 519 501 365 b 293 219 344 232 311 211 b 189 406 253 236 218 317 b 414 632 269 482 347 560 l 406 642 b 186 418 340 569 265 493 b 133 632 167 481 146 579 l 68 651 b 74 633 71 646 72 640 b 140 375 85 578 113 454 b -61 189 72 311 0 249 l -56 179 b 144 364 8 239 76 300 b 279 186 167 304 214 189 z "},"":{"ha":479,"x_min":0,"x_max":0,"o":"m 425 329 b 271 208 376 279 318 232 b 403 642 318 351 357 497 b 333 635 381 639 356 636 b 268 436 308 569 289 503 l 267 431 b 81 215 242 390 126 207 b 171 640 10 228 149 583 l 96 632 b 28 218 61 542 -46 304 b 72 200 38 206 51 199 b 171 271 113 201 151 246 b 251 382 199 304 226 347 b 185 181 229 315 210 247 b -33 -379 -190 -39 -178 -429 b 263 190 49 -349 164 -90 b 432 317 313 213 376 263 b 881 694 576 472 736 633 b 1094 714 964 726 1036 732 b 1196 631 1139 697 1172 668 b 1218 494 1217 594 1225 546 b 1121 292 1206 433 1175 363 b 1119 278 1119 286 1117 282 b 1132 282 1124 276 1129 279 b 1232 496 1192 358 1224 432 b 1208 643 1240 550 1232 603 b 1100 726 1186 681 1149 714 b 881 711 1040 746 964 744 b 425 329 736 651 565 479 z m 179 161 b -43 -339 129 22 19 -276 b 179 161 -136 -433 -171 -51 z "},"":{"ha":522,"x_min":0,"x_max":0,"o":"m 500 372 b 326 225 447 319 390 265 b 235 343 332 281 286 331 b 306 503 281 429 307 465 b 194 646 301 575 239 590 b 253 751 210 669 244 715 b 133 735 265 826 135 806 b 158 672 132 715 143 693 l 176 642 b 22 417 126 567 74 492 l 33 410 b 185 632 85 483 135 557 b 258 500 221 583 274 561 b 172 357 246 451 204 408 b 254 181 128 283 304 361 b -247 -249 64 71 -175 -21 b -111 -372 -282 -354 -206 -394 b 324 210 103 -318 293 14 b 504 360 394 256 449 303 b 956 738 650 515 808 676 b 1268 674 1061 779 1199 788 b 1290 538 1289 638 1297 589 b 1193 335 1279 476 1249 406 b 1192 321 1192 329 1190 325 b 1206 325 1197 319 1203 322 b 1304 539 1264 401 1297 475 b 1281 686 1314 593 1306 646 b 953 754 1218 793 1069 800 b 500 372 808 694 640 522 z m -118 -335 b -236 -250 -196 -367 -267 -347 b 249 165 -167 -33 65 61 b -118 -335 199 14 47 -264 z m 186 656 b 147 736 171 674 147 706 b 239 751 149 790 250 808 b 186 656 232 719 197 674 z "},"¥":{"ha":1247,"x_min":0,"x_max":0,"o":"m 26 571 b 210 382 -32 431 64 321 b 446 689 319 429 410 564 b 464 815 458 733 465 776 b 436 896 464 847 453 876 b 643 879 506 917 583 921 b 721 763 678 854 704 815 b 672 396 742 675 731 550 b 619 138 647 329 582 199 b 840 192 664 74 796 156 b 967 331 889 231 931 279 b 854 85 933 250 897 167 b 336 -219 672 92 318 28 b 500 -346 343 -311 414 -360 b 908 69 675 -317 831 -75 b 1151 29 981 64 1063 51 l 1157 42 b 914 82 1068 64 988 75 b 1143 631 1031 296 1110 532 l 1078 625 b 989 386 1061 572 1031 486 b 832 201 949 319 894 251 b 661 158 803 178 671 86 b 736 396 656 206 714 338 b 779 785 779 513 818 665 b 656 918 758 844 719 896 b 429 907 597 936 490 926 l 428 908 b 267 921 399 939 344 950 l 269 908 b 415 903 339 935 386 928 b 175 758 329 874 246 817 b 85 665 139 728 107 694 b 26 571 60 633 40 601 z m 206 394 b 86 565 90 349 58 478 b 425 892 132 697 293 850 b 451 815 440 872 450 846 b 435 692 453 778 446 735 b 206 394 397 569 311 439 z m 490 -325 b 349 -219 414 -356 356 -296 b 847 74 333 18 676 79 b 490 -325 771 -65 644 -265 z m 522 426 b 1213 426 635 425 1094 426 l 1214 476 l 525 474 z m 510 251 b 1200 251 624 250 1082 251 l 1201 301 l 513 299 z "},"ﬂ":{"ha":556,"x_min":0,"x_max":0,"o":"m 96 464 b 421 971 263 563 386 785 b 385 1106 432 1046 417 1100 b 0 354 288 1125 119 728 b -168 -265 -96 76 -169 -190 b 107 -47 -151 -476 89 -256 b 22 218 113 50 100 156 l 24 218 b 351 418 76 226 256 226 b 347 426 353 422 349 425 b 339 424 344 428 340 426 b 21 231 247 238 72 238 b 11 229 17 231 13 229 b 96 464 24 269 51 346 z m 99 475 b 388 1078 121 539 319 1086 b 407 972 410 1075 415 1031 b 99 475 382 808 246 560 z m 10 215 b 94 -47 86 154 100 49 b -126 -264 78 -239 -142 -451 b 10 215 -117 -137 -7 164 z m 640 1111 b 321 382 613 1060 351 481 b 317 211 301 313 293 247 b 364 193 328 199 340 192 b 468 264 404 194 447 239 b 592 417 514 314 564 381 b 579 421 596 425 590 436 b 460 272 550 382 504 319 b 374 208 415 224 388 206 b 385 371 343 214 354 286 b 711 1119 425 483 697 1088 b 640 1111 674 1115 703 1119 z "},"Ł":{"ha":996,"x_min":0,"x_max":0,"o":"m 354 789 b 328 826 329 799 321 811 b 674 1039 353 882 525 967 b 533 775 628 964 582 872 b 300 356 460 628 381 472 b 208 250 271 313 239 278 b 38 210 151 254 90 243 b 47 153 0 186 -1 157 b 256 232 117 146 201 188 b 456 174 325 221 394 196 b 1001 113 636 107 811 38 l 997 125 b 461 185 808 50 639 121 b 268 243 401 207 335 231 b 363 349 301 271 332 306 b 597 769 444 467 524 624 b 768 1086 658 892 715 1007 b 919 1181 813 1107 889 1142 b 879 1235 947 1217 913 1240 b 826 1215 863 1233 844 1225 b 769 1172 807 1203 788 1189 b 686 1058 743 1146 714 1107 b 317 831 529 983 344 893 b 349 776 307 808 315 789 z m 196 239 b 49 167 167 214 96 167 b 44 200 11 167 19 185 b 196 239 92 229 143 239 z m 783 1107 b 889 1203 811 1143 846 1186 b 911 1188 907 1211 931 1214 b 783 1107 883 1156 821 1125 z m 292 349 b 739 349 404 347 621 349 l 739 399 l 294 396 z "},"ł":{"ha":242,"x_min":0,"x_max":0,"o":"m 326 1111 b 7 382 299 1060 38 481 b 3 211 -12 313 -21 247 b 50 193 14 199 26 192 b 154 264 90 194 133 239 b 278 417 200 314 250 381 b 265 421 282 425 276 436 b 146 272 236 382 190 319 b 60 208 101 224 74 206 b 71 371 29 214 40 286 b 397 1119 111 483 383 1088 b 326 1111 360 1115 389 1119 z m -85 349 b 363 349 28 347 244 349 l 363 399 l -82 396 z "},"Ž":{"ha":894,"x_min":0,"x_max":0,"o":"m 1094 1136 b 979 1075 1054 1121 1013 1099 b 864 981 939 1049 901 1017 b 1101 1036 969 986 1047 1008 b 1094 1136 1211 1090 1233 1193 z m 851 967 b 579 638 751 867 665 749 b 783 661 651 642 725 653 l 785 649 b 569 624 724 639 646 628 b 363 379 503 538 435 451 b 844 203 531 343 683 258 l 839 190 b 353 368 678 247 521 333 b 321 339 343 358 332 349 b 183 239 265 289 219 257 b 72 226 153 224 100 204 b 64 303 50 244 53 278 b 304 390 107 392 221 400 b 501 624 372 460 438 540 b 292 750 417 626 293 643 l 304 751 b 510 636 306 650 431 638 b 781 965 597 747 681 864 b 249 1060 640 967 465 993 l 251 1072 b 792 978 474 1004 651 978 b 950 1106 842 1029 894 1072 b 1079 1163 1000 1135 1043 1153 b 1107 1025 1235 1206 1240 1092 b 851 967 1050 996 965 972 z m 292 378 b 76 297 217 386 114 378 b 85 238 69 281 60 243 b 157 267 100 233 126 246 b 292 378 207 300 267 354 z m 431 1301 b 415 1290 429 1304 414 1293 b 586 1244 436 1218 531 1192 b 617 1281 600 1256 610 1269 b 599 1297 617 1292 607 1297 b 431 1301 542 1207 485 1240 z "},"ž":{"ha":522,"x_min":0,"x_max":0,"o":"m 158 672 b 133 735 143 693 132 715 b 253 751 135 806 265 826 b 194 646 244 715 210 669 b 306 503 239 590 301 575 b 235 343 307 465 281 429 b 326 225 286 331 332 281 b 546 419 414 281 471 340 l 556 414 b 324 210 481 332 415 269 b -111 -372 293 14 103 -318 b -247 -249 -206 -394 -282 -354 b 254 181 -175 -21 64 71 b 172 357 304 361 128 283 b 258 500 204 408 246 451 b 185 632 274 561 221 583 b 33 410 135 557 85 483 l 22 417 b 176 642 74 492 126 567 b 158 672 171 651 164 661 z m -118 -335 b 249 165 47 -264 199 14 b -236 -250 65 61 -167 -33 b -118 -335 -267 -347 -196 -367 z m 186 656 b 239 751 197 674 232 719 b 147 736 250 808 149 790 b 186 656 147 706 171 674 z m 224 917 b 208 906 222 919 207 908 b 379 860 229 833 324 807 b 410 896 393 871 403 885 b 392 913 410 907 400 913 b 224 917 335 822 278 856 z "},"À":{"ha":1129,"x_min":0,"x_max":0,"o":"m 1101 1143 b 1107 1124 1104 1140 1106 1133 b 1038 829 1113 1078 1078 964 b 1017 760 1029 806 1025 783 b 806 724 942 749 872 738 b 1094 1146 854 801 1047 1138 b 1097 1146 1096 1146 1096 1146 b 1100 1143 1097 1144 1099 1143 z m 236 167 b 85 236 174 150 107 176 b 142 414 68 283 82 347 b 724 692 229 513 410 618 b 526 396 658 586 589 481 b 371 238 475 326 422 275 b 236 167 322 203 276 179 z m 732 708 b 135 422 407 632 224 522 b 74 231 71 351 54 282 b 240 150 97 164 172 143 b 588 393 338 160 467 231 b 797 710 657 483 728 597 b 1013 746 864 724 933 735 b 929 151 947 528 883 279 b 1197 96 961 65 1040 32 l 1192 107 b 943 156 1044 47 971 76 b 1026 747 897 282 961 531 b 1186 767 1078 754 1131 761 l 1186 779 b 1029 761 1132 775 1081 769 b 1050 826 1038 783 1043 804 b 1121 1126 1090 963 1125 1078 b 1104 1158 1117 1144 1113 1154 b 1033 1151 1079 1182 1050 1163 b 1028 1149 1031 1150 1029 1149 b 732 708 961 1106 793 806 z m 1038 1097 b 913 1263 982 1235 940 1258 b 871 1235 894 1267 863 1253 b 1006 1104 921 1199 963 1151 b 1038 1097 1017 1092 1049 1071 z "},"Á":{"ha":1129,"x_min":0,"x_max":0,"o":"m 1101 1143 b 1107 1124 1104 1140 1106 1133 b 1038 829 1113 1078 1078 964 b 1017 760 1029 806 1025 783 b 806 724 942 749 872 738 b 1094 1146 854 801 1047 1138 b 1097 1146 1096 1146 1096 1146 b 1100 1143 1097 1144 1099 1143 z m 236 167 b 85 236 174 150 107 176 b 142 414 68 283 82 347 b 724 692 229 513 410 618 b 526 396 658 586 589 481 b 371 238 475 326 422 275 b 236 167 322 203 276 179 z m 732 708 b 135 422 407 632 224 522 b 74 231 71 351 54 282 b 240 150 97 164 172 143 b 588 393 338 160 467 231 b 797 710 657 483 728 597 b 1013 746 864 724 933 735 b 929 151 947 528 883 279 b 1197 96 961 65 1040 32 l 1192 107 b 943 156 1044 47 971 76 b 1026 747 897 282 961 531 b 1186 767 1078 754 1131 761 l 1186 779 b 1029 761 1132 775 1081 769 b 1050 826 1038 783 1043 804 b 1121 1126 1090 963 1125 1078 b 1104 1158 1117 1144 1113 1154 b 1033 1151 1079 1182 1050 1163 b 1028 1149 1031 1150 1029 1149 b 732 708 961 1106 793 806 z m 1050 1063 b 1232 1188 1196 1117 1225 1158 b 1208 1228 1238 1206 1228 1236 b 1063 1094 1167 1179 1115 1138 b 1050 1063 1047 1083 1024 1051 z "},"Â":{"ha":1129,"x_min":0,"x_max":0,"o":"m 1101 1143 b 1107 1124 1104 1140 1106 1133 b 1038 829 1113 1078 1078 964 b 1017 760 1029 806 1025 783 b 806 724 942 749 872 738 b 1094 1146 854 801 1047 1138 b 1097 1146 1096 1146 1096 1146 b 1100 1143 1097 1144 1099 1143 z m 236 167 b 85 236 174 150 107 176 b 142 414 68 283 82 347 b 724 692 229 513 410 618 b 526 396 658 586 589 481 b 371 238 475 326 422 275 b 236 167 322 203 276 179 z m 732 708 b 135 422 407 632 224 522 b 74 231 71 351 54 282 b 240 150 97 164 172 143 b 588 393 338 160 467 231 b 797 710 657 483 728 597 b 1013 746 864 724 933 735 b 929 151 947 528 883 279 b 1197 96 961 65 1040 32 l 1192 107 b 943 156 1044 47 971 76 b 1026 747 897 282 961 531 b 1186 767 1078 754 1131 761 l 1186 779 b 1029 761 1132 775 1081 769 b 1050 826 1038 783 1043 804 b 1121 1126 1090 963 1125 1078 b 1104 1158 1117 1144 1113 1154 b 1033 1151 1079 1182 1050 1163 b 1028 1149 1031 1150 1029 1149 b 732 708 961 1106 793 806 z m 1156 1040 b 1176 1056 1158 1038 1175 1051 b 1035 1156 1178 1104 1090 1156 b 910 1067 982 1156 936 1103 b 936 1044 910 1051 925 1044 b 1042 1121 969 1103 1022 1129 b 1156 1040 1071 1110 1103 1100 z "},"Ã":{"ha":1129,"x_min":0,"x_max":0,"o":"m 1101 1143 b 1107 1124 1104 1140 1106 1133 b 1038 829 1113 1078 1078 964 b 1017 760 1029 806 1025 783 b 806 724 942 749 872 738 b 1094 1146 854 801 1047 1138 b 1097 1146 1096 1146 1096 1146 b 1100 1143 1097 1144 1099 1143 z m 236 167 b 85 236 174 150 107 176 b 142 414 68 283 82 347 b 724 692 229 513 410 618 b 526 396 658 586 589 481 b 371 238 475 326 422 275 b 236 167 322 203 276 179 z m 732 708 b 135 422 407 632 224 522 b 74 231 71 351 54 282 b 240 150 97 164 172 143 b 588 393 338 160 467 231 b 797 710 657 483 728 597 b 1013 746 864 724 933 735 b 929 151 947 528 883 279 b 1197 96 961 65 1040 32 l 1192 107 b 943 156 1044 47 971 76 b 1026 747 897 282 961 531 b 1186 767 1078 754 1131 761 l 1186 779 b 1029 761 1132 775 1081 769 b 1050 826 1038 783 1043 804 b 1121 1126 1090 963 1125 1078 b 1104 1158 1117 1144 1113 1154 b 1033 1151 1079 1182 1050 1163 b 1028 1149 1031 1150 1029 1149 b 732 708 961 1106 793 806 z m 946 1043 l 946 1043 b 954 1049 951 1042 954 1043 b 1004 1114 957 1079 971 1106 b 1226 1106 1074 1124 1153 1063 b 1256 1171 1244 1119 1256 1140 b 1242 1174 1258 1181 1244 1182 b 1051 1157 1231 1108 1099 1154 b 978 1140 1026 1161 1000 1154 b 939 1050 954 1122 944 1094 b 946 1043 938 1044 942 1042 z "},"Ä":{"ha":1129,"x_min":0,"x_max":0,"o":"m 1101 1143 b 1107 1124 1104 1140 1106 1133 b 1038 829 1113 1078 1078 964 b 1017 760 1029 806 1025 783 b 806 724 942 749 872 738 b 1094 1146 854 801 1047 1138 b 1097 1146 1096 1146 1096 1146 b 1100 1143 1097 1144 1099 1143 z m 236 167 b 85 236 174 150 107 176 b 142 414 68 283 82 347 b 724 692 229 513 410 618 b 526 396 658 586 589 481 b 371 238 475 326 422 275 b 236 167 322 203 276 179 z m 732 708 b 135 422 407 632 224 522 b 74 231 71 351 54 282 b 240 150 97 164 172 143 b 588 393 338 160 467 231 b 797 710 657 483 728 597 b 1013 746 864 724 933 735 b 929 151 947 528 883 279 b 1197 96 961 65 1040 32 l 1192 107 b 943 156 1044 47 971 76 b 1026 747 897 282 961 531 b 1186 767 1078 754 1131 761 l 1186 779 b 1029 761 1132 775 1081 769 b 1050 826 1038 783 1043 804 b 1121 1126 1090 963 1125 1078 b 1104 1158 1117 1144 1113 1154 b 1033 1151 1079 1182 1050 1163 b 1028 1149 1031 1150 1029 1149 b 732 708 961 1106 793 806 z m 924 1214 b 910 1104 889 1186 886 1135 b 1001 1106 935 1075 975 1075 b 1008 1210 1029 1133 1032 1181 b 924 1214 988 1233 951 1239 z m 1096 1214 b 1082 1104 1061 1186 1058 1135 b 1174 1106 1107 1075 1147 1075 b 1181 1210 1201 1133 1204 1181 b 1096 1214 1160 1233 1124 1239 z "},"Å":{"ha":1129,"x_min":0,"x_max":0,"o":"m 1100 1143 b 1097 1146 1099 1143 1097 1144 b 1094 1146 1096 1146 1096 1146 b 806 724 1047 1138 854 801 b 1017 760 872 738 942 749 b 1038 829 1025 783 1029 806 b 1107 1124 1078 964 1113 1078 b 1101 1143 1106 1133 1104 1140 z m 236 167 b 371 238 276 179 322 203 b 526 396 422 275 475 326 b 724 692 589 481 658 586 b 142 414 410 618 229 513 b 85 236 82 347 68 283 b 236 167 107 176 174 150 z m 732 708 b 1028 1149 793 806 961 1106 b 1033 1151 1029 1149 1031 1150 b 1104 1158 1050 1163 1079 1182 b 1121 1126 1113 1154 1117 1144 b 1050 826 1125 1078 1090 963 b 1029 761 1043 804 1038 783 b 1186 779 1081 769 1132 775 l 1186 767 b 1026 747 1131 761 1078 754 b 943 156 961 531 897 282 b 1192 107 971 76 1044 47 l 1197 96 b 929 151 1040 32 961 65 b 1013 746 883 279 947 528 b 797 710 933 735 864 724 b 588 393 728 597 657 483 b 240 150 467 231 338 160 b 74 231 172 143 97 164 b 135 422 54 282 71 351 b 732 708 224 522 407 632 z m 1069 1190 b 1008 1129 1038 1190 1008 1163 b 1063 1069 1006 1096 1031 1069 b 1128 1129 1094 1069 1125 1096 b 1069 1190 1128 1163 1101 1190 z m 1068 1172 b 1110 1129 1094 1172 1111 1154 b 1063 1086 1107 1106 1089 1086 b 1025 1129 1040 1086 1022 1106 b 1068 1172 1026 1154 1046 1172 z "},"Æ":{"ha":2089,"x_min":0,"x_max":0,"o":"m 1101 1143 b 1107 1124 1104 1140 1106 1133 b 1038 829 1113 1078 1078 964 b 1017 760 1029 806 1025 783 b 806 724 942 749 872 738 b 1094 1146 854 801 1047 1138 b 1097 1146 1096 1146 1096 1146 b 1100 1143 1097 1144 1099 1143 z m 236 167 b 85 236 174 150 107 176 b 142 414 68 283 82 347 b 724 692 229 513 410 618 b 526 396 658 586 589 481 b 371 238 475 326 422 275 b 236 167 322 203 276 179 z m 732 708 b 135 422 407 632 224 522 b 74 231 71 351 54 282 b 240 150 97 164 172 143 b 588 393 338 160 467 231 b 797 710 657 483 728 597 b 1013 746 864 724 933 735 b 929 151 947 528 883 279 b 1197 96 961 65 1040 32 l 1192 107 b 943 156 1044 47 971 76 b 1026 747 897 282 961 531 b 1186 767 1078 754 1131 761 l 1186 779 b 1029 761 1132 775 1081 769 b 1050 826 1038 783 1043 804 b 1121 1126 1090 963 1125 1078 b 1104 1158 1117 1144 1113 1154 b 1033 1151 1079 1182 1050 1163 b 1028 1149 1031 1150 1029 1149 b 732 708 961 1106 793 806 z m 1863 1271 b 1871 1232 1922 1278 1913 1256 b 1763 1183 1836 1214 1801 1197 b 1646 1144 1726 1169 1686 1157 b 1567 1122 1618 1136 1593 1129 b 1493 1100 1543 1115 1518 1108 b 1863 1271 1579 1183 1714 1256 z m 1475 1082 b 1569 1110 1507 1092 1539 1101 b 1647 1132 1599 1118 1624 1125 b 1768 1171 1689 1144 1729 1157 b 1875 1219 1806 1186 1842 1201 b 1860 1288 1936 1254 1933 1286 b 1560 1200 1788 1288 1658 1260 b 1424 1094 1503 1165 1457 1129 b 1404 1074 1417 1088 1410 1081 b 876 608 1163 996 925 879 l 889 607 b 1390 1056 935 864 1157 979 b 1349 985 1369 1031 1357 1007 b 1343 876 1335 949 1331 908 b 985 438 1190 792 994 622 b 1021 310 983 389 994 344 b 1390 250 1101 197 1267 206 b 1579 375 1460 276 1529 318 b 1660 569 1624 425 1658 503 b 1436 397 1664 804 1296 572 l 1446 406 b 1647 568 1321 564 1651 781 b 1571 383 1646 506 1613 431 b 1386 263 1521 328 1453 288 b 1065 357 1261 217 1114 222 b 1053 458 1051 386 1049 421 b 1363 843 1072 619 1229 760 b 1389 818 1369 833 1378 825 b 1568 814 1439 783 1508 789 b 1549 946 1664 857 1683 954 b 1390 900 1508 943 1453 931 b 1400 969 1386 922 1390 944 b 1469 1078 1413 1004 1436 1042 b 1475 1082 1471 1079 1472 1081 z m 1553 926 b 1563 826 1669 949 1644 863 b 1401 867 1499 799 1436 804 b 1553 926 1447 892 1501 917 z "},"Ç":{"ha":867,"x_min":0,"x_max":0,"o":"m 736 1082 b 1000 1131 803 1124 938 1192 b 965 1026 1035 1097 994 1050 b 797 944 931 999 875 968 b 510 896 711 914 607 896 b 736 1082 575 968 653 1035 z m 499 885 b 800 932 603 881 708 901 b 975 1018 881 957 938 989 b 1011 1142 1011 1049 1050 1101 b 713 1108 944 1203 789 1147 b 449 900 613 1057 525 983 b 171 1053 338 913 229 956 l 158 1046 b 438 889 218 947 325 903 b 410 125 247 697 22 133 b 810 342 553 122 721 229 l 801 349 b 408 146 717 246 549 129 b 499 885 90 185 354 740 z m 110 -93 b 142 -126 125 -100 136 -114 b 124 -250 156 -156 144 -226 b 28 -250 96 -283 63 -256 b 11 -267 11 -247 10 -254 b 182 -264 64 -299 138 -315 b 185 -115 218 -222 221 -153 b 128 -79 169 -100 147 -87 z "},"È":{"ha":960,"x_min":0,"x_max":0,"o":"m 1053 1149 b 1061 1110 1113 1156 1103 1133 b 953 1061 1026 1092 992 1075 b 836 1022 917 1047 876 1035 b 757 1000 808 1014 783 1007 b 683 978 733 993 708 986 b 1053 1149 769 1061 904 1133 z m 665 960 b 760 988 697 969 729 979 b 838 1010 789 996 814 1003 b 958 1049 879 1022 919 1035 b 1065 1097 996 1064 1032 1079 b 1050 1165 1126 1132 1124 1164 b 750 1078 978 1165 849 1138 b 614 972 693 1043 647 1007 b 594 951 607 965 600 958 b 67 486 353 874 115 757 l 79 485 b 581 933 125 742 347 857 b 539 863 560 908 547 885 b 533 754 525 826 521 786 b 175 315 381 669 185 500 b 211 188 174 267 185 222 b 581 128 292 75 457 83 b 769 253 650 154 719 196 b 850 447 814 303 849 381 b 626 275 854 682 486 450 l 636 283 b 838 446 511 442 842 658 b 761 261 836 383 803 308 b 576 140 711 206 643 165 b 256 235 451 94 304 100 b 243 336 242 264 239 299 b 553 721 263 497 419 638 b 579 696 560 711 568 703 b 758 692 629 661 699 667 b 739 824 854 735 874 832 b 581 778 699 821 643 808 b 590 847 576 800 581 822 b 660 956 603 882 626 919 b 665 960 661 957 663 958 z m 743 804 b 753 704 860 826 835 740 b 592 744 689 676 626 682 b 743 804 638 769 692 794 z m 954 956 b 829 1121 899 1093 857 1117 b 788 1093 811 1125 779 1111 b 922 963 838 1057 879 1010 b 954 956 933 950 965 929 z "},"É":{"ha":960,"x_min":0,"x_max":0,"o":"m 1053 1149 b 1061 1110 1113 1156 1103 1133 b 953 1061 1026 1092 992 1075 b 836 1022 917 1047 876 1035 b 757 1000 808 1014 783 1007 b 683 978 733 993 708 986 b 1053 1149 769 1061 904 1133 z m 665 960 b 760 988 697 969 729 979 b 838 1010 789 996 814 1003 b 958 1049 879 1022 919 1035 b 1065 1097 996 1064 1032 1079 b 1050 1165 1126 1132 1124 1164 b 750 1078 978 1165 849 1138 b 614 972 693 1043 647 1007 b 594 951 607 965 600 958 b 67 486 353 874 115 757 l 79 485 b 581 933 125 742 347 857 b 539 863 560 908 547 885 b 533 754 525 826 521 786 b 175 315 381 669 185 500 b 211 188 174 267 185 222 b 581 128 292 75 457 83 b 769 253 650 154 719 196 b 850 447 814 303 849 381 b 626 275 854 682 486 450 l 636 283 b 838 446 511 442 842 658 b 761 261 836 383 803 308 b 576 140 711 206 643 165 b 256 235 451 94 304 100 b 243 336 242 264 239 299 b 553 721 263 497 419 638 b 579 696 560 711 568 703 b 758 692 629 661 699 667 b 739 824 854 735 874 832 b 581 778 699 821 643 808 b 590 847 576 800 581 822 b 660 956 603 882 626 919 b 665 960 661 957 663 958 z m 743 804 b 753 704 860 826 835 740 b 592 744 689 676 626 682 b 743 804 638 769 692 794 z m 894 942 b 1076 1067 1040 996 1069 1038 b 1053 1107 1082 1085 1072 1115 b 907 974 1011 1058 960 1017 b 894 942 892 963 868 931 z "},"Ê":{"ha":960,"x_min":0,"x_max":0,"o":"m 1053 1149 b 1061 1110 1113 1156 1103 1133 b 953 1061 1026 1092 992 1075 b 836 1022 917 1047 876 1035 b 757 1000 808 1014 783 1007 b 683 978 733 993 708 986 b 1053 1149 769 1061 904 1133 z m 665 960 b 760 988 697 969 729 979 b 838 1010 789 996 814 1003 b 958 1049 879 1022 919 1035 b 1065 1097 996 1064 1032 1079 b 1050 1165 1126 1132 1124 1164 b 750 1078 978 1165 849 1138 b 614 972 693 1043 647 1007 b 594 951 607 965 600 958 b 67 486 353 874 115 757 l 79 485 b 581 933 125 742 347 857 b 539 863 560 908 547 885 b 533 754 525 826 521 786 b 175 315 381 669 185 500 b 211 188 174 267 185 222 b 581 128 292 75 457 83 b 769 253 650 154 719 196 b 850 447 814 303 849 381 b 626 275 854 682 486 450 l 636 283 b 838 446 511 442 842 658 b 761 261 836 383 803 308 b 576 140 711 206 643 165 b 256 235 451 94 304 100 b 243 336 242 264 239 299 b 553 721 263 497 419 638 b 579 696 560 711 568 703 b 758 692 629 661 699 667 b 739 824 854 735 874 832 b 581 778 699 821 643 808 b 590 847 576 800 581 822 b 660 956 603 882 626 919 b 665 960 661 957 663 958 z m 743 804 b 753 704 860 826 835 740 b 592 744 689 676 626 682 b 743 804 638 769 692 794 z m 1015 964 b 1036 979 1018 961 1035 975 b 894 1079 1038 1028 950 1079 b 769 990 842 1079 796 1026 b 796 968 769 975 785 968 b 901 1044 829 1026 882 1053 b 1015 964 931 1033 963 1024 z "},"Ë":{"ha":960,"x_min":0,"x_max":0,"o":"m 1053 1149 b 1061 1110 1113 1156 1103 1133 b 953 1061 1026 1092 992 1075 b 836 1022 917 1047 876 1035 b 757 1000 808 1014 783 1007 b 683 978 733 993 708 986 b 1053 1149 769 1061 904 1133 z m 665 960 b 760 988 697 969 729 979 b 838 1010 789 996 814 1003 b 958 1049 879 1022 919 1035 b 1065 1097 996 1064 1032 1079 b 1050 1165 1126 1132 1124 1164 b 750 1078 978 1165 849 1138 b 614 972 693 1043 647 1007 b 594 951 607 965 600 958 b 67 486 353 874 115 757 l 79 485 b 581 933 125 742 347 857 b 539 863 560 908 547 885 b 533 754 525 826 521 786 b 175 315 381 669 185 500 b 211 188 174 267 185 222 b 581 128 292 75 457 83 b 769 253 650 154 719 196 b 850 447 814 303 849 381 b 626 275 854 682 486 450 l 636 283 b 838 446 511 442 842 658 b 761 261 836 383 803 308 b 576 140 711 206 643 165 b 256 235 451 94 304 100 b 243 336 242 264 239 299 b 553 721 263 497 419 638 b 579 696 560 711 568 703 b 758 692 629 661 699 667 b 739 824 854 735 874 832 b 581 778 699 821 643 808 b 590 847 576 800 581 822 b 660 956 603 882 626 919 b 665 960 661 957 663 958 z m 743 804 b 753 704 860 826 835 740 b 592 744 689 676 626 682 b 743 804 638 769 692 794 z m 821 1100 b 807 990 786 1072 783 1021 b 899 992 832 961 872 961 b 906 1096 926 1019 929 1067 b 821 1100 885 1119 849 1125 z m 993 1100 b 979 990 958 1072 956 1021 b 1071 992 1004 961 1044 961 b 1078 1096 1099 1019 1101 1067 b 993 1100 1057 1119 1021 1125 z "},"Ì":{"ha":808,"x_min":0,"x_max":0,"o":"m 1053 1113 b 1125 1103 1078 1125 1143 1161 b 901 968 1103 1031 968 990 b 1053 1113 944 1029 993 1081 z m 892 951 b 1136 1099 964 976 1113 1018 b 1042 1142 1157 1165 1086 1161 b 819 939 944 1100 874 1026 b 440 736 694 894 556 838 l 447 726 b 807 922 557 822 689 879 b 668 594 749 822 707 707 b 486 232 615 450 565 314 b 375 161 454 200 417 175 b 297 156 343 150 326 147 b 181 308 226 176 188 235 l 169 307 b 292 143 174 228 217 167 b 378 138 321 136 347 133 b 547 224 436 143 497 172 b 739 606 631 308 685 454 b 892 951 783 728 828 851 z m 922 1022 b 797 1188 867 1160 825 1183 b 756 1160 779 1192 747 1178 b 890 1029 806 1124 847 1076 b 922 1022 901 1017 933 996 z "},"Í":{"ha":808,"x_min":0,"x_max":0,"o":"m 1053 1113 b 1125 1103 1078 1125 1143 1161 b 901 968 1103 1031 968 990 b 1053 1113 944 1029 993 1081 z m 892 951 b 1136 1099 964 976 1113 1018 b 1042 1142 1157 1165 1086 1161 b 819 939 944 1100 874 1026 b 440 736 694 894 556 838 l 447 726 b 807 922 557 822 689 879 b 668 594 749 822 707 707 b 486 232 615 450 565 314 b 375 161 454 200 417 175 b 297 156 343 150 326 147 b 181 308 226 176 188 235 l 169 307 b 292 143 174 228 217 167 b 378 138 321 136 347 133 b 547 224 436 143 497 172 b 739 606 631 308 685 454 b 892 951 783 728 828 851 z m 829 969 b 1011 1094 975 1024 1004 1065 b 988 1135 1017 1113 1007 1143 b 842 1001 946 1086 894 1044 b 829 969 826 990 803 958 z "},"Î":{"ha":808,"x_min":0,"x_max":0,"o":"m 1053 1113 b 1125 1103 1078 1125 1143 1161 b 901 968 1103 1031 968 990 b 1053 1113 944 1029 993 1081 z m 892 951 b 1136 1099 964 976 1113 1018 b 1042 1142 1157 1165 1086 1161 b 819 939 944 1100 874 1026 b 440 736 694 894 556 838 l 447 726 b 807 922 557 822 689 879 b 668 594 749 822 707 707 b 486 232 615 450 565 314 b 375 161 454 200 417 175 b 297 156 343 150 326 147 b 181 308 226 176 188 235 l 169 307 b 292 143 174 228 217 167 b 378 138 321 136 347 133 b 547 224 436 143 497 172 b 739 606 631 308 685 454 b 892 951 783 728 828 851 z m 971 1003 b 992 1018 974 1000 990 1014 b 850 1118 993 1067 906 1118 b 725 1029 797 1118 751 1065 b 751 1007 725 1014 740 1007 b 857 1083 785 1065 838 1092 b 971 1003 886 1072 918 1063 z "},"Ï":{"ha":808,"x_min":0,"x_max":0,"o":"m 1053 1113 b 1125 1103 1078 1125 1143 1161 b 901 968 1103 1031 968 990 b 1053 1113 944 1029 993 1081 z m 892 951 b 1136 1099 964 976 1113 1018 b 1042 1142 1157 1165 1086 1161 b 819 939 944 1100 874 1026 b 440 736 694 894 556 838 l 447 726 b 807 922 557 822 689 879 b 668 594 749 822 707 707 b 486 232 615 450 565 314 b 375 161 454 200 417 175 b 297 156 343 150 326 147 b 181 308 226 176 188 235 l 169 307 b 292 143 174 228 217 167 b 378 138 321 136 347 133 b 547 224 436 143 497 172 b 739 606 631 308 685 454 b 892 951 783 728 828 851 z m 743 1150 b 729 1040 708 1122 706 1071 b 821 1042 754 1011 794 1011 b 828 1146 849 1069 851 1117 b 743 1150 807 1169 771 1175 z m 915 1150 b 901 1040 881 1122 878 1071 b 993 1042 926 1011 967 1011 b 1000 1146 1021 1069 1024 1117 b 915 1150 979 1169 943 1175 z "},"Ð":{"ha":1247,"x_min":0,"x_max":0,"o":"m 892 825 b 1326 1132 996 1022 1167 1236 b 1338 849 1425 1065 1411 936 b 1126 707 1283 783 1207 739 l 1132 697 b 1347 840 1214 728 1289 772 b 1335 1143 1426 935 1439 1072 b 1079 1129 1272 1183 1182 1188 b 836 850 981 1074 908 979 b 118 558 604 960 194 835 b 185 303 94 467 111 363 b 76 224 140 279 104 253 b 67 -81 -10 135 -31 -1 b 321 -86 125 -125 214 -136 b 485 46 383 -56 438 -10 b 981 108 628 -81 843 -28 b 1106 325 1043 171 1086 246 b 892 825 1154 526 1068 731 z m 197 310 b 131 556 126 365 107 467 b 831 839 204 825 604 944 b 631 400 758 700 699 554 b 506 392 586 397 544 396 b 515 511 518 429 519 471 l 504 508 b 492 389 508 469 506 428 b 197 310 368 375 272 346 z m 893 803 b 1040 328 1035 699 1085 501 b 936 132 1021 256 988 188 b 494 57 819 0 629 -65 b 690 388 571 147 632 264 b 869 379 746 388 807 385 l 872 392 b 697 400 810 397 751 400 b 883 808 743 500 786 603 z m 500 378 b 624 386 539 382 581 385 b 458 97 575 281 521 179 b 411 226 435 132 418 175 l 399 225 b 450 86 407 169 424 124 b 75 -69 369 -18 201 -168 b 86 215 -17 4 4 132 b 194 294 114 244 150 271 b 500 378 294 225 450 256 z m 210 301 b 486 376 279 336 369 363 b 210 301 436 268 299 243 z m 557 569 l 893 572 l 892 522 b 556 522 774 522 669 521 z "},"Ñ":{"ha":1243,"x_min":0,"x_max":0,"o":"m 719 678 b 1181 1038 903 847 1071 983 b 1268 828 1371 1129 1308 925 b 1018 214 1188 629 1025 414 b 1140 121 1014 132 1050 76 l 1146 110 b 954 176 1067 69 963 72 b 1203 835 936 357 1128 650 b 1186 1025 1219 876 1306 1083 b 706 649 1075 971 896 824 b 604 450 672 575 640 511 b 721 413 643 442 681 428 l 715 400 b 597 439 674 417 635 429 l 593 433 b 486 292 561 379 526 331 b 369 214 444 256 406 229 b 121 269 289 182 158 182 b 203 429 97 335 150 397 b 549 464 274 472 389 496 b 846 1024 654 656 722 854 b 332 783 672 967 467 893 l 322 793 b 858 1043 464 907 682 982 b 1103 1250 924 1129 1003 1204 b 1182 1263 1139 1268 1168 1271 b 1168 1172 1224 1244 1185 1189 b 1085 1114 1149 1153 1121 1132 b 933 1056 1047 1096 994 1076 b 719 678 844 943 781 807 z m 947 1072 b 1081 1125 1000 1092 1047 1108 b 1158 1179 1115 1142 1142 1161 b 1118 1222 1208 1231 1197 1275 b 947 1072 1051 1176 960 1088 z m 338 236 b 425 299 367 251 396 271 b 532 436 463 336 499 382 b 540 453 533 442 538 447 b 208 418 388 482 278 460 b 135 275 157 388 111 328 b 338 236 165 192 274 201 z m 826 1085 b 819 1092 822 1083 818 1086 b 858 1182 825 1136 835 1164 b 932 1199 881 1196 907 1203 b 1122 1215 979 1196 1111 1150 b 1136 1213 1125 1224 1139 1222 b 1107 1147 1136 1182 1125 1161 b 885 1156 1033 1104 954 1165 b 835 1090 851 1147 838 1121 b 826 1085 835 1085 832 1083 l 826 1085 z "},"Ò":{"ha":804,"x_min":0,"x_max":0,"o":"m 515 918 b 789 638 739 1050 833 824 b 753 538 782 604 769 571 b 451 218 690 408 574 282 b 254 211 385 185 319 167 b 271 674 101 314 185 543 b 515 918 338 775 426 865 z m 208 681 b 158 236 126 554 50 360 b 322 168 199 190 258 164 b 456 207 369 172 414 186 b 767 535 583 272 703 403 b 801 635 783 568 794 603 b 457 929 857 865 704 1075 b 208 681 367 875 276 783 z m 571 885 b 446 1050 515 1022 474 1046 b 404 1022 428 1054 396 1040 b 539 892 454 986 496 939 b 571 885 550 879 582 858 z "},"Ó":{"ha":804,"x_min":0,"x_max":0,"o":"m 515 918 b 789 638 739 1050 833 824 b 753 538 782 604 769 571 b 451 218 690 408 574 282 b 254 211 385 185 319 167 b 271 674 101 314 185 543 b 515 918 338 775 426 865 z m 208 681 b 158 236 126 554 50 360 b 322 168 199 190 258 164 b 456 207 369 172 414 186 b 767 535 583 272 703 403 b 801 635 783 568 794 603 b 457 929 857 865 704 1075 b 208 681 367 875 276 783 z m 497 811 b 679 936 643 865 672 907 b 656 976 685 954 675 985 b 510 843 614 928 563 886 b 497 811 494 832 471 800 z "},"Ô":{"ha":804,"x_min":0,"x_max":0,"o":"m 515 918 b 789 638 739 1050 833 824 b 753 538 782 604 769 571 b 451 218 690 408 574 282 b 254 211 385 185 319 167 b 271 674 101 314 185 543 b 515 918 338 775 426 865 z m 208 681 b 158 236 126 554 50 360 b 322 168 199 190 258 164 b 456 207 369 172 414 186 b 767 535 583 272 703 403 b 801 635 783 568 794 603 b 457 929 857 865 704 1075 b 208 681 367 875 276 783 z m 628 842 b 514 922 575 901 543 911 b 408 846 494 931 442 904 b 382 868 397 846 382 853 b 507 957 408 904 454 957 b 649 857 563 957 650 906 b 628 842 647 853 631 839 z "},"Õ":{"ha":804,"x_min":0,"x_max":0,"o":"m 515 918 b 789 638 739 1050 833 824 b 753 538 782 604 769 571 b 451 218 690 408 574 282 b 254 211 385 185 319 167 b 271 674 101 314 185 543 b 515 918 338 775 426 865 z m 208 681 b 158 236 126 554 50 360 b 322 168 199 190 258 164 b 456 207 369 172 414 186 b 767 535 583 272 703 403 b 801 635 783 568 794 603 b 457 929 857 865 704 1075 b 208 681 367 875 276 783 z m 422 804 l 422 804 b 431 810 428 803 431 804 b 481 875 433 840 447 867 b 703 867 550 885 629 824 b 732 932 721 881 732 901 b 718 935 735 942 721 943 b 528 918 707 869 575 915 b 454 901 503 922 476 915 b 415 811 431 883 421 856 b 422 804 414 806 418 803 z "},"Ö":{"ha":804,"x_min":0,"x_max":0,"o":"m 515 918 b 789 638 739 1050 833 824 b 753 538 782 604 769 571 b 451 218 690 408 574 282 b 254 211 385 185 319 167 b 271 674 101 314 185 543 b 515 918 338 775 426 865 z m 208 681 b 158 236 126 554 50 360 b 322 168 199 190 258 164 b 456 207 369 172 414 186 b 767 535 583 272 703 403 b 801 635 783 568 794 603 b 457 929 857 865 704 1075 b 208 681 367 875 276 783 z m 446 964 b 432 854 411 936 408 885 b 524 856 457 825 497 825 b 531 960 551 883 554 931 b 446 964 510 983 474 989 z m 618 964 b 703 960 646 989 682 983 b 696 856 726 931 724 883 b 604 854 669 825 629 825 b 618 964 581 885 583 936 z "},"×":{"ha":1157,"x_min":0,"x_max":0,"o":""},"Ø":{"ha":804,"x_min":0,"x_max":0,"o":"m 515 918 b 789 638 739 1050 833 824 b 753 538 782 604 769 571 b 451 218 690 408 574 282 b 254 211 385 185 319 167 b 271 674 101 314 185 543 b 515 918 338 775 426 865 z m 208 681 b 158 236 126 554 50 360 b 322 168 199 190 258 164 b 456 207 369 172 414 186 b 767 535 583 272 703 403 b 801 635 783 568 794 603 b 457 929 857 865 704 1075 b 208 681 367 875 276 783 z m 243 -69 b 489 782 331 213 415 529 b 453 814 494 789 465 840 l 203 -31 b 243 -69 200 -49 221 -99 z "},"Ù":{"ha":1408,"x_min":0,"x_max":0,"o":"m 706 1035 b 158 575 513 989 139 810 b 382 468 165 482 254 426 b 699 806 517 514 640 664 b 735 950 719 857 732 907 b 725 1025 736 978 733 1003 b 735 1028 728 1026 732 1028 b 1060 857 882 1058 1085 1061 b 917 496 1047 747 975 608 b 963 224 874 410 736 144 b 1276 538 1063 258 1206 443 b 1222 -17 1211 390 1072 100 b 1368 -26 1256 -42 1303 -47 l 1365 -15 b 1249 -4 1308 -33 1271 -28 b 1511 864 1074 181 1454 733 b 1447 868 1528 901 1460 897 b 1304 596 1408 782 1350 685 b 960 235 1231 494 1065 272 b 982 492 817 186 967 461 b 1129 854 1043 606 1117 744 b 721 1038 1157 1079 876 1072 b 524 1089 683 1111 594 1108 l 525 1078 b 706 1035 590 1094 672 1100 z m 713 1022 b 722 950 721 1001 724 976 b 688 810 719 908 707 860 b 378 481 629 671 508 524 b 224 581 292 451 228 504 b 713 1022 208 778 538 968 z m 986 911 b 861 1076 931 1049 889 1072 b 819 1049 843 1081 811 1067 b 954 918 869 1013 911 965 b 986 911 965 906 997 885 z "},"Ú":{"ha":1408,"x_min":0,"x_max":0,"o":"m 706 1035 b 158 575 513 989 139 810 b 382 468 165 482 254 426 b 699 806 517 514 640 664 b 735 950 719 857 732 907 b 725 1025 736 978 733 1003 b 735 1028 728 1026 732 1028 b 1060 857 882 1058 1085 1061 b 917 496 1047 747 975 608 b 963 224 874 410 736 144 b 1276 538 1063 258 1206 443 b 1222 -17 1211 390 1072 100 b 1368 -26 1256 -42 1303 -47 l 1365 -15 b 1249 -4 1308 -33 1271 -28 b 1511 864 1074 181 1454 733 b 1447 868 1528 901 1460 897 b 1304 596 1408 782 1350 685 b 960 235 1231 494 1065 272 b 982 492 817 186 967 461 b 1129 854 1043 606 1117 744 b 721 1038 1157 1079 876 1072 b 524 1089 683 1111 594 1108 l 525 1078 b 706 1035 590 1094 672 1100 z m 713 1022 b 722 950 721 1001 724 976 b 688 810 719 908 707 860 b 378 481 629 671 508 524 b 224 581 292 451 228 504 b 713 1022 208 778 538 968 z m 1007 858 b 1189 983 1153 913 1182 954 b 1165 1024 1194 1001 1185 1032 b 1019 890 1124 975 1072 933 b 1007 858 1004 879 981 847 z "},"Û":{"ha":1408,"x_min":0,"x_max":0,"o":"m 706 1035 b 158 575 513 989 139 810 b 382 468 165 482 254 426 b 699 806 517 514 640 664 b 735 950 719 857 732 907 b 725 1025 736 978 733 1003 b 735 1028 728 1026 732 1028 b 1060 857 882 1058 1085 1061 b 917 496 1047 747 975 608 b 963 224 874 410 736 144 b 1276 538 1063 258 1206 443 b 1222 -17 1211 390 1072 100 b 1368 -26 1256 -42 1303 -47 l 1365 -15 b 1249 -4 1308 -33 1271 -28 b 1511 864 1074 181 1454 733 b 1447 868 1528 901 1460 897 b 1304 596 1408 782 1350 685 b 960 235 1231 494 1065 272 b 982 492 817 186 967 461 b 1129 854 1043 606 1117 744 b 721 1038 1157 1079 876 1072 b 524 1089 683 1111 594 1108 l 525 1078 b 706 1035 590 1094 672 1100 z m 713 1022 b 722 950 721 1001 724 976 b 688 810 719 908 707 860 b 378 481 629 671 508 524 b 224 581 292 451 228 504 b 713 1022 208 778 538 968 z m 1232 858 b 1253 874 1235 856 1251 869 b 1111 974 1254 922 1167 974 b 986 885 1058 974 1013 921 b 1013 863 986 869 1001 863 b 1118 939 1046 921 1099 947 b 1232 858 1147 928 1179 918 z "},"Ü":{"ha":1408,"x_min":0,"x_max":0,"o":"m 706 1035 b 158 575 513 989 139 810 b 382 468 165 482 254 426 b 699 806 517 514 640 664 b 735 950 719 857 732 907 b 725 1025 736 978 733 1003 b 735 1028 728 1026 732 1028 b 1060 857 882 1058 1085 1061 b 917 496 1047 747 975 608 b 963 224 874 410 736 144 b 1276 538 1063 258 1206 443 b 1222 -17 1211 390 1072 100 b 1368 -26 1256 -42 1303 -47 l 1365 -15 b 1249 -4 1308 -33 1271 -28 b 1511 864 1074 181 1454 733 b 1447 868 1528 901 1460 897 b 1304 596 1408 782 1350 685 b 960 235 1231 494 1065 272 b 982 492 817 186 967 461 b 1129 854 1043 606 1117 744 b 721 1038 1157 1079 876 1072 b 524 1089 683 1111 594 1108 l 525 1078 b 706 1035 590 1094 672 1100 z m 713 1022 b 722 950 721 1001 724 976 b 688 810 719 908 707 860 b 378 481 629 671 508 524 b 224 581 292 451 228 504 b 713 1022 208 778 538 968 z m 1021 1024 b 1106 1019 1049 1049 1085 1043 b 1099 915 1129 990 1126 943 b 1007 914 1072 885 1032 885 b 1021 1024 983 944 986 996 z m 1193 1024 b 1179 914 1158 996 1156 944 b 1271 915 1204 885 1244 885 b 1278 1019 1299 943 1301 990 b 1193 1024 1257 1043 1221 1049 z "},"Ý":{"ha":1247,"x_min":0,"x_max":0,"o":"m 1201 649 b 1133 469 1185 600 1161 538 b 975 285 1092 403 1038 335 b 806 242 947 261 815 169 b 879 479 799 289 857 421 b 924 868 922 596 961 749 b 799 1001 903 928 864 979 b 574 990 740 1019 633 1010 l 572 992 b 410 1004 542 1022 488 1033 l 414 992 b 560 986 483 1018 531 1011 b 319 842 472 957 389 900 b 228 749 282 811 251 778 b 169 654 203 717 185 685 b 353 465 110 514 208 404 b 589 772 463 513 553 647 b 607 899 603 817 608 860 b 581 979 607 931 597 960 b 786 963 649 1000 726 1004 b 864 846 821 938 847 899 b 815 479 885 758 875 633 b 764 221 790 413 725 282 b 985 275 807 157 939 239 b 1110 414 1032 314 1074 363 b 997 168 1076 333 1040 250 b 479 -136 817 175 461 111 b 644 -262 488 -228 557 -276 b 1051 153 818 -233 974 8 b 1174 138 1090 150 1129 144 l 1182 150 b 1057 165 1138 157 1097 161 b 1271 664 1157 349 1231 549 z m 349 478 b 229 649 233 432 203 561 b 568 975 275 781 439 933 b 594 899 583 956 593 929 b 578 775 597 861 589 818 b 349 478 542 653 456 522 z m 633 -242 b 492 -136 557 -272 500 -212 b 990 157 476 101 821 163 b 633 -242 915 18 788 -182 z m 850 839 b 1032 964 996 893 1025 935 b 1008 1004 1038 982 1028 1013 b 863 871 967 956 915 914 b 850 839 847 860 824 828 z "},"Þ":{"ha":1157,"x_min":0,"x_max":0,"o":""},"ß":{"ha":1157,"x_min":0,"x_max":0,"o":""},"à":{"ha":514,"x_min":0,"x_max":0,"o":"m 379 586 b 274 383 343 518 311 447 b 118 207 207 265 154 207 b 96 415 24 207 72 371 b 303 618 136 493 207 603 b 379 586 328 622 368 607 z m 383 597 b 297 632 364 619 321 631 b 26 431 179 636 68 532 b 115 196 -22 317 -1 194 b 282 379 183 197 251 324 b 321 192 267 335 229 188 b 426 263 363 193 403 238 b 551 417 474 313 524 381 b 550 426 551 419 553 424 b 539 425 546 428 543 428 b 418 271 511 386 463 321 b 331 207 372 222 344 204 b 351 386 297 214 325 318 b 472 640 394 489 454 604 b 400 632 432 636 465 640 b 383 597 394 621 389 610 z m 333 674 b 208 839 278 811 236 835 b 167 811 190 843 158 829 b 301 681 217 775 258 728 b 333 674 313 668 344 647 z "},"á":{"ha":514,"x_min":0,"x_max":0,"o":"m 379 586 b 274 383 343 518 311 447 b 118 207 207 265 154 207 b 96 415 24 207 72 371 b 303 618 136 493 207 603 b 379 586 328 622 368 607 z m 383 597 b 297 632 364 619 321 631 b 26 431 179 636 68 532 b 115 196 -22 317 -1 194 b 282 379 183 197 251 324 b 321 192 267 335 229 188 b 426 263 363 193 403 238 b 551 417 474 313 524 381 b 550 426 551 419 553 424 b 539 425 546 428 543 428 b 418 271 511 386 463 321 b 331 207 372 222 344 204 b 351 386 297 214 325 318 b 472 640 394 489 454 604 b 400 632 432 636 465 640 b 383 597 394 621 389 610 z m 258 672 b 440 797 404 726 433 768 b 417 838 446 815 436 846 b 271 704 375 789 324 747 b 258 672 256 693 232 661 z "},"â":{"ha":514,"x_min":0,"x_max":0,"o":"m 379 586 b 303 618 368 607 328 622 b 96 415 207 603 136 493 b 118 207 72 371 24 207 b 274 383 154 207 207 265 b 379 586 311 447 343 518 z m 383 597 b 400 632 389 610 394 621 b 472 640 465 640 432 636 b 351 386 454 604 394 489 b 331 207 325 318 297 214 b 418 271 344 204 372 222 b 539 425 463 321 511 386 b 550 426 543 428 546 428 b 551 417 553 424 551 419 b 426 263 524 381 474 313 b 321 192 403 238 363 193 b 282 379 229 188 267 335 b 115 196 251 324 183 197 b 26 431 -1 194 -22 317 b 297 632 68 532 179 636 b 383 597 321 631 364 619 z m 408 667 b 429 682 411 664 428 678 b 288 782 431 731 343 782 b 163 693 235 782 189 729 b 189 671 163 678 178 671 b 294 747 222 729 275 756 b 408 667 324 736 356 726 z "},"ã":{"ha":514,"x_min":0,"x_max":0,"o":"m 379 586 b 274 383 343 518 311 447 b 118 207 207 265 154 207 b 96 415 24 207 72 371 b 303 618 136 493 207 603 b 379 586 328 622 368 607 z m 383 597 b 297 632 364 619 321 631 b 26 431 179 636 68 532 b 115 196 -22 317 -1 194 b 282 379 183 197 251 324 b 321 192 267 335 229 188 b 426 263 363 193 403 238 b 551 417 474 313 524 381 b 550 426 551 419 553 424 b 539 425 546 428 543 428 b 418 271 511 386 463 321 b 331 207 372 222 344 204 b 351 386 297 214 325 318 b 472 640 394 489 454 604 b 400 632 432 636 465 640 b 383 597 394 621 389 610 z m 225 669 l 225 669 b 233 675 231 668 233 669 b 283 740 236 706 250 732 b 506 732 353 750 432 689 b 535 797 524 746 535 767 b 521 800 538 807 524 808 b 331 783 510 735 378 781 b 257 767 306 788 279 781 b 218 676 233 749 224 721 b 225 669 217 671 221 668 z "},"ä":{"ha":514,"x_min":0,"x_max":0,"o":"m 379 586 b 274 383 343 518 311 447 b 118 207 207 265 154 207 b 96 415 24 207 72 371 b 303 618 136 493 207 603 b 379 586 328 622 368 607 z m 383 597 b 297 632 364 619 321 631 b 26 431 179 636 68 532 b 115 196 -22 317 -1 194 b 282 379 183 197 251 324 b 321 192 267 335 229 188 b 426 263 363 193 403 238 b 551 417 474 313 524 381 b 550 426 551 419 553 424 b 539 425 546 428 543 428 b 418 271 511 386 463 321 b 331 207 372 222 344 204 b 351 386 297 214 325 318 b 472 640 394 489 454 604 b 400 632 432 636 465 640 b 383 597 394 621 389 610 z m 265 821 b 251 711 231 793 228 742 b 343 713 276 682 317 682 b 350 817 371 740 374 788 b 265 821 329 840 293 846 z m 438 821 b 424 711 403 793 400 742 b 515 713 449 682 489 682 b 522 817 543 740 546 788 b 438 821 501 840 465 846 z "},"å":{"ha":514,"x_min":0,"x_max":0,"o":"m 379 586 b 303 618 368 607 328 622 b 96 415 207 603 136 493 b 118 207 72 371 24 207 b 274 383 154 207 207 265 b 379 586 311 447 343 518 z m 383 597 b 400 632 389 610 394 621 b 472 640 465 640 432 636 b 351 386 454 604 394 489 b 331 207 325 318 297 214 b 418 271 344 204 372 222 b 539 425 463 321 511 386 b 550 426 543 428 546 428 b 551 417 553 424 551 419 b 426 263 524 381 474 313 b 321 192 403 238 363 193 b 282 379 229 188 267 335 b 115 196 251 324 183 197 b 26 431 -1 194 -22 317 b 297 632 68 532 179 636 b 383 597 321 631 364 619 z m 354 806 b 293 744 322 806 293 778 b 347 685 290 711 315 685 b 413 744 379 685 410 711 b 354 806 413 778 386 806 z m 353 788 b 394 744 379 788 396 769 b 347 701 392 721 374 701 b 310 744 325 701 307 721 b 353 788 311 769 331 788 z "},"æ":{"ha":875,"x_min":0,"x_max":0,"o":"m 379 586 b 274 383 343 518 311 447 b 118 207 207 265 154 207 b 96 415 24 207 72 371 b 303 618 136 493 207 603 b 379 586 328 622 368 607 z m 383 597 b 297 632 364 619 321 631 b 26 431 179 636 68 532 b 115 196 -22 317 -1 194 b 282 379 183 197 251 324 b 321 192 267 335 229 188 b 426 263 363 193 403 238 b 551 417 474 313 524 381 b 550 426 551 419 553 424 b 539 425 546 428 543 428 b 418 271 511 386 463 321 b 331 207 372 222 344 204 b 351 386 297 214 325 318 b 472 640 394 489 454 604 b 400 632 432 636 465 640 b 383 597 394 621 389 610 z m 535 415 b 682 196 490 288 526 144 b 913 418 772 228 856 340 b 911 426 914 421 913 425 b 900 425 908 429 904 428 b 682 213 846 350 771 247 b 626 451 521 150 588 374 b 871 539 696 433 843 454 b 785 633 893 601 844 633 b 739 626 771 633 754 631 b 535 415 638 597 567 510 z m 749 604 b 858 543 804 636 885 614 b 633 464 835 467 696 449 b 749 604 656 510 700 574 z "},"ç":{"ha":358,"x_min":0,"x_max":0,"o":"m 19 415 b 169 201 -25 288 17 149 b 324 322 228 221 282 271 b 396 417 353 358 379 394 b 393 426 396 419 396 424 b 383 425 390 428 386 428 b 313 331 367 400 342 365 b 167 213 278 286 221 233 b 94 415 22 156 61 336 b 143 510 108 447 125 481 b 272 618 182 567 228 611 b 344 590 296 622 332 608 b 354 597 346 589 354 594 b 92 542 279 678 146 606 b 19 415 58 504 33 460 z m 42 207 b 74 174 57 200 68 186 b 56 50 88 144 76 74 b -40 50 28 17 -6 44 b -57 33 -57 53 -58 46 b 114 36 -4 1 69 -15 b 117 185 150 78 153 147 b 60 221 101 200 79 213 z "},"è":{"ha":361,"x_min":0,"x_max":0,"o":"m 21 415 b 168 196 -24 288 13 144 b 399 418 258 228 342 340 b 397 426 400 421 399 425 b 386 425 394 429 390 428 b 168 213 332 350 257 247 b 113 451 7 150 74 374 b 357 539 182 433 329 454 b 271 633 379 601 331 633 b 225 626 257 633 240 631 b 21 415 124 597 53 510 z m 235 604 b 344 543 290 636 371 614 b 119 464 321 467 182 449 b 235 604 142 510 186 574 z m 300 681 b 175 846 244 818 203 842 b 133 818 157 850 125 836 b 268 688 183 782 225 735 b 300 681 279 675 311 654 z "},"é":{"ha":361,"x_min":0,"x_max":0,"o":"m 21 415 b 168 196 -24 288 13 144 b 399 418 258 228 342 340 b 397 426 400 421 399 425 b 386 425 394 429 390 428 b 168 213 332 350 257 247 b 113 451 7 150 74 374 b 357 539 182 433 329 454 b 271 633 379 601 331 633 b 225 626 257 633 240 631 b 21 415 124 597 53 510 z m 235 604 b 344 543 290 636 371 614 b 119 464 321 467 182 449 b 235 604 142 510 186 574 z m 221 676 b 403 801 367 731 396 772 b 379 842 408 819 399 850 b 233 708 338 793 286 751 b 221 676 218 697 194 665 z "},"ê":{"ha":361,"x_min":0,"x_max":0,"o":"m 21 415 b 225 626 53 510 124 597 b 271 633 240 631 257 633 b 357 539 331 633 379 601 b 113 451 329 454 182 433 b 168 213 74 374 7 150 b 386 425 257 247 332 350 b 397 426 390 428 394 429 b 399 418 399 425 400 421 b 168 196 342 340 258 228 b 21 415 13 144 -24 288 z m 235 604 b 119 464 186 574 142 510 b 344 543 182 449 321 467 b 235 604 371 614 290 636 z m 379 635 b 400 650 382 632 399 646 b 258 750 401 699 314 750 b 133 661 206 750 160 697 b 160 639 133 646 149 639 b 265 715 193 697 246 724 b 379 635 294 704 326 694 z "},"ë":{"ha":361,"x_min":0,"x_max":0,"o":"m 21 415 b 168 196 -24 288 13 144 b 399 418 258 228 342 340 b 397 426 400 421 399 425 b 386 425 394 429 390 428 b 168 213 332 350 257 247 b 113 451 7 150 74 374 b 357 539 182 433 329 454 b 271 633 379 601 331 633 b 225 626 257 633 240 631 b 21 415 124 597 53 510 z m 235 604 b 344 543 290 636 371 614 b 119 464 321 467 182 449 b 235 604 142 510 186 574 z m 153 790 b 139 681 118 763 115 711 b 231 682 164 651 204 651 b 238 786 258 710 261 757 b 153 790 217 810 181 815 z m 325 790 b 311 681 290 763 288 711 b 403 682 336 651 376 651 b 410 786 431 710 433 757 b 325 790 389 810 353 815 z "},"ì":{"ha":244,"x_min":0,"x_max":0,"o":"m 193 774 b 151 735 168 768 149 750 b 201 715 156 718 176 710 b 243 756 228 721 244 739 b 193 774 240 771 217 779 z m 124 640 b 6 210 76 550 -58 294 b 50 190 15 197 29 190 b 158 261 90 192 133 236 b 281 417 204 311 253 381 b 278 425 282 419 282 424 b 271 424 276 428 272 426 b 149 271 242 385 193 319 b 60 207 103 221 75 204 b 197 649 -8 219 172 592 b 124 640 158 644 185 647 z m 250 800 b 125 965 194 938 153 961 b 83 938 107 969 75 956 b 218 807 133 901 175 854 b 250 800 229 794 261 774 z "},"í":{"ha":244,"x_min":0,"x_max":0,"o":"m 193 774 b 151 735 168 768 149 750 b 201 715 156 718 176 710 b 243 756 228 721 244 739 b 193 774 240 771 217 779 z m 124 640 b 6 210 76 550 -58 294 b 50 190 15 197 29 190 b 158 261 90 192 133 236 b 281 417 204 311 253 381 b 278 425 282 419 282 424 b 271 424 276 428 272 426 b 149 271 242 385 193 319 b 60 207 103 221 75 204 b 197 649 -8 219 172 592 b 124 640 158 644 185 647 z m 161 797 b 343 922 307 851 336 893 b 319 963 349 940 339 971 b 174 829 278 914 226 872 b 161 797 158 818 135 786 z "},"î":{"ha":244,"x_min":0,"x_max":0,"o":"m 193 774 b 243 756 217 779 240 771 b 201 715 244 739 228 721 b 151 735 176 710 156 718 b 193 774 149 750 168 768 z m 124 640 b 197 649 185 647 158 644 b 60 207 172 592 -8 219 b 149 271 75 204 103 221 b 271 424 193 319 242 385 b 278 425 272 426 276 428 b 281 417 282 424 282 419 b 158 261 253 381 204 311 b 50 190 133 236 90 192 b 6 210 29 190 15 197 b 124 640 -58 294 76 550 z m 328 769 b 349 785 331 767 347 781 b 207 885 350 833 263 885 b 82 796 154 885 108 832 b 108 774 82 781 97 774 b 214 850 142 832 194 858 b 328 769 243 839 275 829 z "},"ï":{"ha":244,"x_min":0,"x_max":0,"o":"m 193 774 b 151 735 168 768 149 750 b 201 715 156 718 176 710 b 243 756 228 721 244 739 b 193 774 240 771 217 779 z m 124 640 b 6 210 76 550 -58 294 b 50 190 15 197 29 190 b 158 261 90 192 133 236 b 281 417 204 311 253 381 b 278 425 282 419 282 424 b 271 424 276 428 272 426 b 149 271 242 385 193 319 b 60 207 103 221 75 204 b 197 649 -8 219 172 592 b 124 640 158 644 185 647 z m 75 913 b 61 803 40 885 38 833 b 153 804 86 774 126 774 b 160 908 181 832 183 879 b 75 913 139 932 103 938 z m 247 913 b 233 803 213 885 210 833 b 325 804 258 774 299 774 b 332 908 353 832 356 879 b 247 913 311 932 275 938 z "},"ð":{"ha":479,"x_min":0,"x_max":0,"o":"m 81 150 l 81 150 b 285 210 165 150 232 172 b 457 975 438 321 578 790 b 393 1028 439 1001 417 1019 b 244 976 336 1050 281 1021 b 231 711 189 904 175 797 b 392 619 267 651 328 621 b 78 169 363 458 267 169 b 81 150 65 169 67 150 z m 396 639 l 396 639 b 246 721 338 640 282 667 b 260 965 194 800 207 897 b 376 951 303 1018 340 1022 b 396 639 424 867 411 726 z "},"ñ":{"ha":450,"x_min":0,"x_max":0,"o":"m 0 183 b 124 513 22 253 79 400 b 308 618 172 556 268 635 b 318 599 314 615 318 610 b 293 526 315 583 306 557 b 253 188 264 461 117 181 b 363 260 293 189 335 232 b 485 414 407 310 458 378 b 475 422 490 421 479 429 b 264 204 444 382 311 196 b 254 264 243 208 251 247 b 349 518 281 349 328 429 b 350 596 357 546 358 572 b 311 635 342 621 328 632 b 139 550 265 643 182 585 b 182 657 160 604 178 646 l 114 649 b -65 181 85 592 -29 285 z m 113 665 l 113 665 b 121 671 118 664 121 665 b 171 736 124 701 138 728 b 393 728 240 746 319 685 b 422 793 411 742 422 763 b 408 796 425 803 411 804 b 218 779 397 731 265 776 b 144 763 193 783 167 776 b 106 672 121 744 111 717 b 113 665 104 667 108 664 z "},"ò":{"ha":454,"x_min":0,"x_max":0,"o":"m 314 525 b 285 343 331 469 317 403 b 175 490 203 358 167 407 b 146 486 176 510 147 500 b 279 332 139 401 204 347 b 143 210 244 276 197 231 b 79 392 13 158 49 321 b 124 476 90 421 106 450 b 239 575 157 528 199 568 b 314 525 276 581 304 557 z m 296 342 b 326 529 328 403 342 472 b 239 588 314 568 281 588 b 75 506 178 589 111 546 b 11 392 47 472 24 432 b 146 200 -29 276 8 153 b 289 329 204 219 254 269 l 292 329 b 492 417 369 318 453 358 b 481 422 492 417 488 428 b 296 342 436 365 367 332 z m 274 607 b 149 772 218 744 176 768 b 107 744 131 776 99 763 b 242 614 157 708 199 661 b 274 607 253 601 285 581 z "},"ó":{"ha":454,"x_min":0,"x_max":0,"o":"m 314 525 b 285 343 331 469 317 403 b 175 490 203 358 167 407 b 146 486 176 510 147 500 b 279 332 139 401 204 347 b 143 210 244 276 197 231 b 79 392 13 158 49 321 b 124 476 90 421 106 450 b 239 575 157 528 199 568 b 314 525 276 581 304 557 z m 296 342 b 326 529 328 403 342 472 b 239 588 314 568 281 588 b 75 506 178 589 111 546 b 11 392 47 472 24 432 b 146 200 -29 276 8 153 b 289 329 204 219 254 269 l 292 329 b 492 417 369 318 453 358 b 481 422 492 417 488 428 b 296 342 436 365 367 332 z m 236 624 b 418 749 382 678 411 719 b 394 789 424 767 414 797 b 249 656 353 740 301 699 b 236 624 233 644 210 613 z "},"ô":{"ha":454,"x_min":0,"x_max":0,"o":"m 314 525 b 239 575 304 557 276 581 b 124 476 199 568 157 528 b 79 392 106 450 90 421 b 143 210 49 321 13 158 b 279 332 197 231 244 276 b 146 486 204 347 139 401 b 175 490 147 500 176 510 b 285 343 167 407 203 358 b 314 525 317 403 331 469 z m 296 342 b 481 422 367 332 436 365 b 492 417 488 428 492 417 b 292 329 453 358 369 318 l 289 329 b 146 200 254 269 204 219 b 11 392 8 153 -29 276 b 75 506 24 432 47 472 b 239 588 111 546 178 589 b 326 529 281 588 314 568 b 296 342 342 472 328 403 z m 367 607 b 388 622 369 604 386 618 b 246 722 389 671 301 722 b 121 633 193 722 147 669 b 147 611 121 618 136 611 b 253 688 181 669 233 696 b 367 607 282 676 314 667 z "},"õ":{"ha":454,"x_min":0,"x_max":0,"o":"m 314 525 b 285 343 331 469 317 403 b 175 490 203 358 167 407 b 146 486 176 510 147 500 b 279 332 139 401 204 347 b 143 210 244 276 197 231 b 79 392 13 158 49 321 b 124 476 90 421 106 450 b 239 575 157 528 199 568 b 314 525 276 581 304 557 z m 296 342 b 326 529 328 403 342 472 b 239 588 314 568 281 588 b 75 506 178 589 111 546 b 11 392 47 472 24 432 b 146 200 -29 276 8 153 b 289 329 204 219 254 269 l 292 329 b 492 417 369 318 453 358 b 481 422 492 417 488 428 b 296 342 436 365 367 332 z m 135 578 l 135 578 b 143 583 140 576 143 578 b 193 649 146 614 160 640 b 415 640 263 658 342 597 b 444 706 433 654 444 675 b 431 708 447 715 433 717 b 240 692 419 643 288 689 b 167 675 215 696 189 689 b 128 585 143 657 133 629 b 135 578 126 579 131 576 z "},"ö":{"ha":454,"x_min":0,"x_max":0,"o":"m 314 525 b 285 343 331 469 317 403 b 175 490 203 358 167 407 b 146 486 176 510 147 500 b 279 332 139 401 204 347 b 143 210 244 276 197 231 b 79 392 13 158 49 321 b 124 476 90 421 106 450 b 239 575 157 528 199 568 b 314 525 276 581 304 557 z m 296 342 b 326 529 328 403 342 472 b 239 588 314 568 281 588 b 75 506 178 589 111 546 b 11 392 47 472 24 432 b 146 200 -29 276 8 153 b 289 329 204 219 254 269 l 292 329 b 492 417 369 318 453 358 b 481 422 492 417 488 428 b 296 342 436 365 367 332 z m 126 738 b 113 628 92 710 89 658 b 204 629 138 599 178 599 b 211 733 232 657 235 704 b 126 738 190 757 154 763 z m 299 738 b 285 628 264 710 261 658 b 376 629 310 599 350 599 b 383 733 404 657 407 704 b 299 738 363 757 326 763 z "},"÷":{"ha":176,"x_min":0,"x_max":0,"o":"m 71 339 b 57 229 36 311 33 260 b 150 231 82 200 122 200 b 157 335 178 258 179 306 b 71 339 135 358 99 364 z m 92 643 b 78 533 58 615 56 564 b 169 535 103 504 143 504 b 176 639 199 563 201 610 b 92 643 157 663 121 668 z m -131 413 b 350 413 -15 411 232 413 l 353 463 l -128 460 z "},"ø":{"ha":454,"x_min":0,"x_max":0,"o":"m 314 525 b 285 343 331 469 317 403 b 175 490 203 358 167 407 b 146 486 176 510 147 500 b 279 332 139 401 204 347 b 143 210 244 276 197 231 b 79 392 13 158 49 321 b 124 476 90 421 106 450 b 239 575 157 528 199 568 b 314 525 276 581 304 557 z m 296 342 b 326 529 328 403 342 472 b 239 588 314 568 281 588 b 75 506 178 589 111 546 b 11 392 47 472 24 432 b 146 200 -29 276 8 153 b 289 329 204 219 254 269 l 292 329 b 492 417 369 318 453 358 b 481 422 492 417 488 428 b 296 342 436 365 367 332 z m 88 -46 b 333 806 175 236 260 553 b 297 838 339 813 310 864 l 47 -7 b 88 -46 44 -25 65 -75 z "},"ù":{"ha":488,"x_min":0,"x_max":0,"o":"m 124 633 b 4 210 76 544 -58 296 b 50 192 14 197 28 190 b 156 263 90 193 132 238 b 253 382 190 299 226 346 b 250 210 232 311 224 246 b 296 192 260 197 274 190 b 401 263 336 193 378 238 b 525 417 449 313 499 381 b 524 426 526 419 526 424 b 514 425 521 428 517 428 b 393 271 486 386 438 321 b 304 207 346 222 319 204 b 439 642 235 219 415 586 b 367 633 400 638 428 642 b 268 422 342 589 300 508 b 147 271 238 382 192 319 b 58 207 100 222 74 204 b 196 642 -8 219 172 586 b 124 633 158 639 185 642 z m 314 693 b 189 858 258 831 217 854 b 147 831 171 863 139 849 b 282 700 197 794 239 747 b 314 693 293 688 325 667 z "},"ú":{"ha":488,"x_min":0,"x_max":0,"o":"m 124 633 b 4 210 76 544 -58 296 b 50 192 14 197 28 190 b 156 263 90 193 132 238 b 253 382 190 299 226 346 b 250 210 232 311 224 246 b 296 192 260 197 274 190 b 401 263 336 193 378 238 b 525 417 449 313 499 381 b 524 426 526 419 526 424 b 514 425 521 428 517 428 b 393 271 486 386 438 321 b 304 207 346 222 319 204 b 439 642 235 219 415 586 b 367 633 400 638 428 642 b 268 422 342 589 300 508 b 147 271 238 382 192 319 b 58 207 100 222 74 204 b 196 642 -8 219 172 586 b 124 633 158 639 185 642 z m 208 683 b 390 808 354 738 383 779 b 367 849 396 826 386 857 b 221 715 325 800 274 758 b 208 683 206 704 182 672 z "},"û":{"ha":488,"x_min":0,"x_max":0,"o":"m 124 633 b 196 642 185 642 158 639 b 58 207 172 586 -8 219 b 147 271 74 204 100 222 b 268 422 192 319 238 382 b 367 633 300 508 342 589 b 439 642 428 642 400 638 b 304 207 415 586 235 219 b 393 271 319 204 346 222 b 514 425 438 321 486 386 b 524 426 517 428 521 428 b 525 417 526 424 526 419 b 401 263 499 381 449 313 b 296 192 378 238 336 193 b 250 210 274 190 260 197 b 253 382 224 246 232 311 b 156 263 226 346 190 299 b 50 192 132 238 90 193 b 4 210 28 190 14 197 b 124 633 -58 296 76 544 z m 406 706 b 426 721 408 703 425 717 b 285 821 428 769 340 821 b 160 732 232 821 186 768 b 186 710 160 717 175 710 b 292 786 219 768 272 794 b 406 706 321 775 353 765 z "},"ü":{"ha":488,"x_min":0,"x_max":0,"o":"m 124 633 b 4 210 76 544 -58 296 b 50 192 14 197 28 190 b 156 263 90 193 132 238 b 253 382 190 299 226 346 b 250 210 232 311 224 246 b 296 192 260 197 274 190 b 401 263 336 193 378 238 b 525 417 449 313 499 381 b 524 426 526 419 526 424 b 514 425 521 428 517 428 b 393 271 486 386 438 321 b 304 207 346 222 319 204 b 439 642 235 219 415 586 b 367 633 400 638 428 642 b 268 422 342 589 300 508 b 147 271 238 382 192 319 b 58 207 100 222 74 204 b 196 642 -8 219 172 586 b 124 633 158 639 185 642 z m 217 794 b 203 685 182 767 179 715 b 294 686 228 656 268 656 b 301 790 322 714 325 761 b 217 794 281 814 244 819 z m 389 794 b 375 685 354 767 351 715 b 467 686 400 656 440 656 b 474 790 494 714 497 761 b 389 794 453 814 417 819 z "},"ý":{"ha":479,"x_min":0,"x_max":0,"o":"m 179 161 b -43 -339 129 22 19 -276 b 179 161 -136 -433 -171 -51 z m 96 632 b 28 218 61 542 -46 304 b 72 200 38 206 51 199 b 171 271 113 201 151 246 b 251 382 199 304 226 347 b 185 181 229 315 210 247 b -33 -379 -190 -39 -178 -429 b 263 190 49 -349 164 -90 b 517 417 346 226 464 340 b 506 424 519 424 511 431 b 271 208 454 350 350 247 b 403 642 318 351 357 497 b 333 635 381 639 356 636 b 268 436 308 569 289 503 l 267 431 b 81 215 242 390 126 207 b 171 640 10 228 149 583 b 96 632 131 636 160 639 z m 222 679 b 404 804 368 733 397 775 b 381 844 410 822 400 853 b 235 711 339 796 288 754 b 222 679 219 700 196 668 z "},"ÿ":{"ha":479,"x_min":0,"x_max":0,"o":"m 179 161 b -43 -339 129 22 19 -276 b 179 161 -136 -433 -171 -51 z m 96 632 b 28 218 61 542 -46 304 b 72 200 38 206 51 199 b 171 271 113 201 151 246 b 251 382 199 304 226 347 b 185 181 229 315 210 247 b -33 -379 -190 -39 -178 -429 b 263 190 49 -349 164 -90 b 517 417 346 226 464 340 b 506 424 519 424 511 431 b 271 208 454 350 350 247 b 403 642 318 351 357 497 b 333 635 381 639 356 636 b 268 436 308 569 289 503 l 267 431 b 81 215 242 390 126 207 b 171 640 10 228 149 583 b 96 632 131 636 160 639 z m 154 849 b 140 739 119 821 117 769 b 232 740 165 710 206 710 b 239 844 260 768 263 815 b 154 849 218 868 182 874 z m 326 849 b 313 739 292 821 289 769 b 404 740 338 710 378 710 b 411 844 432 768 435 815 b 326 849 390 868 354 874 z "},"":{"ha":425,"x_min":0,"x_max":0,"o":"m 256 617 b 118 486 204 615 154 544 b 432 1154 217 707 419 1128 b 318 1118 396 1164 381 1099 b -14 304 308 1074 8 542 b 15 194 -19 256 -14 213 b 74 181 28 186 49 182 b 165 197 106 179 136 186 b 463 417 294 224 378 296 b 460 425 463 419 464 424 b 453 424 458 428 454 426 b 211 222 374 317 310 254 b 329 351 261 253 301 300 b 256 617 396 475 390 619 z m 46 310 b 251 606 68 383 178 606 b 261 371 333 606 319 482 b 68 194 214 285 143 206 b 46 310 19 186 29 253 z "},"":{"ha":496,"x_min":0,"x_max":0,"o":"m 608 1118 b 367 600 600 1093 461 838 b 282 632 346 619 303 632 b 24 431 163 636 60 532 b 85 203 -8 333 10 235 b 301 413 183 160 260 328 b 293 211 275 321 268 246 b 340 193 304 199 317 192 b 444 264 381 194 424 239 b 568 417 490 314 540 381 b 556 421 572 425 567 436 b 436 272 526 382 481 319 b 350 208 392 224 364 206 b 361 371 319 214 331 286 b 722 1154 401 483 708 1122 b 608 1118 686 1164 671 1099 z m 288 618 b 361 589 311 622 349 608 b 325 483 347 553 335 517 b 99 219 268 356 168 157 b 96 415 53 258 79 378 b 288 618 131 493 193 603 z "},"":{"ha":451,"x_min":0,"x_max":0,"o":"m -58 211 l 3 194 l 124 501 b 313 621 158 539 268 640 b 324 601 321 618 325 613 b 304 529 325 586 315 560 b 286 190 282 464 151 183 b 490 417 367 193 443 354 b 478 425 494 424 483 432 b 297 207 450 385 344 199 b 285 267 274 211 282 250 b 363 521 304 351 346 432 b 357 599 367 549 367 575 b 315 638 347 624 332 635 b 139 540 258 649 182 579 b 426 1154 254 800 417 1132 b 263 1067 390 1164 326 1047 z "},"":{"ha":453,"x_min":0,"x_max":0,"o":"m -57 211 l 4 194 l 125 501 b 314 621 160 539 269 640 b 325 601 322 618 326 613 b 306 529 326 586 317 560 b 288 190 283 464 153 183 b 492 417 368 193 444 354 b 479 425 496 424 485 432 b 299 207 451 385 346 199 b 286 267 275 211 283 250 b 364 521 306 351 347 432 b 358 599 368 549 368 575 b 317 638 349 624 333 635 b 263 629 300 640 281 636 b 526 747 351 704 450 768 b 535 753 531 747 533 749 b 531 760 535 756 533 758 b 197 590 429 786 304 685 l 140 540 b 428 1154 256 800 418 1132 b 264 1067 392 1164 328 1047 z "},"":{"ha":249,"x_min":0,"x_max":0,"o":"m 338 1111 b 11 211 325 1069 -83 349 b 58 193 22 199 35 192 b 163 264 99 194 142 239 b 286 417 208 314 258 381 b 274 421 290 425 285 436 b 154 272 244 382 199 319 b 68 208 110 224 82 206 b 79 371 38 214 49 286 b 440 1154 119 483 426 1122 b 338 1111 404 1164 400 1092 z "},"":{"ha":247,"x_min":0,"x_max":0,"o":"m 325 1118 b 242 946 321 1106 288 1039 l 79 946 l 79 933 l 236 933 b 10 211 119 696 -56 307 b 57 193 21 199 33 192 b 161 264 97 194 140 239 b 285 417 207 314 257 381 b 272 421 289 425 283 436 b 153 272 243 382 197 319 b 67 208 108 224 81 206 b 78 371 36 214 47 286 b 335 933 103 442 236 726 l 776 935 l 778 947 l 340 946 b 439 1154 392 1057 435 1143 b 325 1118 403 1164 388 1099 z "},"":{"ha":649,"x_min":0,"x_max":0,"o":"m -62 13 b 126 515 -19 136 63 354 b 307 618 174 558 267 635 b 317 599 313 615 317 610 b 176 251 314 583 304 557 l 249 251 b 351 539 275 315 344 468 b 507 618 404 581 474 632 b 515 599 511 615 515 610 b 490 526 514 583 503 557 b 451 188 463 461 314 181 b 682 414 531 190 639 353 b 674 422 688 421 678 429 b 463 204 643 382 510 196 b 453 264 440 208 449 247 b 546 518 478 349 525 429 b 547 596 554 546 556 572 b 510 635 539 621 526 632 b 356 561 464 644 401 600 b 310 635 353 590 346 629 b 140 551 264 643 185 586 b 203 715 175 639 200 704 b 115 671 168 721 179 657 b -131 13 107 642 -40 282 z "},"":{"ha":243,"x_min":0,"x_max":0,"o":"m 178 792 b 153 742 157 778 144 754 b 207 740 161 728 185 726 b 235 790 229 753 240 776 b 178 792 225 804 200 804 z m -50 10 b 217 713 8 183 144 525 b 128 668 182 718 193 654 b -118 10 122 639 -26 279 z "},"":{"ha":450,"x_min":0,"x_max":0,"o":"m -61 13 b 126 514 39 288 83 406 b 308 618 175 558 268 635 b 318 599 314 615 318 610 b 293 526 315 583 306 557 b 253 188 264 461 117 181 b 363 260 293 189 335 232 b 485 414 407 310 458 378 b 475 422 490 421 479 429 b 264 204 444 382 311 196 b 254 264 243 208 251 247 b 349 518 281 349 328 429 b 350 596 357 546 358 572 b 311 635 342 621 328 632 b 140 551 265 643 186 586 l 204 715 b 117 671 169 721 181 657 b -129 13 108 642 -39 282 l -61 13 z "},"":{"ha":242,"x_min":0,"x_max":0,"o":"m -61 14 b 322 933 51 317 176 617 l 771 935 l 772 947 l 326 946 l 397 1106 l 324 1097 l 253 946 l 74 946 l 74 933 l 249 933 b -143 15 113 643 -6 343 l -61 14 z "},"":{"ha":451,"x_min":0,"x_max":0,"o":"m 311 1121 b -129 13 163 763 7 406 l -61 13 l 124 501 b 313 621 158 539 268 640 b 324 601 321 618 325 613 b 304 529 325 586 315 560 b 286 190 282 464 151 183 b 490 417 367 193 443 354 b 478 425 494 424 483 432 b 297 207 450 385 344 199 b 285 267 274 211 282 250 b 363 521 304 351 346 432 b 357 599 367 549 367 575 b 315 638 347 624 332 635 b 139 540 258 649 182 579 l 401 1161 b 311 1121 365 1168 375 1104 z "},"":{"ha":467,"x_min":0,"x_max":0,"o":"m 378 1167 b -167 7 129 642 -185 -18 l -99 1 b 138 510 -43 125 53 335 b 326 621 182 553 286 639 b 336 601 335 618 338 613 b 313 529 336 586 324 560 b 271 190 285 464 135 183 b 381 263 311 192 356 235 b 504 417 428 313 476 381 b 493 425 510 424 499 432 b 283 207 465 385 331 199 b 275 267 260 211 271 250 b 368 521 300 351 347 432 b 369 599 375 549 378 575 b 331 638 361 624 347 635 b 240 611 304 643 271 631 b 525 747 335 694 443 769 b 533 753 529 747 532 749 b 529 760 533 756 532 758 b 161 558 418 789 274 660 l 432 1126 l 469 1204 b 378 1167 433 1213 440 1149 z "},"":{"ha":242,"x_min":0,"x_max":0,"o":"m 469 1204 b 378 1167 433 1213 440 1149 b -167 7 129 642 -185 -18 l -99 1 z "}}}
